SplineFontDB: 3.2
FontName: osifont
FullName: osifont
FamilyName: osifont
Weight: Book
Copyright: LICENCE_PLACEHOLDER
Version: 0.1.20221020
ItalicAngle: 0
UnderlinePosition: -534
UnderlineWidth: 327
Ascent: 1542
Descent: 506
InvalidEm: 0
LayerCount: 2
Layer: 0 0 "Back" 1
Layer: 1 1 "Fore" 0
XUID: [1021 906 627443096 3291870]
FSType: 0
OS2Version: 1
OS2_WeightWidthSlopeOnly: 0
OS2_UseTypoMetrics: 1
CreationTime: 1212424095
ModificationTime: 1747727145
PfmFamily: 17
TTFWeight: 400
TTFWidth: 5
LineGap: 0
VLineGap: 0
Panose: 2 0 6 3 0 0 0 0 0 0
OS2TypoAscent: 0
OS2TypoAOffset: 1
OS2TypoDescent: -187
OS2TypoDOffset: 1
OS2TypoLinegap: 0
OS2WinAscent: 2
OS2WinAOffset: 1
OS2WinDescent: -39
OS2WinDOffset: 1
HheadAscent: 2
HheadAOffset: 1
HheadDescent: 41
HheadDOffset: 1
OS2SubXSize: 1330
OS2SubYSize: 1434
OS2SubXOff: 0
OS2SubYOff: 287
OS2SupXSize: 1330
OS2SupYSize: 1434
OS2SupXOff: 0
OS2SupYOff: 983
OS2StrikeYSize: 102
OS2StrikeYPos: 531
OS2Vendor: 'PfEd'
OS2CodePages: 00000001.00000000
OS2UnicodeRanges: 00000001.00000000.00000000.00000000
Lookup: 4 0 0 "A" { "top"  } []
Lookup: 4 0 1 "'liga' Standard Ligatures lookup 1" { "'liga' Standard Ligatures lookup 1-1"  } ['liga' ('DFLT' <'dflt' > 'cyrl' <'dflt' > 'grek' <'dflt' > 'hani' <'dflt' > 'latn' <'dflt' > ) ]
Lookup: 258 0 0 "'kern' Horizontal Kerning lookup 2" { "kernsubtable"  } ['kern' ('DFLT' <'dflt' > 'grek' <'dflt' > 'hani' <'dflt' > 'latn' <'dflt' > ) ]
Lookup: 260 0 0 "'mark' Mark Positioning lookup 0" { "'mark' Mark Positioning lookup 0-1"  } ['mark' ('DFLT' <'dflt' > 'grek' <'dflt' > 'latn' <'dflt' > ) ]
MarkAttachClasses: 1
DEI: 91125
ShortTable: cvt  4
  68
  1297
  121
  60
EndShort
ShortTable: maxp 16
  1
  0
  6
  76
  2
  0
  0
  2
  0
  1
  1
  0
  64
  46
  0
  0
EndShort
LangName: 1033 "" "" "Medium"
GaspTable: 3 0 2 15 1 65535 3 0
Encoding: UnicodeBmp
UnicodeInterp: none
NameList: Adobe Glyph List
DisplaySize: -72
AntiAlias: 1
FitToEm: 1
WinInfo: 200 25 9
BeginPrivate: 0
EndPrivate
GridOrder2: 1
Grid

StartChar: .notdef
Encoding: 65536 -1 0
Width: 896
VWidth: 2456
Flags: W
LayerCount: 2
Fore
SplineSet
80 0 m 1,0,-1
 80 1638 l 1,1,-1
 733 1638 l 1,2,-1
 733 0 l 1,3,-1
 80 0 l 1,0,-1
163 80 m 1,4,-1
 653 80 l 1,5,-1
 653 1555 l 1,6,-1
 163 1555 l 1,7,-1
 163 80 l 1,4,-1
EndSplineSet
Validated: 1
EndChar

StartChar: A
Encoding: 65 65 4
Width: 1258
VWidth: 2456
Flags: W
HStem: 0 21G<1059.5 1122> 382 141<400 861> 1490 20G<608 659>
LayerCount: 2
Fore
SplineSet
564 1455 m 10,0,1
 582 1510 582 1510 634 1510 c 24,2,3
 684 1510 684 1510 702 1455 c 18,4,-1
 1149 111 l 18,5,6
 1158 84 1158 84 1158 67 c 0,7,8
 1158 8 1158 8 1086 0 c 1,9,10
 1033 0 1033 0 1011 66 c 2,11,12
 1011 66 1011 66 909 382 c 1,13,-1
 355 382 l 1,14,-1
 246 58 l 2,15,16
 225 -3 225 -3 178 -3 c 0,17,18
 100 -3 100 -3 100 70 c 16,19,20
 100 80 100 80 122 145 c 10,21,-1
 564 1455 l 10,0,1
630 1206 m 25,22,-1
 400 523 l 25,23,-1
 861 523 l 25,24,-1
 630 1206 l 25,22,-1
EndSplineSet
Validated: 1
EndChar

StartChar: Q
Encoding: 81 81 5
Width: 1222
VWidth: 2456
Flags: W
HStem: 0 149<449.958 767.722> 1366 144<447.123 766.044>
VStem: 150 149<302.035 1216.49> 910 149<401.785 1224.1>
LayerCount: 2
Fore
SplineSet
910 401 m 1,0,1
 910 401 910 401 910 1071 c 2,2,3
 910 1195 910 1195 815 1284 c 0,4,5
 727 1366 727 1366 603 1366 c 0,6,7
 498 1366 498 1366 416 1300 c 8,8,9
 299 1206 299 1206 299 1046 c 2,10,-1
 299 448 l 2,11,12
 299 331 299 331 397 234 c 0,13,14
 483 149 483 149 614 149 c 0,15,16
 749 149 749 149 846 264 c 1,17,18
 765 330 765 330 765 370 c 0,19,20
 765 450 765 450 837 450 c 0,21,22
 878 450 878 450 910 401 c 1,0,1
1028 292 m 1,23,-1
 1173 144 l 2,24,25
 1212 104 1212 104 1212 74 c 0,26,27
 1212 0 1212 0 1136 0 c 0,28,29
 1105 0 1105 0 1066 40 c 2,30,-1
 950 159 l 1,31,32
 921 114 921 114 845 66 c 0,33,34
 741 0 741 0 616 0 c 0,35,36
 411 0 411 0 281 141 c 0,37,38
 150 283 150 283 150 461 c 2,39,-1
 150 1062 l 2,40,41
 150 1206 150 1206 242 1332 c 24,42,43
 372 1510 372 1510 610 1510 c 0,44,45
 812 1510 812 1510 935 1372 c 0,46,47
 1059 1232 1059 1232 1059 1095 c 2,48,-1
 1059 467 l 2,49,50
 1059 355 1059 355 1028 292 c 1,23,-1
EndSplineSet
Validated: 1
EndChar

StartChar: U
Encoding: 85 85 6
Width: 1206
VWidth: 2456
Flags: W
HStem: 5 143<447.732 755.277> 1495 20G<185 258 945.5 1019.5>
VStem: 150 146<292.909 1510.72> 908 148<298.648 1510.72>
LayerCount: 2
Fore
SplineSet
150 1437 m 2,0,1
 150 1515 150 1515 220 1515 c 0,2,3
 296 1515 296 1515 296 1437 c 2,4,-1
 296 468 l 2,5,6
 296 307 296 307 404 222 c 0,7,8
 499 148 499 148 600 148 c 0,9,10
 725 148 725 148 826 248 c 0,11,12
 908 329 908 329 908 473 c 2,13,-1
 908 1437 l 2,14,15
 908 1515 908 1515 983 1515 c 0,16,17
 1056 1515 1056 1515 1056 1427 c 2,18,-1
 1056 479 l 18,19,20
 1056 266 1056 266 925 141 c 0,21,22
 783 5 783 5 598 5 c 0,23,24
 433 5 433 5 304 113 c 0,25,26
 150 242 150 242 150 445 c 2,27,-1
 150 1437 l 2,0,1
EndSplineSet
Validated: 1
EndChar

StartChar: I
Encoding: 73 73 7
Width: 452
VWidth: 2456
Flags: W
HStem: 0 21G<188 264> 1490 20G<188 264>
VStem: 150 152<5.27344 1504.89>
LayerCount: 2
Fore
SplineSet
226 0 m 152,-1,1
 150 0 150 0 150 94 c 26,2,-1
 150 1420 l 2,3,4
 150 1510 150 1510 226 1510 c 152,-1,5
 302 1510 302 1510 302 1417 c 26,6,-1
 302 96 l 2,7,0
 302 0 302 0 226 0 c 152,-1,1
EndSplineSet
Validated: 1
EndChar

StartChar: C
Encoding: 67 67 8
Width: 1004
VWidth: 0
Flags: W
HStem: 3 142<389.031 900.507> 1364 151<392.91 895.375>
VStem: 150 146<239.75 1271.62>
LayerCount: 2
Fore
SplineSet
520 1515 m 6,0,1
 520 1515 520 1515 826 1515 c 14,2,3
 900 1515 900 1515 900 1440 c 4,4,5
 900 1364 900 1364 820 1364 c 6,6,-1
 519 1364 l 6,7,8
 435 1364 435 1364 356 1291 c 4,9,10
 296 1235 296 1235 296 1141 c 6,11,-1
 296 377 l 6,12,13
 296 283 296 283 359 215 c 4,14,15
 425 145 425 145 496 145 c 6,16,-1
 832 145 l 14,17,18
 904 145 904 145 904 72 c 4,19,20
 904 3 904 3 831 3 c 6,21,-1
 490 3 l 6,22,23
 352 3 352 3 232 136 c 4,24,25
 150 227 150 227 150 369 c 6,26,-1
 150 1152 l 6,27,28
 150 1302 150 1302 268 1413 c 4,29,30
 376 1515 376 1515 520 1515 c 6,0,1
EndSplineSet
Validated: 1
EndChar

StartChar: K
Encoding: 75 75 9
Width: 1155
VWidth: 0
Flags: W
HStem: 0 21G<957.5 990.5> 1490 20G<184.5 256.5 964 994>
VStem: 150 144<8.10864 578 797 1505.88>
LayerCount: 2
Fore
SplineSet
219 3 m 0,0,1
 150 3 150 3 150 96 c 2,2,-1
 150 1444 l 2,3,4
 150 1510 150 1510 219 1510 c 0,5,6
 294 1510 294 1510 294 1435 c 2,7,-1
 294 797 l 1,8,-1
 914 1477 l 2,9,10
 949 1515 949 1515 979 1515 c 128,-1,11
 1009 1515 1009 1515 1031 1490 c 24,12,13
 1052 1466 1052 1466 1052 1438 c 0,14,15
 1052 1412 1052 1412 1016 1372 c 2,16,-1
 600 911 l 1,17,-1
 1036 124 l 2,18,19
 1055 90 1055 90 1055 74 c 0,20,21
 1055 43 1055 43 1028 20 c 24,22,23
 1005 0 1005 0 976 0 c 0,24,25
 939 0 939 0 914 45 c 2,26,-1
 497 798 l 25,27,-1
 296 578 l 1,28,-1
 296 99 l 2,29,30
 296 3 296 3 219 3 c 0,0,1
EndSplineSet
Validated: 1
EndChar

StartChar: B
Encoding: 66 66 10
Width: 1192
VWidth: 0
Flags: W
HStem: 0 139<304 774.557> 748 156<304 762.127> 1361 149<304 748.315>
VStem: 150 154<139 748 904 1361> 839 145<983.883 1265.53> 916 146<285.495 603.367>
LayerCount: 2
Fore
SplineSet
1062 460 m 0,0,1
 1062 240 1062 240 922.5 120 c 152,-1,2
 783 0 783 0 659 0 c 2,3,-1
 220 0 l 10,4,5
 150 0 150 0 150 91 c 2,6,-1
 150 1416 l 10,7,8
 150 1510 150 1510 243 1510 c 2,9,-1
 555 1510 l 2,10,11
 745 1510 745 1510 832 1434 c 24,12,13
 984 1301 984 1301 984 1132 c 256,14,15
 984 948 984 948 844 838 c 1,16,17
 937 784 937 784 999.5 683 c 128,-1,18
 1062 582 1062 582 1062 460 c 0,0,1
304 748 m 25,19,-1
 304 139 l 25,20,-1
 616 139 l 2,21,22
 752 139 752 139 834 233 c 128,-1,23
 916 327 916 327 916 441 c 256,24,25
 916 555 916 555 839 652 c 0,26,27
 763 748 763 748 619 748 c 10,28,-1
 304 748 l 25,19,-1
304 1361 m 9,29,-1
 304 904 l 1,30,-1
 609 904 l 2,31,32
 724 904 724 904 781.5 966.5 c 128,-1,33
 839 1029 839 1029 839 1122 c 256,34,35
 839 1216 839 1216 778 1288.5 c 128,-1,36
 717 1361 717 1361 605 1361 c 2,37,-1
 304 1361 l 9,29,-1
EndSplineSet
Validated: 2049
EndChar

StartChar: R
Encoding: 82 82 11
Width: 1155
VWidth: 2457
Flags: W
HStem: 0 21G<185.5 257.5 960.5 1017> 604 147<297 633> 1361 143<297 760.933>
VStem: 150 147<5 604 751 1361> 913 142<5.3623 57 894.371 1208.67>
LayerCount: 2
Fore
SplineSet
297 751 m 9,0,1
 297 751 297 751 624 751 c 2,2,3
 728 751 728 751 832 850 c 0,4,5
 913 927 913 927 913 1067 c 0,6,7
 913 1173 913 1173 825 1264 c 0,8,9
 732 1361 732 1361 623 1361 c 2,10,-1
 297 1361 l 1,11,-1
 297 751 l 9,0,1
228 1504 m 2,12,-1
 623 1504 l 2,13,14
 806 1504 806 1504 956 1340 c 0,15,16
 1055 1232 1055 1232 1055 1093 c 0,17,18
 1055 959 1055 959 1005 841 c 0,19,20
 950 712 950 712 778 640 c 1,21,-1
 1039 127 l 2,22,23
 1054 96 1054 96 1054 76 c 0,24,25
 1054 0 1054 0 980 0 c 0,26,27
 941 0 941 0 913 57 c 2,28,-1
 633 604 l 9,29,-1
 294 604 l 1,30,-1
 294 79 l 2,31,32
 294 0 294 0 221 0 c 0,33,34
 150 0 150 0 150 80 c 2,35,-1
 150 1427 l 2,36,37
 150 1504 150 1504 228 1504 c 2,12,-1
EndSplineSet
Validated: 1
EndChar

StartChar: O
Encoding: 79 79 12
Width: 1203
VWidth: 0
Flags: W
HStem: 0 148<442.87 760.316> 1367 148<443.736 757.192>
VStem: 150 147<289.002 1226.36> 908 145<298.641 1222>
LayerCount: 2
Fore
SplineSet
297 423 m 18,0,1
 297 315 297 315 397 225 c 0,2,3
 484 148 484 148 592 148 c 0,4,5
 718 148 718 148 797 219 c 0,6,7
 908 319 908 319 908 452 c 2,8,-1
 908 1060 l 26,9,10
 908 1206 908 1206 803 1291 c 0,11,12
 709 1367 709 1367 591 1367 c 0,13,14
 492 1367 492 1367 397 1290 c 0,15,16
 297 1209 297 1209 297 1064 c 2,17,-1
 297 423 l 18,0,1
150 1088 m 18,18,19
 150 1254 150 1254 281 1384 c 16,20,21
 413 1515 413 1515 603 1515 c 24,22,23
 784 1515 784 1515 915 1385 c 16,24,25
 1053 1248 1053 1248 1053 1067 c 2,26,-1
 1053 456 l 26,27,28
 1053 260 1053 260 916 127 c 0,29,30
 785 0 785 0 596 0 c 24,31,32
 418 0 418 0 285 127 c 16,33,34
 150 257 150 257 150 428 c 2,35,-1
 150 1088 l 18,18,19
EndSplineSet
Validated: 1
EndChar

StartChar: P
Encoding: 80 80 13
Width: 1152
VWidth: 0
Flags: W
HStem: 607 148<298 766.057> 1366 144<298 762.19>
VStem: 150 148<9.66919 607 755 1366> 908 144<900.792 1224.13>
LayerCount: 2
Fore
SplineSet
298 1366 m 1,0,1
 298 1366 298 1366 298 755 c 1,2,-1
 630 755 l 2,3,4
 731 755 731 755 820 844 c 0,5,6
 908 932 908 932 908 1062 c 128,-1,7
 908 1192 908 1192 819.5 1279 c 128,-1,8
 731 1366 731 1366 588 1366 c 2,9,-1
 298 1366 l 1,0,1
298 88 m 18,10,11
 298 5 298 5 224 5 c 128,-1,12
 150 5 150 5 150 90 c 2,13,-1
 150 1431 l 2,14,15
 150 1510 150 1510 232 1510 c 2,16,-1
 619 1510 l 18,17,18
 806 1510 806 1510 940 1360 c 0,19,20
 1052 1235 1052 1235 1052 1086 c 0,21,22
 1052 904 1052 904 974 800 c 0,23,24
 829 607 829 607 630 607 c 26,25,-1
 298 607 l 25,26,-1
 298 88 l 18,10,11
EndSplineSet
Validated: 1
EndChar

StartChar: L
Encoding: 76 76 14
Width: 1007
VWidth: 0
Flags: W
HStem: 0 145<295 902.502> 1490 20G<186.25 258.75>
VStem: 150 145<145 1506.32>
LayerCount: 2
Fore
SplineSet
295 1433 m 26,0,-1
 295 145 l 25,1,-1
 816 145 l 26,2,3
 907 145 907 145 907 72.5 c 128,-1,4
 907 0 907 0 813 0 c 2,5,-1
 221 0 l 26,6,7
 150 0 150 0 150 89 c 2,8,-1
 150 1433 l 26,9,10
 150 1510 150 1510 222.5 1510 c 152,-1,11
 295 1510 295 1510 295 1433 c 26,0,-1
EndSplineSet
Validated: 1
EndChar

StartChar: M
Encoding: 77 77 15
Width: 1364
VWidth: 0
Flags: W
HStem: 0 21G<185.5 259.5 1103 1177> 1490 20G<188 245.5 1118 1176>
VStem: 150 148<5.875 1170> 1066 148<5.43823 1172>
LayerCount: 2
Fore
SplineSet
1074 1472 m 2,0,1
 1098 1510 1098 1510 1138 1510 c 0,2,3
 1214 1510 1214 1510 1214 1430 c 2,4,-1
 1214 99 l 26,5,6
 1214 0 1214 0 1140 0 c 128,-1,7
 1066 0 1066 0 1066 99 c 2,8,-1
 1066 1172 l 9,9,-1
 754 664 l 2,10,11
 716 601 716 601 678 601 c 128,-1,12
 640 601 640 601 604 662 c 2,13,-1
 298 1170 l 9,14,-1
 298 94 l 26,15,16
 298 0 298 0 221 0 c 24,17,18
 150 0 150 0 150 92 c 2,19,-1
 150 1431 l 2,20,21
 150 1510 150 1510 226 1510 c 0,22,23
 265 1510 265 1510 288 1475 c 2,24,-1
 674 824 l 25,25,-1
 1074 1472 l 2,0,1
EndSplineSet
Validated: 1
EndChar

StartChar: W
Encoding: 87 87 16
Width: 1559
VWidth: 0
Flags: W
HStem: 0 21G<447.5 503.5 1058 1114.5> 1038 20G<755.5 808> 1490 20G<138.5 204>
LayerCount: 2
Fore
SplineSet
1317 1445 m 18,0,1
 1332 1506 1332 1506 1387 1506 c 0,2,3
 1459 1506 1459 1506 1459 1444 c 0,4,5
 1459 1419 1459 1419 1453 1392 c 2,6,-1
 1157 73 l 26,7,8
 1142 0 1142 0 1087 0 c 24,9,10
 1029 0 1029 0 1007 67 c 2,11,-1
 778 752 l 9,12,-1
 550 63 l 26,13,14
 529 0 529 0 478 0 c 24,15,16
 417 0 417 0 403 61 c 2,17,-1
 103 1405 l 18,18,19
 100 1420 100 1420 100 1442 c 0,20,21
 100 1510 100 1510 177 1510 c 0,22,23
 231 1510 231 1510 245 1445 c 2,24,-1
 488 350 l 1,25,-1
 704 991 l 26,26,27
 727 1058 727 1058 784 1058 c 24,28,29
 832 1058 832 1058 856 985 c 2,30,-1
 1070 346 l 9,31,-1
 1317 1445 l 18,0,1
EndSplineSet
Validated: 1
EndChar

StartChar: N
Encoding: 78 78 17
Width: 1202
VWidth: 0
Flags: W
HStem: 1495 20G<186 245.5 948.5 1017.5>
VStem: 150 144<13.5044 1159> 914 138<357 1511.86>
LayerCount: 2
Fore
SplineSet
914 357 m 25,0,-1
 914 1439 l 2,1,2
 914 1515 914 1515 983 1515 c 128,-1,3
 1052 1515 1052 1515 1052 1442 c 2,4,-1
 1052 89 l 26,5,6
 1052 6 1052 6 986 6 c 0,7,8
 940 6 940 6 910 60 c 26,9,-1
 294 1159 l 9,10,-1
 294 89 l 26,11,12
 294 9 294 9 218 9 c 24,13,14
 150 9 150 9 150 91 c 2,15,-1
 150 1426 l 26,16,17
 150 1515 150 1515 222 1515 c 0,18,19
 269 1515 269 1515 295 1469 c 10,20,-1
 914 357 l 25,0,-1
EndSplineSet
Validated: 1
EndChar

StartChar: F
Encoding: 70 70 18
Width: 1003
VWidth: 0
Flags: W
HStem: 763 146<299 899.22> 1371 144<299 899.22>
VStem: 150 148<8.55933 763 909 1371>
LayerCount: 2
Fore
SplineSet
298 763 m 1,0,-1
 298 86 l 10,1,2
 298 4 298 4 223 4 c 24,3,4
 150 4 150 4 150 87 c 2,5,6
 150 87 150 87 150 1445 c 26,7,8
 150 1515 150 1515 228 1515 c 2,9,10
 228 1515 228 1515 824 1515 c 26,11,12
 903 1515 903 1515 903 1443 c 152,-1,13
 903 1371 903 1371 825 1371 c 18,14,-1
 299 1371 l 1,15,-1
 299 909 l 1,16,-1
 825 909 l 10,17,18
 903 909 903 909 903 836 c 152,-1,19
 903 763 903 763 824 763 c 18,20,-1
 298 763 l 1,0,-1
EndSplineSet
Validated: 1
EndChar

StartChar: X
Encoding: 88 88 19
Width: 1262
VWidth: 0
Flags: W
HStem: 0 21G<140.5 198 1065 1122.5> 1490 20G<1070 1126>
LayerCount: 2
Fore
SplineSet
544 755 m 1,0,1
 544 755 544 755 119 1392 c 10,2,3
 103 1417 103 1417 103 1441 c 0,4,5
 103 1507 103 1507 177 1507 c 0,6,7
 214 1507 214 1507 244 1463 c 2,8,-1
 631 889 l 1,9,-1
 1024 1473 l 2,10,11
 1050 1510 1050 1510 1090 1510 c 0,12,13
 1162 1510 1162 1510 1162 1443 c 0,14,15
 1162 1416 1162 1416 1136 1377 c 18,16,-1
 719 755 l 1,17,-1
 1143 115 l 10,18,19
 1159 92 1159 92 1159 74 c 0,20,21
 1159 0 1159 0 1086 0 c 0,22,23
 1044 0 1044 0 1016 43 c 2,24,-1
 631 625 l 1,25,-1
 241 38 l 2,26,27
 215 0 215 0 181 0 c 0,28,29
 100 0 100 0 100 70 c 0,30,31
 100 93 100 93 122 127 c 18,32,-1
 544 755 l 1,0,1
EndSplineSet
Validated: 1
EndChar

StartChar: V
Encoding: 86 86 20
Width: 1259
VWidth: 0
Flags: W
HStem: 0 21G<606 658.5> 1490 20G<1060 1122>
VStem: 100 148<1436 1500.27> 1013 146<1444 1503.83>
LayerCount: 2
Fore
SplineSet
628 300 m 25,0,-1
 1013 1444 l 10,1,2
 1035 1510 1035 1510 1085 1510 c 0,3,4
 1159 1510 1159 1510 1159 1440 c 0,5,6
 1159 1421 1159 1421 1150 1394 c 2,7,-1
 709 68 l 26,8,9
 687 0 687 0 630 0 c 24,10,11
 582 0 582 0 559 66 c 2,12,-1
 106 1408 l 18,13,14
 100 1426 100 1426 100 1441 c 0,15,16
 100 1506 100 1506 179 1506 c 0,17,18
 225 1506 225 1506 248 1436 c 18,19,-1
 628 300 l 25,0,-1
EndSplineSet
Validated: 1
EndChar

StartChar: J
Encoding: 74 74 21
Width: 847
VWidth: 0
Flags: W
HStem: 0 148<104.779 464.81> 1490 20G<590 661.5>
VStem: 554 143<239.284 1506.27>
LayerCount: 2
Fore
SplineSet
554 1432 m 26,0,1
 554 1510 554 1510 626 1510 c 24,2,3
 697 1510 697 1510 697 1433 c 2,4,-1
 697 366 l 18,5,6
 697 217 697 217 589.5 108.5 c 128,-1,7
 482 0 482 0 328 0 c 2,8,-1
 174 0 l 2,9,10
 100 0 100 0 100 74 c 128,-1,11
 100 148 100 148 187 148 c 2,12,-1
 335 148 l 18,13,14
 429 148 429 148 491.5 216.5 c 128,-1,15
 554 285 554 285 554 370 c 26,16,-1
 554 1432 l 26,0,1
EndSplineSet
Validated: 1
EndChar

StartChar: S
Encoding: 83 83 22
Width: 1105
VWidth: 0
Flags: W
HStem: 0 149<372.62 769.607> 1367 143<339.43 748.826>
VStem: 100 148<1001.44 1275.89> 857 148<233.652 512.583>
LayerCount: 2
Fore
SplineSet
100 1131 m 0,0,1
 100 1287 100 1287 208 1398.5 c 128,-1,2
 316 1510 316 1510 469 1510 c 0,3,4
 681 1510 681 1510 854 1445 c 0,5,6
 926 1418 926 1418 926 1362 c 0,7,8
 926 1293 926 1293 857 1293 c 0,9,10
 828 1293 828 1293 766 1317 c 0,11,12
 637 1367 637 1367 491 1367 c 0,13,14
 359 1367 359 1367 290 1273 c 0,15,16
 248 1216 248 1216 248 1123 c 0,17,18
 248 996 248 996 403 917 c 10,19,-1
 768 732 l 18,20,21
 1005 610 1005 610 1005 378 c 0,22,23
 1005 204 1005 204 881 97 c 0,24,25
 769 0 769 0 612 0 c 0,26,27
 374 0 374 0 156 143 c 24,28,29
 100 180 100 180 100 225 c 0,30,31
 100 294 100 294 174 294 c 0,32,33
 201 294 201 294 246 262 c 0,34,35
 404 149 404 149 625 149 c 24,36,37
 690 149 690 149 742 176 c 0,38,39
 857 236 857 236 857 383 c 0,40,41
 857 522 857 522 706 598 c 10,42,-1
 313 797 l 2,43,44
 100 905 100 905 100 1131 c 0,0,1
EndSplineSet
Validated: 1
EndChar

StartChar: T
Encoding: 84 84 23
Width: 1101
VWidth: 0
Flags: W
HStem: 0 21G<514.5 587.5> 1370 145<104.834 478 624 997.555>
VStem: 478 146<3.78027 1370>
LayerCount: 2
Fore
SplineSet
100 1446 m 0,0,1
 100 1515 100 1515 188 1515 c 2,2,-1
 929 1515 l 18,3,4
 1001 1515 1001 1515 1001 1443 c 0,5,6
 1001 1370 1001 1370 931 1370 c 2,7,-1
 624 1370 l 1,8,-1
 624 79 l 10,9,10
 624 0 624 0 551 0 c 280,11,12
 478 0 478 0 478 77 c 18,13,-1
 478 1370 l 1,14,-1
 186 1370 l 2,15,16
 100 1370 100 1370 100 1446 c 0,0,1
EndSplineSet
Validated: 1
EndChar

StartChar: E
Encoding: 69 69 24
Width: 1003
VWidth: 0
Flags: W
HStem: 5 144<294 897.459> 764 140<294 749.507> 1370 145<294 899.124>
VStem: 150 144<149 764 904 1370>
LayerCount: 2
Fore
SplineSet
294 149 m 1,0,-1
 827 149 l 10,1,2
 901 149 901 149 901 77 c 280,3,4
 901 5 901 5 830 5 c 26,5,-1
 216 5 l 2,6,7
 150 5 150 5 150 80 c 26,8,-1
 150 1437 l 2,9,10
 150 1515 150 1515 239 1515 c 26,11,-1
 822 1515 l 2,12,13
 903 1515 903 1515 903 1442 c 24,14,15
 903 1370 903 1370 822 1370 c 18,16,-1
 294 1370 l 1,17,-1
 294 904 l 1,18,-1
 680 904 l 10,19,20
 753 904 753 904 753 832 c 0,21,22
 753 764 753 764 682 764 c 18,23,-1
 294 764 l 1,24,-1
 294 149 l 1,0,-1
EndSplineSet
Validated: 1
EndChar

StartChar: H
Encoding: 72 72 25
Width: 1210
VWidth: 0
Flags: W
HStem: 0 21G<186.75 260.25 953.5 1024.5> 760 144<297 918> 1490 20G<186.75 260.25>
VStem: 150 147<3.68457 760 904 1505.93> 918 142<3.82812 760 904 1502.41>
LayerCount: 2
Fore
SplineSet
918 760 m 1,0,-1
 297 760 l 1,1,-1
 297 77 l 10,2,3
 297 0 297 0 223.5 0 c 152,-1,4
 150 0 150 0 150 76 c 26,5,-1
 150 1425 l 2,6,7
 150 1510 150 1510 223.5 1510 c 128,-1,8
 297 1510 297 1510 297 1425 c 18,9,-1
 297 904 l 1,10,-1
 918 904 l 1,11,-1
 918 1431 l 2,12,13
 918 1506 918 1506 989 1506 c 152,-1,14
 1060 1506 1060 1506 1060 1432 c 26,15,-1
 1060 80 l 2,16,17
 1060 0 1060 0 989 0 c 152,-1,18
 918 0 918 0 918 78 c 18,19,-1
 918 760 l 1,0,-1
EndSplineSet
EndChar

StartChar: Z
Encoding: 90 90 26
Width: 1106
VWidth: 0
Flags: W
HStem: 0 142<293 1001.66> 1365 145<107.438 809>
LayerCount: 2
Fore
SplineSet
293 142 m 1,0,-1
 928 142 l 2,1,2
 1006 142 1006 142 1006 67 c 24,3,4
 1006 0 1006 0 927 0 c 26,5,-1
 176 0 l 2,6,7
 100 0 100 0 100 72 c 0,8,9
 100 99 100 99 123 140 c 18,10,-1
 809 1365 l 1,11,-1
 186 1365 l 10,12,13
 102 1365 102 1365 102 1444 c 24,14,15
 102 1510 102 1510 189 1510 c 26,16,-1
 909 1510 l 2,17,18
 1003 1510 1003 1510 1003 1444 c 0,19,20
 1003 1414 1003 1414 987 1385 c 2,21,-1
 293 142 l 1,0,-1
EndSplineSet
Validated: 1
EndChar

StartChar: Y
Encoding: 89 89 27
Width: 1258
VWidth: 0
Flags: W
HStem: 0 21G<595.5 667> 1491 20G<139.5 196.5 1063.5 1120>
VStem: 559 143<4.16309 757>
LayerCount: 2
Fore
SplineSet
702 85 m 6,0,1
 702 0 702 0 632 0 c 4,2,3
 559 0 559 0 559 87 c 6,4,-1
 559 761 l 5,5,-1
 116 1392 l 6,6,7
 100 1415 100 1415 100 1438 c 4,8,9
 100 1511 100 1511 179 1511 c 4,10,11
 214 1511 214 1511 243 1466 c 5,12,-1
 629 906 l 5,13,-1
 1019 1475 l 5,14,15
 1045 1511 1045 1511 1082 1511 c 4,16,17
 1158 1511 1158 1511 1158 1442 c 4,18,19
 1158 1415.43 1158 1415.43 1139 1388 c 6,20,-1
 702 757 l 5,21,-1
 702 85 l 6,0,1
EndSplineSet
Validated: 1
EndChar

StartChar: D
Encoding: 68 68 28
Width: 1205
VWidth: 0
Flags: W
HStem: 0 144<297 813.462> 1366 144<297 815.553>
VStem: 150 147<144 1366> 911 144<240.67 1267.43>
LayerCount: 2
Fore
SplineSet
297 144 m 1,0,1
 297 144 297 144 644 144 c 2,2,3
 778 144 778 144 844.5 213.5 c 128,-1,4
 911 283 911 283 911 384 c 2,5,-1
 911 1135 l 2,6,7
 911 1224 911 1224 846 1295 c 128,-1,8
 781 1366 781 1366 674 1366 c 2,9,-1
 297 1366 l 1,10,11
 297 1366 297 1366 297 144 c 1,0,1
150 1428 m 2,12,13
 150 1510 150 1510 233 1510 c 2,14,-1
 702 1510 l 26,15,16
 840 1510 840 1510 947.5 1402 c 152,-1,17
 1055 1294 1055 1294 1055 1157 c 2,18,-1
 1055 350 l 2,19,20
 1055 213 1055 213 947 106.5 c 152,-1,21
 839 0 839 0 716 0 c 2,22,-1
 217 0 l 26,23,24
 150 0 150 0 150 89 c 26,25,-1
 150 1428 l 2,12,13
EndSplineSet
Validated: 1
EndChar

StartChar: G
Encoding: 71 71 29
Width: 1187
VWidth: 0
Flags: W
HStem: 5 144<385.397 911> 763 143<686.397 911> 1371 144<395.611 1052.79>
VStem: 150 143<245.777 1265.89> 911 143<149 763>
LayerCount: 2
Fore
SplineSet
911 149 m 1,0,-1
 911 763 l 1,1,-1
 754 763 l 10,2,3
 683 763 683 763 683 834 c 24,4,5
 683 906 683 906 751 906 c 2,6,-1
 990 906 l 2,7,8
 1054 906 1054 906 1054 811 c 2,9,-1
 1054 92 l 26,10,11
 1054 5 1054 5 971 5 c 2,12,-1
 485 5 l 2,13,14
 376 5 376 5 263 103.5 c 128,-1,15
 150 202 150 202 150 416 c 2,16,-1
 150 1161 l 2,17,18
 150 1302 150 1302 264.5 1408.5 c 128,-1,19
 379 1515 379 1515 527 1515 c 2,20,-1
 969 1515 l 26,21,22
 1057 1515 1057 1515 1057 1443 c 152,-1,23
 1057 1371 1057 1371 970 1371 c 2,24,-1
 543 1371 l 2,25,26
 433 1371 433 1371 363 1299 c 128,-1,27
 293 1227 293 1227 293 1124 c 2,28,-1
 293 400 l 2,29,30
 293 289 293 289 358 219 c 128,-1,31
 423 149 423 149 503 149 c 2,32,-1
 911 149 l 1,0,-1
EndSplineSet
Validated: 1
EndChar

StartChar: comma
Encoding: 44 44 30
Width: 477
VWidth: 0
Flags: W
HStem: -352 446<209.641 267.12>
VStem: 202 145<-30.344 89.2727>
LayerCount: 2
Fore
SplineSet
202 27 m 2,0,1
 219 94 219 94 272 94 c 0,2,3
 347 94 347 94 347 29 c 0,4,5
 347 5 347 5 341 -19 c 2,6,-1
 276 -282 l 2,7,8
 258 -352 258 -352 202 -352 c 0,9,10
 130 -352 130 -352 130 -284 c 0,11,12
 130 -262 130 -262 140 -221 c 10,13,-1
 202 27 l 2,0,1
EndSplineSet
Validated: 1
EndChar

StartChar: period
Encoding: 46 46 31
Width: 412
VWidth: 0
Flags: W
HStem: 0 214<139.844 270.251>
VStem: 130 152<6.25 205.536>
LayerCount: 2
Fore
SplineSet
130 107 m 128,-1,1
 130 214 130 214 200 214 c 0,2,3
 282 214 282 214 282 100 c 0,4,5
 282 0 282 0 205 0 c 0,6,0
 130 0 130 0 130 107 c 128,-1,1
EndSplineSet
Validated: 1
EndChar

StartChar: zero
Encoding: 48 48 32
Width: 958
VWidth: 0
Flags: W
HStem: 0 146<385.973 566.811> 1366 144<389.585 568.691>
VStem: 100 148<434.099 1072.17> 709 149<424.451 1076.24>
LayerCount: 2
Fore
SplineSet
477 1366 m 24,0,1
 409 1366 409 1366 379 1306 c 24,2,3
 301 1152 301 1152 265 953 c 16,4,5
 248 860 248 860 248 764 c 0,6,7
 248 694 248 694 257 625 c 8,8,9
 286 399 286 399 356 241 c 24,10,11
 398 146 398 146 476 146 c 24,12,13
 551 146 551 146 596 232 c 24,14,15
 662 359 662 359 695 581 c 16,16,17
 709 676 709 676 709 765 c 128,-1,18
 709 854 709 854 695 937 c 8,19,20
 659 1148 659 1148 577 1308 c 24,21,22
 547 1366 547 1366 477 1366 c 24,0,1
482 1510 m 24,23,24
 619 1510 619 1510 691 1404 c 24,25,26
 802 1241 802 1241 845 945 c 0,27,28
 858 856 858 856 858 765 c 0,29,30
 858 669 858 669 844 574 c 8,31,32
 801 280 801 280 695 114 c 24,33,34
 622 0 622 0 479 0 c 24,35,36
 338 0 338 0 263 118 c 24,37,38
 171 262 171 262 116 569 c 16,39,40
 100 658 100 658 100 751 c 0,41,42
 100 848 100 848 117 946 c 8,43,44
 170 1251 170 1251 255 1387 c 24,45,46
 331 1510 331 1510 482 1510 c 24,23,24
EndSplineSet
Validated: 1
EndChar

StartChar: one
Encoding: 49 49 33
Width: 700
VWidth: 0
Flags: W
HStem: 1490 20G<406.5 462.5>
VStem: 354 146<9.72412 1270>
LayerCount: 2
Fore
SplineSet
354 1478 m 2,0,1
 388 1510 388 1510 425 1510 c 0,2,3
 500 1510 500 1510 500 1427 c 2,4,-1
 500 90 l 26,5,6
 500 5 500 5 428 5 c 24,7,8
 354 5 354 5 354 91 c 2,9,10
 354 91 354 91 354 1270 c 1,11,-1
 180 1096 l 2,12,13
 153 1069 153 1069 126 1069 c 0,14,15
 50 1069 50 1069 50 1136 c 0,16,17
 50 1170 50 1170 79 1199 c 10,18,-1
 354 1478 l 2,0,1
EndSplineSet
Validated: 1
EndChar

StartChar: two
Encoding: 50 50 34
Width: 955
VWidth: 0
Flags: W
HStem: 0 140<304 848.88> 1365 145<344.057 614.806>
VStem: 707 148<999.562 1272.73>
LayerCount: 2
Fore
SplineSet
178 1139 m 0,0,1
 100 1139 100 1139 100 1209 c 0,2,3
 100 1231 100 1231 118 1267 c 0,4,5
 181 1391 181 1391 263 1444 c 0,6,7
 365 1510 365 1510 478 1510 c 0,8,9
 668 1510 668 1510 776 1365 c 0,10,11
 855 1259 855 1259 855 1137 c 0,12,13
 855 1030 855 1030 789 923 c 18,14,-1
 304 140 l 1,15,-1
 778 140 l 10,16,17
 853 140 853 140 853 65 c 24,18,19
 853 0 853 0 771 0 c 2,20,-1
 190 0 l 2,21,22
 101 0 101 0 101 64 c 24,23,24
 101 92 101 92 114 113 c 2,25,-1
 652 980 l 2,26,27
 707 1069 707 1069 707 1137 c 0,28,29
 707 1223 707 1223 652 1287 c 0,30,31
 585 1365 585 1365 473 1365 c 0,32,33
 334 1365 334 1365 248 1201 c 24,34,35
 215 1139 215 1139 178 1139 c 0,0,1
EndSplineSet
Validated: 1
EndChar

StartChar: three
Encoding: 51 51 35
Width: 984
VWidth: 0
Flags: W
HStem: 5 141<104.669 609.766> 765 141<263.614 612.875> 1369 146<109.109 611.978>
VStem: 710 144<244.965 667.661 1006.16 1273.87>
LayerCount: 2
Fore
SplineSet
197 1515 m 2,0,1
 197 1515 197 1515 510 1515 c 26,2,3
 646 1515 646 1515 754 1398 c 24,4,5
 854 1290 854 1290 854 1145 c 0,6,7
 854 963 854 963 698 834 c 1,8,9
 850 724 850 724 850 563 c 2,10,11
 850 563 850 563 850 343 c 18,12,13
 850 214 850 214 739 103 c 24,14,15
 641 5 641 5 483 5 c 2,16,17
 483 5 483 5 185 5 c 26,18,19
 100 5 100 5 100 79 c 24,20,21
 100 146 100 146 190 146 c 2,22,23
 190 146 190 146 454 146 c 2,24,25
 575 146 575 146 645 218 c 0,26,27
 710 285 710 285 710 393 c 2,28,-1
 710 523 l 2,29,30
 710 625 710 625 650 688 c 0,31,32
 577 765 577 765 494 765 c 2,33,-1
 342 765 l 26,34,35
 259 765 259 765 259 840 c 24,36,37
 259 906 259 906 343 906 c 2,38,-1
 478 906 l 26,39,40
 572 906 572 906 639 974 c 0,41,42
 710 1046 710 1046 710 1138 c 0,43,44
 710 1232 710 1232 653 1290 c 0,45,46
 575 1369 575 1369 493 1369 c 10,47,-1
 197 1369 l 26,48,49
 104 1369 104 1369 104 1444 c 24,50,51
 104 1515 104 1515 197 1515 c 2,0,1
EndSplineSet
Validated: 1
EndChar

StartChar: four
Encoding: 52 52 36
Width: 1051
VWidth: 0
Flags: W
HStem: 307 147<265 630 774 995.849> 1495 20G<447 510.5>
VStem: 630 144<7.44946 307 454 751.693>
LayerCount: 2
Fore
SplineSet
402 1459 m 26,0,1
 418 1515 418 1515 476 1515 c 0,2,3
 545 1515 545 1515 545 1446 c 0,4,5
 545 1429 545 1429 538 1406 c 2,6,-1
 265 454 l 1,7,-1
 630 454 l 1,8,-1
 630 672 l 10,9,10
 630 756 630 756 703 756 c 24,11,12
 774 756 774 756 774 666 c 18,13,-1
 774 453 l 1,14,15
 774 453 774 453 928 453 c 2,16,17
 1001 453 1001 453 1001 374 c 0,18,19
 1001 310 1001 310 925 310 c 18,20,-1
 774 310 l 1,21,-1
 774 84 l 10,22,23
 774 3 774 3 700 3 c 24,24,25
 630 3 630 3 630 81 c 18,26,-1
 630 307 l 1,27,-1
 171 307 l 2,28,29
 100 307 100 307 100 374 c 24,30,31
 100 396 100 396 114 446 c 26,32,33
 114 446 114 446 402 1459 c 26,0,1
EndSplineSet
Validated: 1
EndChar

StartChar: five
Encoding: 53 53 37
Width: 1018
VWidth: 0
Flags: W
HStem: 0 141<139.02 645.041> 759 144<277 646.217> 1366 144<277 884.028>
VStem: 130 147<903 1366> 740 147<235.114 665.963>
LayerCount: 2
Fore
SplineSet
130 1434 m 2,0,1
 130 1510 130 1510 217 1510 c 2,2,3
 217 1510 217 1510 805 1510 c 26,4,5
 888 1510 888 1510 888 1438 c 152,-1,6
 888 1366 888 1366 809 1366 c 18,7,-1
 277 1366 l 1,8,-1
 277 903 l 1,9,-1
 499 903 l 10,10,11
 692 903 692 903 809 759 c 0,12,13
 887 663 887 663 887 529 c 2,14,-1
 887 368 l 2,15,16
 887 208 887 208 778 107 c 0,17,18
 663 0 663 0 524 0 c 2,19,-1
 212 0 l 26,20,21
 135 0 135 0 135 70 c 24,22,23
 135 141 135 141 219 141 c 2,24,-1
 497 141 l 2,25,26
 623 141 623 141 690 227 c 0,27,28
 740 291 740 291 740 378 c 2,29,-1
 740 529 l 18,30,31
 740 619 740 619 681 685 c 0,32,33
 615 759 615 759 479 759 c 2,34,-1
 203 759 l 2,35,36
 130 759 130 759 130 844 c 26,37,-1
 130 1434 l 2,0,1
EndSplineSet
Validated: 1
EndChar

StartChar: six
Encoding: 54 54 38
Width: 1013
VWidth: 0
Flags: W
HStem: 0 141<369.051 632.864> 756 146<284 641.281> 1364 146<564.999 723.92>
VStem: 130 143<239.724 756 902 1039.62> 738 145<232.508 657.236>
LayerCount: 2
Fore
SplineSet
284 902 m 9,0,1
 284 902 284 902 505 902 c 10,2,3
 673 902 673 902 785 777 c 0,4,5
 883 668 883 668 883 545 c 2,6,7
 883 545 883 545 883 343 c 2,8,9
 883 214 883 214 758 93 c 0,10,11
 662 0 662 0 487 0 c 0,12,13
 346 0 346 0 237 106 c 24,14,15
 130 210 130 210 130 343 c 26,16,-1
 130 865 l 2,17,18
 130 1093 130 1093 305 1298 c 0,19,20
 412 1423 412 1423 589 1494 c 0,21,22
 629 1510 629 1510 657 1510 c 0,23,24
 729 1510 729 1510 729 1432 c 0,25,26
 729 1386 729 1386 666 1364 c 0,27,28
 525 1315 525 1315 444 1234 c 0,29,30
 306 1097 306 1097 284 902 c 9,0,1
273 358 m 2,31,32
 273 272 273 272 357 195 c 0,33,34
 416 141 416 141 508 141 c 0,35,36
 578 141 578 141 672 212 c 0,37,38
 738 262 738 262 738 362 c 2,39,-1
 738 514 l 2,40,41
 738 613 738 613 670 686 c 0,42,43
 605 756 605 756 507 756 c 2,44,-1
 273 756 l 1,45,-1
 273 358 l 2,31,32
EndSplineSet
Validated: 1
EndChar

StartChar: seven
Encoding: 55 55 39
Width: 979
VWidth: 0
Flags: W
HStem: 0 21G<443.5 509> 1363 147<242 690>
VStem: 100 142<1220.54 1363>
LayerCount: 2
Fore
SplineSet
765 1510 m 2,0,1
 849 1510 849 1510 849 1440 c 0,2,3
 849 1418 849 1418 828 1323 c 26,4,5
 828 1323 828 1323 551 70 c 26,6,7
 536 0 536 0 482 0 c 0,8,9
 405 0 405 0 405 66 c 0,10,11
 405 80 405 80 408 94 c 2,12,-1
 690 1363 l 1,13,-1
 242 1363 l 1,14,15
 242 1363 242 1363 242 1288 c 2,16,17
 242 1217 242 1217 169 1217 c 0,18,19
 100 1217 100 1217 100 1291 c 2,20,21
 100 1291 100 1291 100 1443 c 2,22,23
 100 1510 100 1510 180 1510 c 26,24,25
 180 1510 180 1510 765 1510 c 2,0,1
EndSplineSet
Validated: 1
EndChar

StartChar: eight
Encoding: 56 56 40
Width: 1056
VWidth: 0
Flags: W
HStem: 4 145<386.483 659.399> 760 148<391.995 662.668> 1366 149<384.752 659.221>
VStem: 150 145<245.36 663.461 1003.65 1272.18> 758 148<241.672 657.981 997.079 1267.97>
LayerCount: 2
Fore
SplineSet
525 760 m 0,0,1
 436 760 436 760 368 696 c 0,2,3
 294 626 294 626 294 536 c 2,4,-1
 294 354 l 2,5,6
 294 280 294 280 381 198 c 0,7,8
 433 149 433 149 526 149 c 0,9,10
 607 149 607 149 687 214 c 0,11,12
 758 272 758 272 758 378 c 2,13,-1
 758 527 l 2,14,15
 758 612 758 612 686 694 c 0,16,17
 628 760 628 760 525 760 c 0,0,1
368 1307 m 0,18,19
 295 1231 295 1231 295 1146 c 0,20,21
 295 1066 295 1066 346 992 c 0,22,23
 404 908 404 908 523 908 c 0,24,25
 638 908 638 908 700 978 c 0,26,27
 761 1050 761 1050 761 1139 c 0,28,29
 761 1231 761 1231 682 1303 c 0,30,31
 612 1366 612 1366 521 1366 c 0,32,33
 425 1366 425 1366 368 1307 c 0,18,19
301 835 m 1,34,35
 150 952 150 952 150 1160 c 0,36,37
 150 1326 150 1326 285 1428 c 0,38,39
 400 1515 400 1515 530 1515 c 0,40,41
 638 1515 638 1515 716 1467 c 0,42,43
 904 1351 904 1351 904 1139 c 0,44,45
 904 941 904 941 753 832 c 1,46,47
 906 710 906 710 906 533 c 2,48,-1
 906 362 l 26,49,50
 906 217 906 217 777 96 c 280,51,52
 679 4 679 4 533 4 c 0,53,54
 367 4 367 4 281 89 c 0,55,56
 150 218 150 218 150 356 c 2,57,-1
 150 541 l 2,58,59
 150 704 150 704 301 835 c 1,34,35
EndSplineSet
Validated: 2049
EndChar

StartChar: nine
Encoding: 57 57 41
Width: 1030
VWidth: 0
Flags: W
HStem: 0 148<287.031 454.129> 606 145<367.6 728> 1363 147<364.338 638.792>
VStem: 130 142<846.172 1270.14> 732 148<458.08 606 751 1270.48>
LayerCount: 2
Fore
SplineSet
280 74 m 0,0,1
 280 125 280 125 351 148 c 24,2,3
 450 180 450 180 523 240 c 0,4,5
 699 387 699 387 728 606 c 1,6,-1
 485 606 l 10,7,8
 358 606 358 606 255 695 c 0,9,10
 130 805 130 805 130 950 c 26,11,12
 130 950 130 950 130 1161 c 2,13,14
 130 1328 130 1328 293 1447 c 0,15,16
 379 1510 379 1510 514 1510 c 0,17,18
 657 1510 657 1510 774 1396 c 0,19,20
 880 1293 880 1293 880 1133 c 26,21,22
 880 1133 880 1133 880 673 c 2,23,24
 880 525 880 525 828 410 c 0,25,26
 743 224 743 224 631 137 c 0,27,28
 451 0 451 0 352 0 c 0,29,30
 280 0 280 0 280 74 c 0,0,1
732 1124 m 2,31,32
 732 1225 732 1225 671 1290 c 0,33,34
 602 1363 602 1363 502 1363 c 0,35,36
 415 1363 415 1363 344 1302 c 0,37,38
 272 1240 272 1240 272 1136 c 2,39,-1
 272 974 l 18,40,41
 272 873 272 873 354 805 c 0,42,43
 419 751 419 751 543 751 c 2,44,-1
 732 751 l 25,45,46
 732 751 732 751 732 1124 c 2,31,32
EndSplineSet
Validated: 1
EndChar

StartChar: plus
Encoding: 43 43 42
Width: 952
VWidth: 0
Flags: W
HStem: 525 143<104.614 409 554 847.276>
VStem: 409 142<227.559 525 668 965.605>
LayerCount: 2
Fore
SplineSet
409 890 m 10,0,1
 409 970 409 970 483 970 c 24,2,3
 554 970 554 970 554 884 c 18,4,-1
 554 667 l 1,5,-1
 768 667 l 10,6,7
 852 667 852 667 852 594 c 24,8,9
 852 525 852 525 766 525 c 2,10,11
 766 525 766 525 551 525 c 1,12,-1
 551 306 l 10,13,14
 551 223 551 223 484 223 c 24,15,16
 409 223 409 223 409 304 c 18,17,-1
 409 525 l 1,18,19
 409 525 409 525 184 525 c 10,20,21
 100 525 100 525 100 599 c 24,22,23
 100 668 100 668 186 668 c 18,24,-1
 409 668 l 1,25,-1
 409 890 l 10,0,1
EndSplineSet
Validated: 1
EndChar

StartChar: hyphen
Encoding: 45 45 43
Width: 952
VWidth: 0
Flags: W
HStem: 527 144<104.23 847.5>
LayerCount: 2
Fore
SplineSet
177 671 m 22,0,1
 177 671 177 671 780 671 c 14,2,3
 852 671 852 671 852 594 c 28,4,5
 852 527 852 527 775 527 c 6,6,-1
 174 527 l 14,7,8
 100 527 100 527 100 602 c 28,9,10
 100 671 100 671 177 671 c 22,0,1
EndSplineSet
Validated: 1
EndChar

StartChar: divide
Encoding: 247 247 44
Width: 955
VWidth: 0
Flags: W
HStem: 145 214<412.844 543.251> 520 144<105.219 850.386> 829 213<412.751 542.48>
VStem: 403 152<151.25 350.536 835.25 1033.46>
LayerCount: 2
Fore
SplineSet
403 934 m 4,0,1
 403 1042 403 1042 473 1042 c 4,2,3
 554 1042 554 1042 554 929 c 4,4,5
 554 829 554 829 478.5 829 c 132,-1,6
 403 829 403 829 403 934 c 4,0,1
403 252 m 132,-1,8
 403 359 403 359 473 359 c 4,9,10
 555 359 555 359 555 245 c 4,11,12
 555 145 555 145 478 145 c 4,13,7
 403 145 403 145 403 252 c 132,-1,8
195 664 m 22,14,15
 195 664 195 664 766 664 c 14,16,17
 855 664 855 664 855 594 c 4,18,19
 855 520 855 520 771 520 c 6,20,-1
 190 520 l 14,21,22
 100 520 100 520 100 595 c 28,23,24
 100 664 100 664 195 664 c 22,14,15
EndSplineSet
Validated: 2049
EndChar

StartChar: parenleft
Encoding: 40 40 45
Width: 522
VWidth: 0
Flags: W
VStem: 130 138<313.553 1203.48> 278 144<-144.767 34.8945 1483.4 1660.3>
LayerCount: 2
Fore
SplineSet
282 1618 m 0,0,1
 301 1666 301 1666 356 1666 c 0,2,3
 421 1666 421 1666 421 1594 c 0,4,5
 421 1569 421 1569 405 1526 c 0,6,7
 268 1155 268 1155 268 788 c 0,8,9
 268 339 268 339 404 -9 c 0,10,11
 422 -55 422 -55 422 -85 c 0,12,13
 422 -149 422 -149 342 -149 c 0,14,15
 301 -149 301 -149 278 -89 c 0,16,17
 130 301 130 301 130 791 c 0,18,19
 130 1231 130 1231 282 1618 c 0,0,1
EndSplineSet
Validated: 1
EndChar

StartChar: parenright
Encoding: 41 41 46
Width: 522
VWidth: 0
Flags: W
VStem: 100 144<-142.767 36.8945 1485.4 1662.3> 254 138<315.553 1217.85>
LayerCount: 2
Fore
SplineSet
240 1620 m 0,0,1
 392 1233 392 1233 392 793 c 0,2,3
 392 303 392 303 244 -87 c 0,4,5
 221 -147 221 -147 180 -147 c 0,6,7
 100 -147 100 -147 100 -83 c 0,8,9
 100 -53 100 -53 118 -7 c 0,10,11
 254 341 254 341 254 790 c 0,12,13
 254 1181 254 1181 117 1528 c 0,14,15
 100 1571 100 1571 100 1596 c 0,16,17
 100 1668 100 1668 166 1668 c 0,18,19
 221 1668 221 1668 240 1620 c 0,0,1
EndSplineSet
Validated: 1
EndChar

StartChar: multiply
Encoding: 215 215 47
Width: 957
VWidth: 0
Flags: W
LayerCount: 2
Fore
SplineSet
726 942 m 14,0,1
 754 970 754 970 780 970 c 4,2,3
 856 970 856 970 856 891 c 4,4,5
 856 861 856 861 824 832 c 6,6,-1
 578 594 l 5,7,-1
 816 362 l 6,8,9
 857 324 857 324 857 287 c 4,10,11
 857 218 857 218 781 218 c 4,12,13
 756 218 756 218 709 263 c 6,14,-1
 477 491 l 5,15,-1
 245 256 l 14,16,17
 206 217 206 217 180 217 c 4,18,19
 101 217 101 217 101 285 c 4,20,21
 101 319 101 319 137 356 c 6,22,-1
 374 594 l 5,23,-1
 139 829 l 6,24,25
 100 868 100 868 100 893 c 4,26,27
 100 971 100 971 178 971 c 4,28,29
 209 971 209 971 246 933 c 22,30,-1
 477 697 l 5,31,-1
 726 942 l 14,0,1
EndSplineSet
Validated: 1
EndChar

StartChar: acutecomb
Encoding: 769 769 49
Width: 646
VWidth: 0
Flags: W
HStem: 1391 374
VStem: 100 446
LayerCount: 2
Fore
SplineSet
417 1740 m 2,0,1
 449 1765 449 1765 470 1765 c 0,2,3
 546 1765 546 1765 546 1686 c 0,4,5
 546 1654 546 1654 508 1626 c 2,6,-1
 223 1411 l 2,7,8
 194 1391 194 1391 168 1391 c 0,9,10
 100 1391 100 1391 100 1466 c 0,11,12
 100 1503 100 1503 136 1529 c 26,13,-1
 417 1740 l 2,0,1
EndSplineSet
Validated: 1
EndChar

StartChar: ring
Encoding: 730 730 50
Width: 697
VWidth: 0
Flags: W
HStem: 1447 138<257.792 445.195> 1811 139<256.377 446.376>
VStem: 100 141<1601.58 1793.6> 462 135<1602.8 1794.87>
AnchorPoint: "above" 353 1280 basechar 0
LayerCount: 2
Fore
SplineSet
351.5 1811 m 128,-1,1
 241 1811 241 1811 241 1704 c 0,2,3
 241 1585 241 1585 351 1585 c 0,4,5
 462 1585 462 1585 462 1704 c 24,6,0
 462 1811 462 1811 351.5 1811 c 128,-1,1
348 1950 m 0,7,8
 597 1950 597 1950 597 1704 c 24,9,10
 597 1447 597 1447 348.5 1447 c 152,-1,11
 100 1447 100 1447 100 1700 c 24,12,13
 100 1950 100 1950 348 1950 c 0,7,8
EndSplineSet
Validated: 1
EndChar

StartChar: uni030C
Encoding: 780 780 52
Width: 799
VWidth: 0
Flags: W
HStem: 1434 375
VStem: 100 599<1704 1767>
LayerCount: 2
Fore
SplineSet
571 1782 m 2,0,1
 598 1809 598 1809 626 1809 c 0,2,3
 657 1809 657 1809 679 1787 c 0,4,5
 699 1767 699 1767 699 1735 c 0,6,7
 699 1701 699 1701 657 1660 c 2,8,-1
 467 1471 l 26,9,10
 430 1434 430 1434 402 1434 c 24,11,12
 369 1434 369 1434 332 1471 c 2,13,-1
 122 1682 l 18,14,15
 100 1704 100 1704 100 1732 c 0,16,17
 100 1768 100 1768 123 1789 c 0,18,19
 144 1808 144 1808 174 1808 c 0,20,21
 203 1808 203 1808 227 1783 c 2,22,-1
 402 1613 l 1,23,-1
 571 1782 l 2,0,1
EndSplineSet
Validated: 1
EndChar

StartChar: uni0308
Encoding: 776 776 54
Width: 808
VWidth: 0
Flags: W
HStem: 1442 214<109.984 241.251 565.844 697.172>
VStem: 100 153<1448.25 1647.54> 556 152<1448.38 1649.46>
LayerCount: 2
Fore
SplineSet
556 1550 m 128,-1,1
 556 1658 556 1658 626 1658 c 0,2,3
 708 1658 708 1658 708 1544 c 0,4,5
 708 1442 708 1442 631 1442 c 0,6,0
 556 1442 556 1442 556 1550 c 128,-1,1
100 1549 m 128,-1,8
 100 1656 100 1656 171 1656 c 0,9,10
 253 1656 253 1656 253 1542 c 0,11,12
 253 1442 253 1442 176 1442 c 0,13,7
 100 1442 100 1442 100 1549 c 128,-1,8
EndSplineSet
Validated: 1
EndChar

StartChar: uni0302
Encoding: 770 770 56
Width: 798
VWidth: 0
Flags: W
LayerCount: 2
Fore
SplineSet
557 1474 m 6,0,1
 557 1474 557 1474 402 1632 c 5,2,-1
 244 1479 l 6,3,4
 202 1438 202 1438 173 1438 c 20,5,6
 100 1438 100 1438 100 1503 c 4,7,8
 100 1534 100 1534 134 1569 c 14,9,-1
 332 1773 l 6,10,11
 368 1810 368 1810 402 1810 c 28,12,13
 430 1810 430 1810 467 1773 c 30,14,-1
 662 1577 l 6,15,16
 698 1541 698 1541 698 1505 c 4,17,18
 698 1438 698 1438 622 1438 c 4,19,20
 591 1438 591 1438 557 1474 c 6,0,1
EndSplineSet
Validated: 1
EndChar

StartChar: asterisk
Encoding: 42 42 73
Width: 950
VWidth: 0
Flags: W
HStem: 521 143<103.828 299 650 846.172>
LayerCount: 2
Fore
SplineSet
648 661 m 17,0,1
 648 661 648 661 774 661 c 26,2,3
 850 661 850 661 850 593 c 0,4,5
 850 521 850 521 770 521 c 18,6,7
 770 521 770 521 650 521 c 25,8,-1
 732 438 l 18,9,10
 758 412 758 412 758 389 c 0,11,12
 758 319 758 319 673 319 c 0,13,14
 647 319 647 319 616 350 c 2,15,-1
 476 489 l 1,16,-1
 315 328 l 2,17,18
 295 309 295 309 268 309 c 0,19,20
 194 309 194 309 194 382 c 8,21,22
 194 410 194 410 214 432 c 18,23,-1
 299 521 l 1,24,-1
 175 521 l 26,25,26
 100 521 100 521 100 594 c 24,27,28
 100 664 100 664 180 664 c 2,29,-1
 300 664 l 1,30,-1
 203 762 l 10,31,32
 186 779 186 779 186 806 c 0,33,34
 186 886 186 886 264 886 c 0,35,36
 291 886 291 886 310 866 c 2,37,-1
 476 695 l 1,38,-1
 625 844 l 2,39,40
 663 882 663 882 698 882 c 0,41,42
 763 882 763 882 763 804 c 0,43,44
 763 776 763 776 723 736 c 26,45,-1
 648 661 l 17,0,1
EndSplineSet
Validated: 1
EndChar

StartChar: percent
Encoding: 37 37 74
Width: 1564
VWidth: 0
Flags: W
HStem: 0 150<1056.16 1269.39> 456 147<1057.97 1271.7> 909 148<292.157 505.39> 1363 147<293.971 507.7>
VStem: 100 147<1102.71 1309.06> 554 146<1108.73 1312.35> 864 147<194.528 402.058> 1318 146<202.209 405.353>
LayerCount: 2
Fore
SplineSet
1280 402 m 0,0,1
 1239 456 1239 456 1159 456 c 0,2,3
 1094 456 1094 456 1045 398 c 0,4,5
 1011 358 1011 358 1011 297 c 0,6,7
 1011 232 1011 232 1058 192 c 0,8,9
 1107 150 1107 150 1162 150 c 0,10,11
 1218 150 1218 150 1279 203 c 0,12,13
 1318 237 1318 237 1318 302 c 0,14,15
 1318 352 1318 352 1280 402 c 0,0,1
1393 499 m 0,16,17
 1464 420 1464 420 1464 289 c 0,18,19
 1464 174 1464 174 1375 88 c 0,20,21
 1284 0 1284 0 1161 0 c 0,22,23
 1062 0 1062 0 978 65 c 0,24,25
 864 153 864 153 864 291 c 0,26,27
 864 442 864 442 967 531 c 0,28,29
 1050 603 1050 603 1155 603 c 0,30,31
 1299 603 1299 603 1393 499 c 0,16,17
1321 1477 m 2,32,33
 1352 1510 1352 1510 1388 1510 c 0,34,35
 1462 1510 1462 1510 1462 1432 c 0,36,37
 1462 1412 1462 1412 1432 1378 c 2,38,-1
 235 31 l 26,39,40
 208 0 208 0 171 0 c 0,41,42
 100 0 100 0 100 75 c 0,43,44
 100 103 100 103 126 132 c 10,45,-1
 1321 1477 l 2,32,33
516 1309 m 0,46,47
 475 1363 475 1363 395 1363 c 0,48,49
 330 1363 330 1363 281 1305 c 0,50,51
 247 1265 247 1265 247 1204 c 0,52,53
 247 1139 247 1139 294 1099 c 0,54,55
 343 1057 343 1057 398 1057 c 0,56,57
 454 1057 454 1057 515 1110 c 0,58,59
 554 1144 554 1144 554 1209 c 0,60,61
 554 1259 554 1259 516 1309 c 0,46,47
629 1406 m 0,62,63
 700 1327 700 1327 700 1196 c 0,64,65
 700 1079 700 1079 611 995 c 0,66,67
 520 909 520 909 397 909 c 0,68,69
 298 909 298 909 214 972 c 0,70,71
 100 1057 100 1057 100 1198 c 0,72,73
 100 1349 100 1349 203 1438 c 0,74,75
 286 1510 286 1510 391 1510 c 0,76,77
 535 1510 535 1510 629 1406 c 0,62,63
EndSplineSet
Validated: 2049
EndChar

StartChar: perthousand
Encoding: 8240 8240 75
Width: 2389
VWidth: 0
Flags: W
HStem: 0 150<956.157 1169.39 1701.16 1914.39> 456 147<957.971 1171.7 1702.97 1916.7> 909 148<192.157 405.39> 1363 148<193.971 407.7>
VStem: 0 147<1102.71 1308.57> 454 146<1108.73 1312.35> 764 147<194.528 402.058> 1218 146<202.209 405.353> 1509 147<194.528 402.058> 1963 146<202.209 405.353>
LayerCount: 2
Fore
SplineSet
1925 402 m 0,0,1
 1884 456 1884 456 1804 456 c 0,2,3
 1739 456 1739 456 1690 398 c 0,4,5
 1656 358 1656 358 1656 297 c 0,6,7
 1656 232 1656 232 1703 192 c 0,8,9
 1752 150 1752 150 1807 150 c 0,10,11
 1863 150 1863 150 1924 203 c 0,12,13
 1963 237 1963 237 1963 302 c 0,14,15
 1963 352 1963 352 1925 402 c 0,0,1
2038 499 m 0,16,17
 2109 420 2109 420 2109 289 c 0,18,19
 2109 174 2109 174 2020 88 c 0,20,21
 1929 0 1929 0 1806 0 c 0,22,23
 1707 0 1707 0 1623 65 c 0,24,25
 1509 153 1509 153 1509 291 c 0,26,27
 1509 442 1509 442 1612 531 c 0,28,29
 1695 603 1695 603 1800 603 c 0,30,31
 1944 603 1944 603 2038 499 c 0,16,17
1180 402 m 0,32,33
 1139 456 1139 456 1059 456 c 0,34,35
 994 456 994 456 945 398 c 0,36,37
 911 358 911 358 911 297 c 0,38,39
 911 232 911 232 958 192 c 0,40,41
 1007 150 1007 150 1062 150 c 0,42,43
 1118 150 1118 150 1179 203 c 0,44,45
 1218 237 1218 237 1218 302 c 0,46,47
 1218 352 1218 352 1180 402 c 0,32,33
1293 499 m 0,48,49
 1364 420 1364 420 1364 289 c 0,50,51
 1364 174 1364 174 1275 88 c 0,52,53
 1184 0 1184 0 1061 0 c 0,54,55
 962 0 962 0 878 65 c 0,56,57
 764 153 764 153 764 291 c 0,58,59
 764 442 764 442 867 531 c 0,60,61
 950 603 950 603 1055 603 c 0,62,63
 1199 603 1199 603 1293 499 c 0,48,49
1221 1477 m 2,64,65
 1252 1511 1252 1511 1288 1511 c 0,66,67
 1362 1511 1362 1511 1362 1432 c 0,68,69
 1362 1412 1362 1412 1332 1378 c 2,70,-1
 135 31 l 26,71,72
 108 0 108 0 71 0 c 0,73,74
 0 0 0 0 0 75 c 0,75,76
 0 103 0 103 26 132 c 10,77,-1
 1221 1477 l 2,64,65
416 1309 m 0,78,79
 375 1363 375 1363 295 1363 c 0,80,81
 230 1363 230 1363 181 1305 c 0,82,83
 147 1265 147 1265 147 1204 c 0,84,85
 147 1139 147 1139 194 1099 c 0,86,87
 243 1057 243 1057 298 1057 c 0,88,89
 354 1057 354 1057 415 1110 c 0,90,91
 454 1144 454 1144 454 1209 c 0,92,93
 454 1259 454 1259 416 1309 c 0,78,79
529 1406 m 0,94,95
 600 1327 600 1327 600 1196 c 0,96,97
 600 1079 600 1079 511 995 c 0,98,99
 420 909 420 909 297 909 c 0,100,101
 198 909 198 909 114 972 c 0,102,103
 0 1057 0 1057 0 1198 c 0,104,105
 0 1347 0 1347 103 1438 c 0,106,107
 186 1511 186 1511 291 1511 c 0,108,109
 435 1511 435 1511 529 1406 c 0,94,95
EndSplineSet
Validated: 2049
EndChar

StartChar: degree
Encoding: 176 176 76
Width: 800
VWidth: 0
Flags: W
HStem: 909 148<292.157 505.39> 1363 147<293.971 507.7>
VStem: 100 147<1102.71 1309.06> 554 146<1108.73 1312.35>
LayerCount: 2
Fore
SplineSet
516 1309 m 0,0,1
 475 1363 475 1363 395 1363 c 0,2,3
 330 1363 330 1363 281 1305 c 0,4,5
 247 1265 247 1265 247 1204 c 0,6,7
 247 1139 247 1139 294 1099 c 0,8,9
 343 1057 343 1057 398 1057 c 0,10,11
 454 1057 454 1057 515 1110 c 0,12,13
 554 1144 554 1144 554 1209 c 0,14,15
 554 1259 554 1259 516 1309 c 0,0,1
629 1406 m 0,16,17
 700 1327 700 1327 700 1196 c 0,18,19
 700 1079 700 1079 611 995 c 0,20,21
 520 909 520 909 397 909 c 0,22,23
 298 909 298 909 214 972 c 0,24,25
 100 1057 100 1057 100 1198 c 0,26,27
 100 1349 100 1349 203 1438 c 0,28,29
 286 1510 286 1510 391 1510 c 0,30,31
 535 1510 535 1510 629 1406 c 0,16,17
EndSplineSet
Validated: 1
EndChar

StartChar: equal
Encoding: 61 61 77
Width: 950
VWidth: 0
Flags: W
HStem: 296 146<103.445 844.155> 751 147<105.01 846.155>
LayerCount: 2
Fore
SplineSet
773 442 m 2,0,1
 848 442 848 442 848 370 c 0,2,3
 848 296 848 296 778 296 c 2,4,5
 778 296 778 296 171 296 c 26,6,7
 100 296 100 296 100 369 c 128,-1,8
 100 442 100 442 172 442 c 26,9,-1
 773 442 l 2,0,1
775 898 m 2,10,11
 850 898 850 898 850 825 c 0,12,13
 850 751 850 751 780 751 c 2,14,-1
 173 751 l 26,15,16
 101 751 101 751 101 824 c 0,17,18
 101 898 101 898 174 898 c 26,19,-1
 775 898 l 2,10,11
EndSplineSet
Validated: 1
EndChar

StartChar: m
Encoding: 109 109 78
Width: 1315
VWidth: 0
Flags: W
HStem: 917 148<274 581 732 991.098>
VStem: 130 144<9.63672 917> 581 151<12.4375 917> 1038 147<9.6875 868.743>
LayerCount: 2
Fore
SplineSet
130 991 m 2,0,1
 130 1026 130 1026 156 1050 c 24,2,3
 172 1065 172 1065 213 1065 c 2,4,5
 213 1065 213 1065 869 1065 c 26,6,7
 999 1065 999 1065 1084 987 c 24,8,9
 1185 895 1185 895 1185 776 c 2,10,11
 1185 776 1185 776 1185 92 c 26,12,13
 1185 4 1185 4 1115 4 c 24,14,15
 1038 4 1038 4 1038 95 c 2,16,17
 1038 95 1038 95 1038 761 c 26,18,19
 1038 830 1038 830 996 870 c 24,20,21
 947 917 947 917 874 917 c 18,22,-1
 732 917 l 1,23,-1
 732 94 l 10,24,25
 732 7 732 7 661 7 c 24,26,27
 581 7 581 7 581 87 c 18,28,-1
 581 917 l 1,29,-1
 274 917 l 1,30,-1
 274 82 l 10,31,32
 274 6 274 6 202 6 c 152,-1,33
 130 6 130 6 130 77 c 26,34,-1
 130 991 l 2,0,1
EndSplineSet
Validated: 1
EndChar

StartChar: k
Encoding: 107 107 79
Width: 1007
VWidth: 0
Flags: W
HStem: 0 21G<808 866> 1034 20G<821 871.5> 1490 20G<185.5 257.5>
VStem: 150 144<7.1748 488 672 1506.12>
LayerCount: 2
Fore
SplineSet
150 1429 m 2,0,1
 150 1510 150 1510 221 1510 c 24,2,3
 294 1510 294 1510 294 1429 c 18,4,-1
 294 672 l 1,5,-1
 774 1034 l 2,6,7
 806 1054 806 1054 836 1054 c 0,8,9
 907 1054 907 1054 907 984 c 0,10,11
 907 950 907 950 873 924 c 18,12,-1
 583 705 l 1,13,-1
 893 112 l 2,14,15
 905 90 905 90 905 71 c 0,16,17
 905 0 905 0 827 0 c 0,18,19
 789 0 789 0 768 40 c 18,20,-1
 466 618 l 1,21,-1
 299 488 l 1,22,-1
 299 79 l 10,23,24
 299 3 299 3 225 3 c 24,25,26
 150 3 150 3 150 78 c 26,27,-1
 150 1429 l 2,0,1
EndSplineSet
Validated: 1
EndChar

StartChar: o
Encoding: 111 111 80
Width: 1009
VWidth: 0
Flags: W
HStem: 8 142<376.774 639.004> 919 144<372.518 636.298>
VStem: 130 143<247.938 824.457> 738 141<247.732 817.52>
LayerCount: 2
Fore
SplineSet
353 862 m 0,0,1
 273 803 273 803 273 679 c 2,2,-1
 273 372 l 2,3,4
 273 259 273 259 383 190 c 0,5,6
 447 150 447 150 511 150 c 128,-1,7
 575 150 575 150 640 194 c 0,8,9
 738 260 738 260 738 403 c 2,10,-1
 738 658 l 2,11,12
 738 785 738 785 663 853 c 0,13,14
 591 919 591 919 511 919 c 128,-1,15
 431 919 431 919 353 862 c 0,0,1
493 1063 m 0,16,17
 661 1063 661 1063 767 958 c 0,18,19
 879 847 879 847 879 722 c 2,20,-1
 879 374 l 2,21,22
 879 206 879 206 758 100 c 0,23,24
 653 8 653 8 504 8 c 24,25,26
 345 8 345 8 251 104 c 24,27,28
 130 227 130 227 130 379 c 2,29,-1
 130 706 l 2,30,31
 130 867 130 867 269 980 c 0,32,33
 371 1063 371 1063 493 1063 c 0,16,17
EndSplineSet
Validated: 1
EndChar

StartChar: a
Encoding: 97 97 81
Width: 986
VWidth: 0
Flags: W
HStem: 0 151<295.814 706> 461 145<295.739 706> 915 146<183.12 661.891>
VStem: 100 148<196.351 412.709> 706 150<151 461 606 869.725>
AnchorPoint: "above" 531 1062 basechar 0
LayerCount: 2
Fore
SplineSet
414 461 m 2,0,1
 331 461 331 461 289.5 411.5 c 128,-1,2
 248 362 248 362 248 302 c 256,3,4
 248 236 248 236 295.5 193.5 c 128,-1,5
 343 151 343 151 400 151 c 2,6,-1
 706 151 l 1,7,-1
 706 461 l 1,8,-1
 414 461 l 2,0,1
254 915 m 18,9,10
 179 915 179 915 179 989 c 256,11,12
 179 1061 179 1061 254 1061 c 2,13,-1
 565 1061 l 2,14,15
 694 1061 694 1061 775 964.5 c 152,-1,16
 856 868 856 868 856 766 c 2,17,-1
 856 94 l 10,18,19
 856 51 856 51 833 25.5 c 144,-1,20
 810 0 810 0 770 0 c 2,21,-1
 390 0 l 26,22,23
 277 0 277 0 188.5 92 c 144,-1,24
 100 184 100 184 100 300 c 256,25,26
 100 429 100 429 184.5 517.5 c 128,-1,27
 269 606 269 606 394 606 c 2,28,-1
 706 606 l 1,29,-1
 706 790 l 2,30,31
 706 828 706 828 661 871.5 c 128,-1,32
 616 915 616 915 561 915 c 10,33,-1
 254 915 l 18,9,10
EndSplineSet
Validated: 1
EndChar

StartChar: b
Encoding: 98 98 82
Width: 1030
VWidth: 0
Flags: W
HStem: 4 144<291 713.263> 915 143<293 709.89> 1495 20G<184.5 256>
VStem: 150 141<148 915 1058 1511.95> 757 143<190.5 868>
LayerCount: 2
Fore
SplineSet
585 148 m 2,0,1
 757 148 757 148 757 318 c 2,2,3
 757 318 757 318 757 747 c 2,4,5
 757 824 757 824 711.5 869.5 c 128,-1,6
 666 915 666 915 593 915 c 2,7,-1
 291 915 l 1,8,-1
 291 148 l 1,9,-1
 585 148 l 2,0,1
240 4 m 26,10,11
 150 4 150 4 150 72 c 26,12,-1
 150 1441 l 2,13,14
 150 1515 150 1515 219 1515 c 24,15,16
 293 1515 293 1515 293 1441 c 18,17,-1
 293 1058 l 1,18,-1
 623 1058 l 2,19,20
 750 1058 750 1058 843 944 c 24,21,22
 900 874 900 874 900 780 c 2,23,-1
 900 278 l 26,24,25
 900 161 900 161 813.5 82.5 c 152,-1,26
 727 4 727 4 599 4 c 2,27,-1
 240 4 l 26,10,11
EndSplineSet
Validated: 1
EndChar

StartChar: c
Encoding: 99 99 83
Width: 829
VWidth: 0
Flags: W
HStem: 4 147<320.666 723.938> 917 145<320.732 724.825>
VStem: 130 146<194.146 872.345>
LayerCount: 2
Fore
SplineSet
653 1062 m 6,0,1
 729 1062 729 1062 729 992 c 28,2,3
 729 917 729 917 653 917 c 6,4,5
 653 917 653 917 454 917 c 6,6,7
 276 917 276 917 276 749 c 6,8,9
 276 749 276 749 276 332 c 6,10,11
 276 151 276 151 444 151 c 30,12,-1
 648 151 l 6,13,14
 729 151 729 151 729 74 c 4,15,16
 729 4 729 4 652 4 c 6,17,18
 652 4 652 4 419 4 c 30,19,20
 299 4 299 4 212 92 c 28,21,22
 130 175 130 175 130 296 c 6,23,24
 130 296 130 296 130 753 c 30,25,26
 130 890 130 890 210 970 c 4,27,28
 302 1062 302 1062 440 1062 c 30,29,30
 440 1062 440 1062 653 1062 c 6,0,1
EndSplineSet
Validated: 1
EndChar

StartChar: d
Encoding: 100 100 84
Width: 1031
VWidth: 0
Flags: W
HStem: 0 151<318 735> 916 145<319.34 735> 1495 20G<771.5 844.5>
VStem: 130 142<198.591 867.75> 735 146<151 916 1061 1510.77>
LayerCount: 2
Fore
SplineSet
445 916 m 2,0,1
 272 916 272 916 272 724 c 2,2,3
 272 724 272 724 272 330 c 2,4,5
 272 151 272 151 456 151 c 2,6,7
 456 151 456 151 735 151 c 1,8,9
 735 151 735 151 735 916 c 1,10,11
 735 916 735 916 445 916 c 2,0,1
735 1438 m 10,12,13
 735 1515 735 1515 808 1515 c 152,-1,14
 881 1515 881 1515 881 1433 c 2,15,-1
 881 94 l 26,16,17
 881 0 881 0 786 0 c 2,18,-1
 439 0 l 18,19,20
 309 0 309 0 228 81 c 24,21,22
 130 179 130 179 130 297 c 2,23,-1
 130 774 l 26,24,25
 130 871 130 871 199 955 c 0,26,27
 286 1061 286 1061 444 1061 c 18,28,-1
 735 1061 l 1,29,-1
 735 1438 l 10,12,13
EndSplineSet
Validated: 1
EndChar

StartChar: e
Encoding: 101 101 85
Width: 1015
VWidth: 0
Flags: W
HStem: 0 146<319.585 880.166> 462 142<280 739> 914 148<380.018 649.712>
VStem: 130 148<187.561 462 604 814.113> 739 143<604 819.156>
LayerCount: 2
Fore
SplineSet
280 604 m 9,0,-1
 739 604 l 17,1,2
 739 760 739 760 689 828 c 0,3,4
 626 914 626 914 515 914 c 0,5,6
 409 914 409 914 330 826 c 0,7,8
 280 770 280 770 280 604 c 9,0,-1
130 698 m 2,9,10
 130 856 130 856 261 966 c 24,11,12
 375 1062 375 1062 512 1062 c 0,13,14
 675 1062 675 1062 789 937 c 0,15,16
 882 835 882 835 882 724 c 2,17,-1
 882 534 l 2,18,19
 882 462 882 462 815 462 c 18,20,-1
 278 462 l 25,21,-1
 278 330 l 2,22,23
 278 146 278 146 434 146 c 26,24,-1
 797 146 l 26,25,26
 885 146 885 146 885 72 c 24,27,28
 885 0 885 0 798 0 c 2,29,-1
 430 0 l 2,30,31
 309 0 309 0 217 97 c 24,32,33
 130 189 130 189 130 316 c 26,34,35
 130 316 130 316 130 698 c 2,9,10
EndSplineSet
Validated: 1
EndChar

StartChar: f
Encoding: 102 102 86
Width: 899
VWidth: 0
Flags: W
HStem: 918 144<153.493 300 446 744.386> 1370 148<504.598 743.496>
VStem: 300 145<8.75 918 1062 1314.76>
LayerCount: 2
Fore
SplineSet
672 1518 m 2,0,1
 748 1518 748 1518 748 1445 c 0,2,3
 748 1370 748 1370 666 1370 c 2,4,-1
 622 1370 l 2,5,6
 554 1370 554 1370 503 1329 c 0,7,8
 446 1283 446 1283 446 1207 c 2,9,-1
 446 1062 l 1,10,-1
 665 1062 l 10,11,12
 749 1062 749 1062 749 988 c 24,13,14
 749 918 749 918 664 918 c 18,15,-1
 445 918 l 1,16,-1
 445 80 l 10,17,18
 445 4 445 4 368 4 c 24,19,20
 300 4 300 4 300 87 c 2,21,-1
 300 918 l 1,22,-1
 219 918 l 2,23,24
 150 918 150 918 150 991 c 0,25,26
 150 1062 150 1062 223 1062 c 18,27,-1
 300 1062 l 1,28,-1
 300 1214 l 2,29,30
 300 1339 300 1339 383 1419 c 0,31,32
 486 1518 486 1518 599 1518 c 26,33,-1
 672 1518 l 2,0,1
EndSplineSet
Validated: 1
EndChar

StartChar: g
Encoding: 103 103 87
Width: 1029
VWidth: 0
Flags: W
HStem: -456 145<207.504 692.555> 0 145<317.291 731> 911 146<325.598 734>
VStem: 130 142<190.479 859.761> 734 145<-268.179 0 145 911>
LayerCount: 2
Fore
SplineSet
445 911 m 2,0,1
 375 911 375 911 324 867 c 0,2,3
 272 822 272 822 272 743 c 2,4,-1
 272 326 l 18,5,6
 272 236 272 236 316 189 c 0,7,8
 357 145 357 145 438 145 c 2,9,-1
 734 145 l 1,10,-1
 734 911 l 1,11,-1
 445 911 l 2,0,1
433 1057 m 2,12,13
 433 1057 433 1057 804 1057 c 26,14,15
 879 1057 879 1057 879 975 c 2,16,17
 879 975 879 975 879 -181 c 26,18,19
 879 -295 879 -295 794 -376 c 24,20,21
 710 -456 710 -456 594 -456 c 2,22,23
 594 -456 594 -456 281 -456 c 26,24,25
 203 -456 203 -456 203 -385 c 24,26,27
 203 -311 203 -311 285 -311 c 2,28,29
 285 -311 285 -311 537 -311 c 2,30,31
 731 -311 731 -311 731 -169 c 2,32,-1
 731 0 l 17,33,34
 731 0 731 0 407 0 c 26,35,36
 285 0 285 0 207 91 c 24,37,38
 130 181 130 181 130 306 c 2,39,40
 130 306 130 306 130 764 c 26,41,42
 130 887 130 887 214 969 c 24,43,44
 304 1057 304 1057 433 1057 c 2,12,13
EndSplineSet
Validated: 1
EndChar

StartChar: h
Encoding: 104 104 88
Width: 1031
VWidth: 0
Flags: W
HStem: 916 144<296 712.948> 1495 20G<187.5 260.5>
VStem: 150 146<10.7241 916 1060 1510.11> 758 143<11 872.006>
LayerCount: 2
Fore
SplineSet
150 1426 m 6,0,1
 150 1515 150 1515 225 1515 c 4,2,3
 296 1515 296 1515 296 1430 c 6,4,-1
 296 1060 l 13,5,-1
 606 1060 l 30,6,7
 725 1060 725 1060 823 967 c 4,8,9
 901 893 901 893 901 761 c 6,10,-1
 901 84 l 30,11,12
 901 6 901 6 835 6 c 28,13,14
 758 6 758 6 758 86 c 6,15,-1
 758 744 l 6,16,17
 758 916 758 916 582 916 c 6,18,-1
 296 916 l 29,19,-1
 296 87 l 30,20,21
 296 6 296 6 220 6 c 28,22,23
 150 6 150 6 150 92 c 30,24,-1
 150 1426 l 6,0,1
EndSplineSet
Validated: 1
EndChar

StartChar: i
Encoding: 105 105 89
Width: 447
VWidth: 0
Flags: W
HStem: 1041 20G<187 260.5> 1297 218<156.302 291.25>
VStem: 150 147<9.55933 1056.5 1301.88 1510.62>
LayerCount: 2
Fore
SplineSet
297 980 m 2,0,-1
 297 88 l 2,1,2
 297 5 297 5 225 5 c 0,3,4
 150 5 150 5 150 86 c 2,5,-1
 150 979 l 18,6,7
 150 1061 150 1061 224 1061 c 0,8,9
 297 1061 297 1061 297 980 c 2,0,-1
153 1445 m 2,10,11
 153 1515 153 1515 222 1515 c 0,12,13
 296 1515 296 1515 296 1440 c 2,14,-1
 296 1375 l 2,15,16
 296 1297 296 1297 220 1297 c 0,17,18
 153 1297 153 1297 153 1370 c 10,19,-1
 153 1445 l 2,10,11
EndSplineSet
Validated: 1
EndChar

StartChar: j
Encoding: 106 106 90
Width: 446
VWidth: 0
Flags: W
HStem: -456 145<-145.825 98.7568> 1034 20G<187.25 259.75> 1295 220<156.574 290.779>
VStem: 151 145<-258.341 1050.41 1298.68 1509.62>
LayerCount: 2
Fore
SplineSet
151 979 m 26,0,1
 151 1054 151 1054 223.5 1054 c 152,-1,2
 296 1054 296 1054 296 980 c 2,3,-1
 296 -171 l 30,4,5
 296 -280 296 -280 214 -363 c 28,6,7
 122 -456 122 -456 13 -456 c 6,8,-1
 -74 -456 l 30,9,10
 -150 -456 -150 -456 -150 -382 c 28,11,12
 -150 -311 -150 -311 -79 -311 c 6,13,-1
 8 -311 l 30,14,15
 58 -311 58 -311 108 -259 c 28,16,17
 151 -214 151 -214 151 -160 c 30,18,-1
 151 979 l 26,0,1
151 1434 m 2,19,20
 151 1515 151 1515 230 1515 c 0,21,22
 296 1515 296 1515 296 1429 c 2,23,-1
 296 1367 l 2,24,25
 296 1295 296 1295 223.5 1295 c 128,-1,26
 151 1295 151 1295 151 1362 c 10,27,-1
 151 1434 l 2,19,20
EndSplineSet
Validated: 1
EndChar

StartChar: l
Encoding: 108 108 91
Width: 548
VWidth: 0
Flags: W
HStem: 0 148<307.564 443.441> 1491 20G<190 263.5>
VStem: 150 147<154.391 1505.88>
LayerCount: 2
Fore
SplineSet
150 1432 m 2,0,1
 150 1511 150 1511 230 1511 c 0,2,3
 297 1511 297 1511 297 1429 c 2,4,5
 297 1429 297 1429 297 259 c 2,6,7
 297 148 297 148 365 148 c 0,8,9
 448 148 448 148 448 73 c 16,10,11
 448 0 448 0 370 0 c 24,12,13
 279 0 279 0 211 71 c 24,14,15
 150 135 150 135 150 235 c 26,16,17
 150 235 150 235 150 1432 c 2,0,1
EndSplineSet
Validated: 1
EndChar

StartChar: n
Encoding: 110 110 92
Width: 1011
VWidth: 0
Flags: W
HStem: 914 149<271 694.529>
VStem: 130 141<11.9717 914> 735 146<12.3833 868.897>
LayerCount: 2
Fore
SplineSet
130 988 m 2,0,1
 130 1063 130 1063 203 1063 c 2,2,3
 203 1063 203 1063 588 1063 c 26,4,5
 709 1063 709 1063 807 966 c 24,6,7
 881 893 881 893 881 774 c 2,8,9
 881 774 881 774 881 103 c 26,10,11
 881 7 881 7 811 7 c 24,12,13
 735 7 735 7 735 105 c 2,14,15
 735 105 735 105 735 762 c 26,16,17
 735 835 735 835 696 870 c 0,18,19
 649 914 649 914 593 914 c 2,20,21
 593 914 593 914 271 914 c 25,22,-1
 271 92 l 26,23,24
 271 8 271 8 201 8 c 24,25,26
 130 8 130 8 130 91 c 26,27,28
 130 91 130 91 130 988 c 2,0,1
EndSplineSet
Validated: 1
EndChar

StartChar: p
Encoding: 112 112 93
Width: 1039
VWidth: 0
Flags: W
HStem: -456 21G<184.5 258> 0 144<297 716.534> 908 146<297 714.938>
VStem: 150 147<-450.062 0 144 908> 760 149<206.255 859.587>
LayerCount: 2
Fore
SplineSet
618 144 m 2,0,1
 684 144 684 144 730 205 c 0,2,3
 760 245 760 245 760 306 c 2,4,-1
 760 744 l 2,5,6
 760 816 760 816 718 861 c 0,7,8
 674 908 674 908 607 908 c 2,9,-1
 297 908 l 1,10,-1
 297 144 l 1,11,-1
 618 144 l 2,0,1
150 969 m 2,12,13
 150 1054 150 1054 235 1054 c 2,14,15
 235 1054 235 1054 622 1054 c 26,16,17
 737 1054 737 1054 829 955 c 24,18,19
 909 869 909 869 909 749 c 2,20,21
 909 749 909 749 909 327 c 26,22,23
 909 185 909 185 838 103 c 24,24,25
 749 0 749 0 625 0 c 18,26,-1
 297 0 l 1,27,-1
 297 -365 l 10,28,29
 297 -456 297 -456 219 -456 c 24,30,31
 150 -456 150 -456 150 -361 c 26,32,33
 150 -361 150 -361 150 969 c 2,12,13
EndSplineSet
Validated: 1
EndChar

StartChar: q
Encoding: 113 113 94
Width: 1039
VWidth: 0
Flags: W
HStem: -4 144<322.466 742> 904 144<324.062 742>
VStem: 130 149<202.255 855.587> 742 147<-454.062 -4 140 904>
LayerCount: 2
Fore
SplineSet
421 140 m 2,0,1
 421 140 421 140 742 140 c 1,2,-1
 742 904 l 1,3,-1
 432 904 l 2,4,5
 365 904 365 904 321 857 c 0,6,7
 279 812 279 812 279 740 c 2,8,-1
 279 302 l 2,9,10
 279 241 279 241 309 201 c 0,11,12
 355 140 355 140 421 140 c 2,0,1
889 965 m 2,13,-1
 889 -365 l 26,14,15
 889 -460 889 -460 820 -460 c 24,16,17
 742 -460 742 -460 742 -369 c 18,18,-1
 742 -4 l 1,19,-1
 414 -4 l 10,20,21
 290 -4 290 -4 201 99 c 24,22,23
 130 181 130 181 130 323 c 26,24,-1
 130 745 l 2,25,26
 130 867 130 867 210 951 c 24,27,28
 302 1048 302 1048 417 1048 c 26,29,-1
 804 1048 l 2,30,31
 889 1048 889 1048 889 965 c 2,13,-1
EndSplineSet
Validated: 1
EndChar

StartChar: r
Encoding: 114 114 95
Width: 834
VWidth: 0
Flags: W
HStem: 914 147<278 588>
VStem: 130 148<7.9375 914> 588 146<767.188 914>
LayerCount: 2
Fore
SplineSet
130 979 m 2,0,1
 130 1061 130 1061 215 1061 c 2,2,3
 215 1061 215 1061 650 1061 c 26,4,5
 734 1061 734 1061 734 992 c 2,6,7
 734 992 734 992 734 845 c 26,8,9
 734 762 734 762 668 762 c 0,10,11
 588 762 588 762 588 840 c 2,12,13
 588 840 588 840 588 914 c 9,14,-1
 278 914 l 25,15,-1
 278 82 l 26,16,17
 278 3 278 3 201 3 c 24,18,19
 130 3 130 3 130 85 c 26,20,21
 130 85 130 85 130 979 c 2,0,1
EndSplineSet
Validated: 1
EndChar

StartChar: s
Encoding: 115 115 96
Width: 954
VWidth: 0
Flags: W
HStem: 4 146<285.049 667.403> 917 146<270.092 608.898>
VStem: 100 146<706.338 892.825> 707 147<177.344 355.692>
LayerCount: 2
Fore
SplineSet
728 986 m 16,0,1
 776 960 776 960 776 921 c 0,2,3
 776 843 776 843 707 843 c 8,4,5
 689 843 689 843 650 858 c 0,6,7
 498 917 498 917 387 917 c 0,8,9
 246 917 246 917 246 794 c 0,10,11
 246 723 246 723 321 688 c 26,12,-1
 690 515 l 2,13,14
 854 440 854 440 854 273 c 0,15,16
 854 140 854 140 735 49 c 0,17,18
 676 4 676 4 585 4 c 0,19,20
 400 4 400 4 165 80 c 0,21,22
 100 101 100 101 100 150 c 0,23,24
 100 224 100 224 166 224 c 0,25,26
 205 224 205 224 246 208 c 0,27,28
 396 150 396 150 564 150 c 0,29,30
 623 150 623 150 654 170 c 0,31,32
 707 204 707 204 707 274 c 0,33,34
 707 342 707 342 614 386 c 26,35,-1
 260 555 l 2,36,37
 100 631 100 631 100 806 c 0,38,39
 100 907 100 907 171 982 c 0,40,41
 248 1063 248 1063 367 1063 c 0,42,43
 584 1063 584 1063 728 986 c 16,0,1
EndSplineSet
Validated: 1
EndChar

StartChar: t
Encoding: 116 116 97
Width: 711
VWidth: 0
Flags: W
HStem: 0 21G<246 318> 912 142<63.541 210 354 656> 1491 20G<247.5 319.5>
VStem: 210 144<4.01953 912 1054 1506.61>
LayerCount: 2
Fore
SplineSet
210 1435 m 10,0,1
 210 1511 210 1511 285 1511 c 0,2,3
 354 1511 354 1511 354 1431 c 18,4,5
 354 1431 354 1431 354 1054 c 1,6,7
 354 1054 354 1054 583 1054 c 2,8,9
 661 1054 661 1054 661 976 c 0,10,11
 661 912 661 912 581 912 c 18,12,-1
 354 912 l 1,13,-1
 354 77 l 10,14,15
 354 0 354 0 282 0 c 152,-1,16
 210 0 210 0 210 84 c 2,17,-1
 210 912 l 1,18,-1
 134 912 l 2,19,20
 60 912 60 912 60 982 c 0,21,22
 60 1054 60 1054 133 1054 c 18,23,-1
 210 1054 l 1,24,-1
 210 1435 l 10,0,1
EndSplineSet
Validated: 1
EndChar

StartChar: u
Encoding: 117 117 98
Width: 1012
VWidth: 0
Flags: W
HStem: 0 147<318.472 737> 1038 20G<166 237.5 774.5 847>
VStem: 130 143<194.35 1053.74> 737 145<147 1049.55>
LayerCount: 2
Fore
SplineSet
130 971 m 2,0,1
 130 1058 130 1058 202 1058 c 24,2,3
 273 1058 273 1058 273 969 c 2,4,5
 273 969 273 969 273 305 c 2,6,7
 273 236 273 236 317 193 c 0,8,9
 364 147 364 147 424 147 c 2,10,-1
 737 147 l 1,11,-1
 737 975 l 10,12,13
 737 1054 737 1054 812 1054 c 24,14,15
 882 1054 882 1054 882 973 c 2,16,-1
 882 82 l 26,17,18
 882 0 882 0 807 0 c 2,19,-1
 414 0 l 26,20,21
 294 0 294 0 206 94 c 24,22,23
 130 175 130 175 130 302 c 26,24,25
 130 302 130 302 130 971 c 2,0,1
EndSplineSet
Validated: 1
EndChar

StartChar: v
Encoding: 118 118 99
Width: 954
VWidth: 0
Flags: W
HStem: 0 21G<451.5 503.5> 1034 20G<143.5 207 754.5 818.5>
VStem: 709 145<1001 1049.33>
LayerCount: 2
Fore
SplineSet
709 1001 m 2,0,1
 726 1054 726 1054 783 1054 c 0,2,3
 854 1054 854 1054 854 992 c 0,4,5
 854 973 854 973 847 952 c 2,6,7
 847 952 847 952 551 68 c 26,8,9
 529 0 529 0 478 0 c 24,10,11
 425 0 425 0 404 60 c 2,12,13
 404 60 404 60 109 944 c 18,14,15
 100 971 100 971 100 987 c 0,16,17
 100 1054 100 1054 187 1054 c 0,18,19
 227 1054 227 1054 248 989 c 2,20,21
 248 989 248 989 477 306 c 1,22,23
 477 306 477 306 709 1001 c 2,0,1
EndSplineSet
Validated: 1
EndChar

StartChar: w
Encoding: 119 119 100
Width: 1253
VWidth: 0
Flags: W
HStem: 0 21G<373 427.5 831 887.5> 1038 20G<140 204 1057.5 1118.5>
LayerCount: 2
Fore
SplineSet
1012 986 m 26,0,1
 1031 1058 1031 1058 1084 1058 c 0,2,3
 1153 1058 1153 1058 1153 992 c 0,4,5
 1153 974 1153 974 1148 954 c 2,6,7
 1148 954 1148 954 933 71 c 26,8,9
 916 0 916 0 859 0 c 24,10,11
 803 0 803 0 778 66 c 2,12,13
 778 66 778 66 626 475 c 9,14,-1
 475 65 l 26,15,16
 452 0 452 0 403 0 c 24,17,18
 343 0 343 0 328 62 c 2,19,20
 328 62 328 62 109 925 c 18,21,22
 100 960 100 960 100 985 c 0,23,24
 100 1054 100 1054 180 1054 c 0,25,26
 228 1054 228 1054 242 998 c 2,27,28
 242 998 242 998 414 324 c 1,29,30
 414 324 414 324 558 697 c 26,31,32
 579 752 579 752 628 752 c 0,33,34
 681 752 681 752 704 691 c 2,35,36
 704 691 704 691 839 328 c 9,37,-1
 1012 986 l 26,0,1
EndSplineSet
Validated: 1
EndChar

StartChar: x
Encoding: 120 120 101
Width: 951
VWidth: 0
Flags: MW
LayerCount: 2
Fore
SplineSet
393 527 m 1,0,1
 393 527 393 527 116 940 c 10,2,3
 100 964 100 964 100 985 c 0,4,5
 100 1057 100 1057 178 1057 c 0,6,7
 212 1057 212 1057 236 1021 c 2,8,-1
 477 659 l 1,9,-1
 719 1021 l 10,10,11
 742 1054 742 1054 781 1054 c 0,12,13
 848 1054 848 1054 848 991 c 0,14,15
 848 955 848 955 833 931 c 2,16,17
 833 931 833 931 562 528 c 1,18,19
 562 528 562 528 826 134 c 2,20,21
 851 95 851 95 851 72 c 0,22,23
 851 0 851 0 782 0 c 0,24,25
 740 0 740 0 717 35 c 2,26,27
 717 35 717 35 479 399 c 1,28,29
 479 399 479 399 239 39 c 10,30,31
 213 0 213 0 176 0 c 0,32,33
 100 0 100 0 100 68 c 0,34,35
 100 95 100 95 118 123 c 2,36,37
 118 123 118 123 393 527 c 1,0,1
EndSplineSet
Validated: 1
EndChar

StartChar: y
Encoding: 121 121 102
Width: 951
VWidth: 0
Flags: W
HStem: -456 145<104.614 269> 1034 20G<136.5 199 753 814>
LayerCount: 2
Fore
SplineSet
835 915 m 14,0,-1
 399 -387 l 6,1,2
 376 -456 376 -456 310 -456 c 2,3,4
 310 -456 310 -456 181 -456 c 2,5,6
 100 -456 100 -456 100 -385 c 0,7,8
 100 -311 100 -311 184 -311 c 2,9,-1
 269 -311 l 2,10,11
 269 -311 269 -311 392 61 c 5,12,-1
 113 920 l 6,13,14
 100 957 100 957 100 985 c 4,15,16
 100 1054 100 1054 173 1054 c 12,17,18
 225 1054 225 1054 247 985 c 22,19,-1
 471 296 l 5,20,-1
 708 993 l 14,21,22
 729 1054 729 1054 777 1054 c 4,23,24
 851 1054 851 1054 851 985 c 4,25,26
 851 963 851 963 835 915 c 14,0,-1
EndSplineSet
Validated: 1
EndChar

StartChar: z
Encoding: 122 122 103
Width: 950
VWidth: 0
Flags: W
HStem: 0 154<311 839.83> 916 148<105.75 640>
LayerCount: 2
Fore
SplineSet
311 154 m 1,0,-1
 768 154 l 2,1,2
 846 154 846 154 846 69 c 24,3,4
 846 0 846 0 768 0 c 26,5,-1
 191 0 l 2,6,7
 100 0 100 0 100 80 c 0,8,9
 100 108 100 108 122 140 c 18,10,-1
 640 916 l 1,11,-1
 175 916 l 10,12,13
 101 916 101 916 101 987 c 24,14,15
 101 1064 101 1064 177 1064 c 26,16,-1
 748 1064 l 2,17,18
 850 1064 850 1064 850 990 c 0,19,20
 850 965 850 965 834 941 c 2,21,-1
 311 154 l 1,0,-1
EndSplineSet
Validated: 1
EndChar

StartChar: dotlessi
Encoding: 305 305 130
Width: 447
VWidth: 0
Flags: W
HStem: 0 21G<187.5 261> 1037 20G<187 260.5>
VStem: 150 147<4.61426 1052.77>
LayerCount: 2
Fore
SplineSet
297 986 m 2,0,1
 297 986 297 986 297 84 c 2,2,3
 297 0 297 0 225 0 c 0,4,5
 150 0 150 0 150 82 c 2,6,7
 150 82 150 82 150 980 c 18,8,9
 150 1057 150 1057 224 1057 c 0,10,11
 297 1057 297 1057 297 986 c 2,0,1
EndSplineSet
Validated: 1
EndChar

StartChar: hungarumlaut
Encoding: 733 733 143
Width: 801
VWidth: 0
Flags: W
HStem: 1295 448
VStem: 96 601
LayerCount: 2
Fore
SplineSet
556 1828 m 2,0,1
 571 1892 571 1892 620 1892 c 0,2,3
 701 1892 701 1892 701 1830 c 0,4,5
 701 1807 701 1807 693 1772 c 2,6,-1
 630 1512 l 2,7,8
 614 1444 614 1444 566 1444 c 16,9,10
 485 1444 485 1444 485 1511 c 0,11,12
 485 1531 485 1531 489 1545 c 10,13,-1
 556 1828 l 2,0,1
176 1828 m 2,14,15
 192 1891 192 1891 245 1891 c 0,16,17
 323 1891 323 1891 323 1822 c 0,18,19
 323 1812 323 1812 317 1788 c 2,20,-1
 246 1508 l 2,21,22
 230 1444 230 1444 178 1444 c 0,23,24
 100 1444 100 1444 100 1509 c 0,25,26
 100 1525 100 1525 105 1545 c 10,27,-1
 176 1828 l 2,14,15
EndSplineSet
Validated: 1
EndChar

StartChar: uni0306
Encoding: 774 774 148
Width: 804
VWidth: 0
Flags: W
HStem: 1756 150<296.047 494.807>
VStem: 100 149<1953 2124.19> 554 150<1947.96 2123.07>
LayerCount: 2
Fore
SplineSet
249 1728 m 12,0,1
 249 1657 249 1657 303 1617 c 4,2,3
 353 1580 353 1580 399 1580 c 4,4,5
 458 1580 458 1580 496 1610 c 4,6,7
 554 1656 554 1656 554 1721 c 20,8,9
 554 1803 554 1803 635 1803 c 28,10,11
 704 1803 704 1803 704 1719 c 4,12,13
 704 1597 704 1597 618 1518 c 28,14,15
 522 1430 522 1430 397 1430 c 28,16,17
 261 1430 261 1430 177 1532 c 4,18,19
 100 1626 100 1626 100 1732 c 28,20,21
 100 1803 100 1803 183 1803 c 28,22,23
 249 1803 249 1803 249 1728 c 12,0,1
EndSplineSet
Validated: 1
EndChar

StartChar: uni0327
Encoding: 807 807 154
Width: 418
VWidth: 0
Flags: W
HStem: -299 450<181.016 237.089>
VStem: 100 218
LayerCount: 2
Fore
SplineSet
177 94 m 6,0,1
 191 151 191 151 238 151 c 4,2,3
 258 151 258 151 280 141 c 4,4,5
 318 124 318 124 318 81 c 4,6,7
 318 66 318 66 313 48 c 6,8,9
 313 48 313 48 242 -238 c 6,10,11
 227 -299 227 -299 177 -299 c 4,12,13
 162 -299 162 -299 142 -293 c 4,14,15
 100 -280 100 -280 100 -232 c 4,16,17
 100 -218 100 -218 104 -202 c 14,18,19
 104 -202 104 -202 177 94 c 6,0,1
EndSplineSet
Validated: 1
EndChar

StartChar: germandbls
Encoding: 223 223 161
Width: 1204
VWidth: 0
Flags: W
HStem: 6 145<690.436 865.548> 835 151<689.625 861.8> 1368 150<345.035 859.594>
VStem: 150 146<8.83301 1315.53> 910 142<195.369 771.587 1029.89 1319.49>
LayerCount: 2
Fore
SplineSet
1054 1113 m 2,0,1
 1054 990 1054 990 951 908 c 1,2,3
 1052 825 1052 825 1052 683 c 2,4,-1
 1052 289 l 2,5,6
 1052 172 1052 172 960 82 c 0,7,8
 882 6 882 6 775 6 c 16,9,10
 683 6 683 6 683 79 c 0,11,12
 683 135 683 135 777 151 c 0,13,14
 910 173 910 173 910 340 c 2,15,-1
 910 655 l 2,16,17
 910 728 910 728 877 773 c 0,18,19
 830 835 830 835 762 835 c 0,20,21
 684 835 684 835 684 917 c 24,22,23
 684 986 684 986 774 986 c 0,24,25
 830 986 830 986 870 1034 c 0,26,27
 908 1080 908 1080 908 1135 c 2,28,-1
 908 1216 l 2,29,30
 908 1278 908 1278 868 1318 c 0,31,32
 818 1368 818 1368 762 1368 c 10,33,-1
 474 1368 l 2,34,35
 386 1368 386 1368 339 1317 c 0,36,37
 296 1270 296 1270 296 1208 c 10,38,-1
 296 105 l 26,39,40
 296 4 296 4 223 4 c 128,-1,41
 150 4 150 4 150 102 c 2,42,-1
 150 1222 l 2,43,44
 150 1346 150 1346 250 1439 c 24,45,46
 334 1518 334 1518 476 1518 c 2,47,-1
 747 1518 l 2,48,49
 895 1518 895 1518 974 1421 c 0,50,51
 1054 1323 1054 1323 1054 1244 c 2,52,-1
 1054 1113 l 2,0,1
EndSplineSet
Validated: 1
EndChar

StartChar: Eth
Encoding: 208 208 163
Width: 1285
VWidth: 0
Flags: W
HStem: 0 141<375 887.819> 679 150<4.285 227 375 596.331> 1366 144<375 892.44>
VStem: 227 148<141 679 829 1366> 989 146<238.868 1273.71>
LayerCount: 2
Fore
SplineSet
375 141 m 1,0,1
 375 141 375 141 746 141 c 2,2,3
 859 141 859 141 935 225 c 0,4,5
 989 285 989 285 989 387 c 2,6,-1
 989 1135 l 2,7,8
 989 1225 989 1225 938 1282 c 0,9,10
 862 1366 862 1366 752 1366 c 2,11,-1
 375 1366 l 1,12,-1
 375 829 l 1,13,-1
 528 829 l 2,14,15
 601 829 601 829 601 755 c 0,16,17
 601 679 601 679 516 679 c 2,18,19
 516 679 516 679 375 679 c 1,20,21
 375 679 375 679 375 141 c 1,0,1
227 1428 m 2,22,23
 227 1510 227 1510 311 1510 c 2,24,-1
 746 1510 l 26,25,26
 910 1510 910 1510 1021 1403 c 24,27,28
 1135 1293 1135 1293 1135 1139 c 2,29,30
 1135 1139 1135 1139 1135 375 c 26,31,32
 1135 226 1135 226 1032 112 c 24,33,34
 931 0 931 0 794 0 c 2,35,36
 794 0 794 0 295 0 c 26,37,38
 227 0 227 0 227 89 c 18,39,40
 227 89 227 89 227 679 c 1,41,42
 227 679 227 679 76 679 c 1,43,44
 0 679 0 679 0 754 c 128,-1,45
 0 829 0 829 78 829 c 2,46,-1
 227 829 l 1,47,-1
 227 1428 l 2,22,23
EndSplineSet
Validated: 1
EndChar

StartChar: dcroat
Encoding: 273 273 164
Width: 1118
VWidth: 0
Flags: W
HStem: 0 144<323.952 734> 912 145<326.946 734> 1370 147<437.834 734 882 1173>
VStem: 130 144<196.628 858.705> 734 148<144 912 1057 1370 1517 1889.25>
LayerCount: 2
Fore
SplineSet
433 912 m 2,0,1
 365 912 365 912 316 857 c 0,2,3
 274 810 274 810 274 750 c 2,4,-1
 274 312 l 2,5,6
 274 247 274 247 317 195 c 0,7,8
 359 144 359 144 428 144 c 2,9,-1
 734 144 l 1,10,-1
 734 912 l 1,11,-1
 433 912 l 2,0,1
734 1815 m 9,12,13
 734 1894 734 1894 810 1894 c 24,14,15
 878 1894 878 1894 878 1818 c 2,16,-1
 878 1517 l 1,17,18
 878 1517 878 1517 1098 1517 c 2,19,20
 1178 1517 1178 1517 1178 1440 c 0,21,22
 1178 1370 1178 1370 1106 1370 c 2,23,24
 1106 1370 1106 1370 882 1370 c 1,25,26
 882 1370 882 1370 882 77 c 10,27,28
 882 0 882 0 804 0 c 2,29,30
 804 0 804 0 416 0 c 26,31,32
 301 0 301 0 214 88 c 24,33,34
 130 173 130 173 130 289 c 2,35,-1
 130 781 l 26,36,37
 130 862 130 862 202 954 c 0,38,39
 283 1057 283 1057 443 1057 c 18,40,-1
 734 1057 l 1,41,-1
 734 1370 l 1,42,-1
 521 1370 l 26,43,44
 433 1370 433 1370 433 1442 c 0,45,46
 433 1515 433 1515 521 1515 c 26,47,-1
 734 1515 l 1,48,-1
 734 1815 l 9,12,13
EndSplineSet
Validated: 1
EndChar

StartChar: uni0328
Encoding: 808 808 165
Width: 548
VWidth: 0
Flags: W
LayerCount: 2
Fore
SplineSet
369 148 m 24,0,1
 448 148 448 148 448 72 c 24,2,3
 448 0 448 0 361 0 c 0,4,5
 252 0 252 0 252 -119 c 4,6,7
 252 -234 252 -234 361 -234 c 4,8,9
 439 -234 439 -234 439 -306 c 28,10,11
 439 -374 439 -374 356 -374 c 28,12,13
 254 -374 254 -374 185 -309 c 28,14,15
 100 -229 100 -229 100 -120 c 156,-1,16
 100 -11 100 -11 174 67 c 24,17,18
 251 148 251 148 369 148 c 24,0,1
EndSplineSet
Validated: 1
EndChar

StartChar: Lslash
Encoding: 321 321 170
Width: 1034
VWidth: 0
Flags: W
HStem: 0 149<329 928.562> 1042 20G<553 582> 1494 20G<219 292>
VStem: 182 147<149 607 902 1509.5>
LayerCount: 2
Fore
SplineSet
328 1434 m 18,0,-1
 328 902 l 1,1,-1
 511 1042 l 2,2,3
 541 1062 541 1062 565 1062 c 0,4,5
 599 1062 599 1062 619 1025 c 0,6,7
 634 997 634 997 634 978 c 0,8,9
 634 949 634 949 602 925 c 10,10,-1
 329 716 l 1,11,-1
 329 149 l 9,12,-1
 847 149 l 26,13,14
 934 149 934 149 934 79 c 0,15,16
 934 0 934 0 849 0 c 2,17,-1
 254 0 l 26,18,19
 182 0 182 0 182 89 c 2,20,-1
 182 607 l 1,21,-1
 17 482 l 2,22,23
 -21 453 -21 453 -50 453 c 0,24,25
 -78 453 -78 453 -98 478 c 0,26,27
 -120 506 -120 506 -120 528 c 0,28,29
 -120 567 -120 567 -70 605 c 2,30,-1
 182 794 l 1,31,-1
 182 1432 l 10,32,33
 182 1514 182 1514 256 1514 c 24,34,35
 328 1514 328 1514 328 1434 c 18,0,-1
EndSplineSet
Validated: 1
EndChar

StartChar: lslash
Encoding: 322 322 171
Width: 600
VWidth: 0
Flags: W
HStem: 0 146<325.485 460.715> 1491 20G<207 280.5>
VStem: 167 147<151.561 770 1048 1505>
LayerCount: 2
Fore
SplineSet
167 1424 m 2,0,1
 167 1511 167 1511 247 1511 c 24,2,3
 314 1511 314 1511 314 1426 c 2,4,5
 314 1426 314 1426 314 1048 c 1,6,7
 314 1048 314 1048 423 1118 c 2,8,9
 449 1136 449 1136 473 1136 c 0,10,11
 506 1136 506 1136 530 1100 c 0,12,13
 544 1079 544 1079 544 1058 c 0,14,15
 544 1024 544 1024 501 995 c 2,16,-1
 314 868 l 1,17,-1
 314 259 l 2,18,19
 314 146 314 146 382 146 c 0,20,21
 465 146 465 146 465 75 c 16,22,23
 465 0 465 0 387 0 c 24,24,25
 298 0 298 0 228 70 c 24,26,27
 167 131 167 131 167 225 c 18,28,-1
 167 770 l 1,29,-1
 50 694 l 2,30,31
 32 681 32 681 10 681 c 0,32,33
 -27 681 -27 681 -49 724 c 0,34,35
 -60 746 -60 746 -60 765 c 0,36,37
 -60 798 -60 798 -21 823 c 10,38,-1
 167 950 l 1,39,-1
 167 1424 l 2,0,1
EndSplineSet
Validated: 1
EndChar

StartChar: bracketleft
Encoding: 91 91 172
Width: 544
VWidth: 0
Flags: W
HStem: -153 141<296 439.825> 1515 146<296 439.88>
VStem: 150 294<-147.849 -15.7354 1519.06 1656.5> 150 146<-12 1515>
LayerCount: 2
Fore
SplineSet
150 1584 m 2,0,1
 150 1661 150 1661 224 1661 c 2,2,3
 224 1661 224 1661 367 1661 c 2,4,5
 444 1661 444 1661 444 1589 c 24,6,7
 444 1515 444 1515 369 1515 c 2,8,-1
 296 1515 l 9,9,-1
 296 -12 l 25,10,-1
 368 -12 l 2,11,12
 444 -12 444 -12 444 -80 c 24,13,14
 444 -153 444 -153 363 -153 c 2,15,-1
 220 -153 l 2,16,17
 150 -153 150 -153 150 -80 c 26,18,19
 150 -80 150 -80 150 1584 c 2,0,1
EndSplineSet
Validated: 1
EndChar

StartChar: bracketright
Encoding: 93 93 173
Width: 544
VWidth: 0
Flags: W
HStem: -153 141<104.175 248> 1515 146<104.12 248>
VStem: 100 294<-147.849 -15.7354 1519.06 1656.5> 248 146<-12 1515>
LayerCount: 2
Fore
SplineSet
394 1584 m 2,0,1
 394 1584 394 1584 394 -80 c 26,2,3
 394 -153 394 -153 324 -153 c 2,4,-1
 181 -153 l 2,5,6
 100 -153 100 -153 100 -80 c 24,7,8
 100 -12 100 -12 176 -12 c 2,9,-1
 248 -12 l 25,10,-1
 248 1515 l 17,11,-1
 175 1515 l 2,12,13
 100 1515 100 1515 100 1589 c 24,14,15
 100 1661 100 1661 177 1661 c 2,16,-1
 320 1661 l 2,17,18
 394 1661 394 1661 394 1584 c 2,0,1
EndSplineSet
Validated: 1
EndChar

StartChar: braceleft
Encoding: 123 123 174
Width: 644
VWidth: 0
Flags: W
HStem: -138 142<401.768 538.812> 695 145<104.312 240.593> 1529 146<403.112 537.061>
VStem: 247 147<14.4585 685.346 845.841 1517.96>
LayerCount: 2
Fore
SplineSet
463 1675 m 152,-1,1
 542 1675 542 1675 542 1606 c 0,2,3
 542 1538 542 1538 472 1529 c 0,4,5
 394 1518 394 1518 394 1445 c 26,6,-1
 394 914 l 2,7,8
 394 842 394 842 335 767 c 1,9,10
 390 716 390 716 390 626 c 2,11,12
 390 626 390 626 390 98 c 2,13,14
 390 14 390 14 471 4 c 0,15,16
 544 -5 544 -5 544 -71 c 0,17,18
 544 -138 544 -138 461 -138 c 24,19,20
 365 -138 365 -138 304 -68 c 24,21,22
 247 -3 247 -3 247 100 c 2,23,24
 247 100 247 100 247 619 c 2,25,26
 247 684 247 684 166 695 c 0,27,28
 100 704 100 704 100 768 c 24,29,30
 100 840 100 840 169 840 c 0,31,32
 247 840 247 840 247 912 c 26,33,-1
 247 1469 l 26,34,35
 247 1550 247 1550 317 1614 c 24,36,0
 384 1675 384 1675 463 1675 c 152,-1,1
EndSplineSet
Validated: 1
EndChar

StartChar: braceright
Encoding: 125 125 175
Width: 644
VWidth: 0
Flags: W
HStem: -138 142<105.25 243.124> 695 145<402.486 539.75> 1529 146<106.939 241.516>
VStem: 250 148<14.4585 685.651 845.841 1520>
LayerCount: 2
Fore
SplineSet
181 1675 m 24,0,1
 261 1675 261 1675 328 1614 c 24,2,3
 398 1550 398 1550 398 1469 c 26,4,-1
 398 912 l 26,5,6
 398 840 398 840 476 840 c 0,7,8
 544 840 544 840 544 768 c 24,9,10
 544 704 544 704 478 695 c 0,11,12
 396 684 396 684 396 619 c 2,13,-1
 396 100 l 2,14,15
 396 -3 396 -3 340 -68 c 24,16,17
 280 -138 280 -138 184 -138 c 24,18,19
 100 -138 100 -138 100 -71 c 0,20,21
 100 -5 100 -5 173 4 c 0,22,23
 255 14 255 14 255 98 c 2,24,-1
 255 626 l 2,25,26
 255 716 255 716 309 767 c 1,27,28
 250 842 250 842 250 914 c 2,29,-1
 250 1445 l 26,30,31
 250 1519 250 1519 172 1529 c 0,32,33
 102 1538 102 1538 102 1606 c 0,34,35
 102 1675 102 1675 181 1675 c 24,0,1
EndSplineSet
Validated: 1
EndChar

StartChar: exclam
Encoding: 33 33 176
Width: 450
VWidth: 2456
Flags: W
HStem: 7 221<160.547 288.556>
VStem: 150 150<13.0699 220.812 468.219 1513.89>
LayerCount: 2
Fore
SplineSet
150 117.5 m 128,-1,1
 150 228 150 228 221 228 c 0,2,3
 300 228 300 228 300 113 c 0,4,5
 300 7 300 7 225 7 c 128,-1,0
 150 7 150 7 150 117.5 c 128,-1,1
225 463 m 128,-1,7
 150 463 150 463 150 558 c 26,8,-1
 150 1427 l 2,9,10
 150 1519 150 1519 225 1519 c 152,-1,11
 300 1519 300 1519 300 1426 c 26,12,-1
 300 558 l 2,13,6
 300 463 300 463 225 463 c 128,-1,7
EndSplineSet
Validated: 1
EndChar

StartChar: question
Encoding: 63 63 177
Width: 951
VWidth: 2456
Flags: W
HStem: 0 221<410.125 531.312> 1291 132<103.254 249.304> 1364 146<273.533 657.108>
VStem: 400 142<5.31152 214.903 459.732 827.457> 702 149<1097.86 1319.01>
LayerCount: 2
Fore
SplineSet
136 1423 m 0,0,1
 320 1510 320 1510 550 1510 c 0,2,3
 688 1510 688 1510 777 1406 c 0,4,5
 851 1320 851 1320 851 1206 c 24,6,7
 851 1082 851 1082 765 1000 c 2,8,-1
 584 826 l 2,9,10
 544 788 544 788 544 729 c 26,11,-1
 544 539 l 2,12,13
 544 456 544 456 472 456 c 152,-1,14
 400 456 400 456 400 534 c 2,15,-1
 400 738 l 26,16,17
 400 846 400 846 471 913 c 2,18,-1
 670 1109 l 2,19,20
 702 1141 702 1141 702 1194 c 0,21,22
 702 1364 702 1364 520 1364 c 0,23,24
 402 1364 402 1364 224 1303 c 0,25,26
 190 1291 190 1291 170 1291 c 0,27,28
 170 1291 170 1291 168 1291 c 0,29,30
 100 1291 100 1291 100 1364 c 8,31,32
 100 1406 100 1406 136 1423 c 0,0,1
400 111 m 0,33,34
 400 221 400 221 466 221 c 1,35,36
 542 221 542 221 542 110 c 0,37,38
 542 0 542 0 472 0 c 0,39,40
 400 0 400 0 400 111 c 0,33,34
EndSplineSet
Validated: 1
EndChar

StartChar: ampersand
Encoding: 38 38 178
Width: 1258
VWidth: 0
Flags: W
HStem: 0 150<288.386 518.834> 1366 149<373.387 587.369>
VStem: 100 153<185.808 424.586> 180 145<1097.84 1317.92> 636 147<1100.37 1316.93>
LayerCount: 2
Fore
SplineSet
689 324 m 1,0,1
 547 547 547 547 469 670 c 1,2,-1
 290 415 l 2,3,4
 253 361 253 361 253 305 c 0,5,6
 253 150 253 150 415 150 c 0,7,8
 461 150 461 150 516 192 c 2,9,-1
 689 324 l 1,0,1
475 934 m 1,10,-1
 607 1122 l 2,11,12
 636 1163 636 1163 636 1219 c 0,13,14
 636 1272 636 1272 589 1320 c 0,15,16
 544 1366 544 1366 481 1366 c 0,17,18
 415 1366 415 1366 371 1320 c 0,19,20
 325 1272 325 1272 325 1217 c 0,21,22
 325 1169 325 1169 357 1118 c 26,23,-1
 475 934 l 1,10,-1
475 1515 m 0,24,25
 606 1515 606 1515 705 1416 c 0,26,27
 783 1338 783 1338 783 1224 c 0,28,29
 783 1120 783 1120 745 1064 c 2,30,-1
 561 801 l 9,31,-1
 806 414 l 25,32,-1
 1037 585 l 2,33,34
 1063 604 1063 604 1086 604 c 0,35,36
 1158 604 1158 604 1158 527 c 0,37,38
 1158 494 1158 494 1114 460 c 2,39,-1
 887 286 l 9,40,-1
 994 119 l 18,41,42
 1007 97 1007 97 1007 73 c 0,43,44
 1007 0 1007 0 934 0 c 0,45,46
 898 0 898 0 876 35 c 2,47,-1
 770 197 l 9,48,-1
 574 54 l 26,49,50
 503 0 503 0 401 0 c 0,51,52
 281 0 281 0 213 67 c 0,53,54
 100 178 100 178 100 318 c 0,55,56
 100 403 100 403 168 493 c 2,57,-1
 385 804 l 9,58,-1
 209 1082 l 2,59,60
 180 1129 180 1129 180 1222 c 0,61,62
 180 1357 180 1357 295 1450 c 0,63,64
 375 1515 375 1515 475 1515 c 0,24,25
EndSplineSet
Validated: 2049
EndChar

StartChar: quotedbl
Encoding: 34 34 179
Width: 801
VWidth: 0
Flags: W
HStem: 1054 448
VStem: 100 601
LayerCount: 2
Fore
SplineSet
556 1740 m 2,0,1
 571 1804 571 1804 620 1804 c 0,2,3
 701 1804 701 1804 701 1742 c 0,4,5
 701 1719 701 1719 693 1684 c 2,6,-1
 630 1424 l 2,7,8
 614 1356 614 1356 566 1356 c 16,9,10
 485 1356 485 1356 485 1423 c 0,11,12
 485 1443 485 1443 489 1457 c 10,13,-1
 556 1740 l 2,0,1
176 1740 m 2,14,15
 192 1803 192 1803 245 1803 c 0,16,17
 323 1803 323 1803 323 1734 c 0,18,19
 323 1724 323 1724 317 1700 c 2,20,-1
 246 1420 l 2,21,22
 230 1356 230 1356 178 1356 c 0,23,24
 100 1356 100 1356 100 1421 c 0,25,26
 100 1437 100 1437 105 1457 c 10,27,-1
 176 1740 l 2,14,15
EndSplineSet
Validated: 1
EndChar

StartChar: quotesingle
Encoding: 39 39 180
Width: 417
VWidth: 0
Flags: W
HStem: 1059 446<179.641 237.12>
VStem: 172 145<1380.66 1500.27>
LayerCount: 2
Fore
SplineSet
172 1745 m 2,0,1
 189 1812 189 1812 242 1812 c 0,2,3
 317 1812 317 1812 317 1747 c 0,4,5
 317 1723 317 1723 311 1699 c 2,6,-1
 246 1436 l 2,7,8
 228 1366 228 1366 172 1366 c 0,9,10
 100 1366 100 1366 100 1434 c 0,11,12
 100 1456 100 1456 110 1497 c 10,13,-1
 172 1745 l 2,0,1
EndSplineSet
Validated: 1
EndChar

StartChar: numbersign
Encoding: 35 35 181
Width: 1256
VWidth: 0
Flags: W
HStem: 460 147<106 325 473 783 931 1150.77> 914 149<105.25 325 472 783 931 1151.88> 1495 20G<361.5 434.5>
VStem: 325 148<8.72412 460 607 914 1064 1510.12> 783 148<11.9268 460 607 914 1063 1513.12>
LayerCount: 2
Fore
SplineSet
783 607 m 25,0,-1
 783 914 l 25,1,-1
 472 914 l 25,2,-1
 472 607 l 25,3,-1
 783 607 l 25,0,-1
325 1437 m 10,4,5
 325 1515 325 1515 398 1515 c 152,-1,6
 471 1515 471 1515 471 1434 c 18,7,-1
 471 1063 l 1,8,-1
 783 1063 l 1,9,-1
 783 1440 l 2,10,11
 783 1518 783 1518 861 1518 c 0,12,13
 931 1518 931 1518 931 1436 c 18,14,-1
 931 1062 l 1,15,-1
 1082 1062 l 2,16,17
 1156 1062 1156 1062 1156 989 c 0,18,19
 1156 914 1156 914 1081 914 c 18,20,-1
 931 914 l 1,21,-1
 931 605 l 1,22,-1
 1078 605 l 2,23,24
 1155 605 1155 605 1155 534 c 0,25,26
 1155 460 1155 460 1081 460 c 18,27,-1
 929 460 l 1,28,-1
 929 89 l 2,29,30
 929 6 929 6 851 6 c 0,31,32
 783 6 783 6 783 90 c 18,33,-1
 783 460 l 1,34,-1
 473 460 l 1,35,-1
 473 89 l 2,36,37
 473 4 473 4 398 4 c 16,38,39
 325 4 325 4 325 90 c 18,40,-1
 325 460 l 1,41,-1
 181 460 l 2,42,43
 101 460 101 460 101 537 c 0,44,45
 101 604 101 604 182 604 c 18,46,-1
 325 604 l 1,47,-1
 325 914 l 1,48,-1
 184 914 l 2,49,50
 100 914 100 914 100 991 c 0,51,52
 100 1064 100 1064 185 1064 c 18,53,-1
 325 1064 l 1,54,-1
 325 1437 l 10,4,5
EndSplineSet
Validated: 1
EndChar

StartChar: dollar
Encoding: 36 36 182
Width: 954
VWidth: 0
Flags: W
HStem: 0 21G<439 512> 1138 146<660.246 846.652>
VStem: 100 145<957.57 1173.85> 402 146<4.39453 151 309 628 884 1198 1357 1502.83> 707 147<339.231 554.631>
LayerCount: 2
Fore
SplineSet
707 462 m 0,0,1
 707 561 707 561 548 628 c 1,2,-1
 548 297 l 17,3,4
 707 297 707 297 707 462 c 0,0,1
402 884 m 1,5,6
 402 884 402 884 402 1209 c 1,7,8
 245 1209 245 1209 245 1054 c 0,9,10
 245 957 245 957 402 884 c 1,5,6
100 1063 m 16,11,12
 100 1184 100 1184 175 1260 c 0,13,14
 270 1357 270 1357 402 1357 c 9,15,-1
 402 1431 l 2,16,17
 402 1507 402 1507 476 1507 c 0,18,19
 548 1507 548 1507 548 1421 c 2,20,-1
 548 1349 l 9,21,22
 680 1332 680 1332 795 1284 c 0,23,24
 853 1260 853 1260 853 1210 c 0,25,26
 853 1152 853 1152 788 1138 c 0,27,28
 769 1134 769 1134 732 1149 c 0,29,30
 610 1198 610 1198 548 1198 c 9,31,-1
 548 798 l 17,32,33
 616 768 616 768 718 702 c 16,34,35
 854 614 854 614 854 452 c 0,36,37
 854 332 854 332 775 250 c 16,38,39
 680 151 680 151 548 151 c 1,40,-1
 548 81 l 10,41,42
 548 0 548 0 476 0 c 0,43,44
 402 0 402 0 402 80 c 2,45,-1
 402 162 l 17,46,47
 202 190 202 190 135 233 c 0,48,49
 100 255 100 255 100 298 c 0,50,51
 100 369 100 369 172 369 c 0,52,53
 191 369 191 369 222 358 c 0,54,55
 326 321 326 321 402 309 c 9,56,-1
 402 715 l 1,57,58
 238 787 238 787 175 860 c 24,59,60
 100 947 100 947 100 1063 c 16,11,12
EndSplineSet
Validated: 2049
EndChar

StartChar: slash
Encoding: 47 47 183
Width: 1006
VWidth: 2456
Flags: W
HStem: 0 21G<169 230> 1490 20G<781 840>
VStem: 130 149<6.67529 62> 730 146<1447 1502.56>
LayerCount: 2
Fore
SplineSet
130 67 m 0,0,1
 130 89 130 89 148 130 c 26,2,-1
 730 1447 l 2,3,4
 758 1510 758 1510 804 1510 c 0,5,6
 876 1510 876 1510 876 1442 c 0,7,8
 876 1416 876 1416 866 1391 c 10,9,-1
 279 62 l 2,10,11
 252 0 252 0 208 0 c 0,12,13
 130 0 130 0 130 67 c 0,0,1
EndSplineSet
Validated: 1
EndChar

StartChar: colon
Encoding: 58 58 184
Width: 455
VWidth: 0
Flags: W
HStem: 167 218<159.844 290.098> 772 217<160.266 293.098>
VStem: 150 152<173.75 377.098 778.688 982>
LayerCount: 2
Fore
SplineSet
150 275 m 0,0,1
 150 385 150 385 220 385 c 0,2,3
 302 385 302 385 302 273 c 0,4,5
 302 167 302 167 224 167 c 0,6,7
 150 167 150 167 150 275 c 0,0,1
150 879 m 0,8,9
 150 989 150 989 223 989 c 0,10,11
 305 989 305 989 305 877 c 0,12,13
 305 772 305 772 227 772 c 0,14,15
 150 772 150 772 150 879 c 0,8,9
EndSplineSet
Validated: 1
EndChar

StartChar: semicolon
Encoding: 59 59 185
Width: 522
VWidth: 0
Flags: W
HStem: 719 218<228.984 360.098>
VStem: 219 153<215.35 323.652 725.75 929.098>
LayerCount: 2
Fore
SplineSet
222 263 m 2,0,1
 239 330 239 330 292 330 c 0,2,3
 367 330 367 330 367 265 c 0,4,5
 367 241 367 241 361 217 c 2,6,-1
 296 -46 l 2,7,8
 278 -116 278 -116 222 -116 c 0,9,10
 150 -116 150 -116 150 -48 c 0,11,12
 150 -26 150 -26 160 15 c 10,13,-1
 222 263 l 2,0,1
219 827 m 0,14,15
 219 937 219 937 290 937 c 0,16,17
 372 937 372 937 372 825 c 0,18,19
 372 719 372 719 294 719 c 0,20,21
 219 719 219 719 219 827 c 0,14,15
EndSplineSet
Validated: 1
EndChar

StartChar: backslash
Encoding: 92 92 186
Width: 946
VWidth: 2456
Flags: W
HStem: 0 21G<746 807> 1490 20G<136 195>
VStem: 100 146<1447 1502.56> 697 149<6.67529 62>
LayerCount: 2
Fore
SplineSet
846 67 m 0,0,1
 846 0 846 0 768 0 c 0,2,3
 724 0 724 0 697 62 c 2,4,-1
 110 1391 l 18,5,6
 100 1416 100 1416 100 1442 c 0,7,8
 100 1510 100 1510 172 1510 c 0,9,10
 218 1510 218 1510 246 1447 c 2,11,-1
 828 130 l 26,12,13
 846 89 846 89 846 67 c 0,0,1
EndSplineSet
Validated: 1
EndChar

StartChar: less
Encoding: 60 60 187
Width: 952
VWidth: 0
Flags: W
HStem: 298 144<792 847.254>
LayerCount: 2
Fore
SplineSet
792 442 m 2,0,1
 852 419 852 419 852 375 c 0,2,3
 852 298 852 298 787 298 c 0,4,5
 763 298 763 298 744 304 c 2,6,-1
 169 521 l 26,7,8
 100 547 100 547 100 597 c 0,9,10
 100 650 100 650 177 679 c 2,11,-1
 737 889 l 18,12,13
 761 898 761 898 784 898 c 0,14,15
 850 898 850 898 850 819 c 0,16,17
 850 774 850 774 782 749 c 2,18,-1
 382 596 l 1,19,-1
 792 442 l 2,0,1
EndSplineSet
Validated: 1
EndChar

StartChar: greater
Encoding: 62 62 188
Width: 952
VWidth: 0
Flags: W
HStem: 297 144<104.746 160>
LayerCount: 2
Fore
SplineSet
160 441 m 2,0,-1
 570 595 l 1,1,-1
 170 748 l 2,2,3
 102 773 102 773 102 818 c 0,4,5
 102 897 102 897 168 897 c 0,6,7
 191 897 191 897 215 888 c 10,8,-1
 775 678 l 2,9,10
 852 649 852 649 852 596 c 0,11,12
 852 546 852 546 783 520 c 26,13,-1
 208 303 l 2,14,15
 189 297 189 297 165 297 c 0,16,17
 100 297 100 297 100 374 c 0,18,19
 100 418 100 418 160 441 c 2,0,-1
EndSplineSet
Validated: 1
EndChar

StartChar: at
Encoding: 64 64 189
Width: 1660
VWidth: 0
Flags: W
HStem: -220 147<539.5 822.625> 232 148<722.159 941.784 1160.69 1340.68> 1145 147<723.775 985> 1602 147<626.861 1046>
VStem: 150 147<202.109 1281.4> 533 142<429.47 1097.25> 985 143<421.528 1145> 1363 147<401.667 1286.75>
LayerCount: 2
Fore
SplineSet
985 1145 m 1,0,1
 985 1145 985 1145 852 1145 c 26,2,3
 675 1145 675 1145 675 954 c 2,4,5
 675 954 675 954 675 588 c 2,6,7
 675 380 675 380 835 380 c 0,8,9
 985 380 985 380 985 582 c 2,10,11
 985 582 985 582 985 1145 c 1,0,1
718 -220 m 0,12,13
 536 -220 536 -220 368 -85 c 24,14,15
 150 90 150 90 150 440 c 2,16,17
 150 440 150 440 150 1044 c 2,18,19
 150 1392 150 1392 402 1591 c 24,20,21
 602 1749 602 1749 846 1749 c 0,22,23
 1073 1749 1073 1749 1268 1587 c 24,24,25
 1510 1386 1510 1386 1510 1039 c 2,26,27
 1510 1039 1510 1039 1510 538 c 2,28,29
 1510 393 1510 393 1456 332 c 0,30,31
 1368 232 1368 232 1249 232 c 0,32,33
 1142 232 1142 232 1052 328 c 1,34,35
 957 232 957 232 826 232 c 0,36,37
 754 232 754 232 680 274 c 0,38,39
 533 358 533 358 533 547 c 2,40,-1
 533 975 l 2,41,42
 533 1120 533 1120 621.5 1206 c 128,-1,43
 710 1292 710 1292 869 1292 c 2,44,-1
 1038 1292 l 1,45,46
 1128 1292 1128 1292 1128 1206 c 2,47,-1
 1128 569 l 2,48,49
 1128 380 1128 380 1247 380 c 0,50,51
 1363 380 1363 380 1363 522 c 2,52,-1
 1363 1071 l 2,53,54
 1363 1306 1363 1306 1188 1464 c 0,55,56
 1035 1602 1035 1602 844 1602 c 0,57,58
 638 1602 638 1602 478 1466 c 0,59,60
 297 1312 297 1312 297 1061 c 2,61,-1
 297 426 l 2,62,63
 297 194 297 194 453 35 c 0,64,65
 559 -73 559 -73 742 -73 c 0,66,67
 828 -73 828 -73 828 -152 c 0,68,69
 828 -220 828 -220 718 -220 c 0,12,13
EndSplineSet
Validated: 1
EndChar

StartChar: asciicircum
Encoding: 94 94 190
Width: 798
VWidth: 0
Flags: W
HStem: 1435 372
VStem: 100 598<1435 1531>
LayerCount: 2
Fore
SplineSet
557 1471 m 2,0,1
 557 1471 557 1471 402 1629 c 1,2,-1
 244 1476 l 2,3,4
 202 1435 202 1435 173 1435 c 16,5,6
 100 1435 100 1435 100 1500 c 0,7,8
 100 1531 100 1531 134 1566 c 10,9,-1
 332 1770 l 2,10,11
 368 1807 368 1807 402 1807 c 24,12,13
 430 1807 430 1807 467 1770 c 26,14,-1
 662 1574 l 2,15,16
 698 1538 698 1538 698 1502 c 0,17,18
 698 1435 698 1435 622 1435 c 0,19,20
 591 1435 591 1435 557 1471 c 2,0,1
EndSplineSet
Validated: 1
EndChar

StartChar: underscore
Encoding: 95 95 191
Width: 952
VWidth: 0
Flags: W
HStem: -144 144<104.065 847.5>
LayerCount: 2
Fore
SplineSet
172 0 m 18,0,1
 172 0 172 0 780 0 c 10,2,3
 852 0 852 0 852 -77 c 24,4,5
 852 -144 852 -144 777 -144 c 2,6,-1
 174 -144 l 10,7,8
 100 -144 100 -144 100 -68 c 24,9,10
 100 0 100 0 172 0 c 18,0,1
EndSplineSet
Validated: 1
EndChar

StartChar: grave
Encoding: 96 96 192
Width: 646
VWidth: 0
Flags: W
HStem: 1391 374
VStem: 100 446
LayerCount: 2
Fore
SplineSet
229 1727 m 2,0,1
 229 1727 229 1727 510 1516 c 26,2,3
 546 1490 546 1490 546 1453 c 0,4,5
 546 1378 546 1378 478 1378 c 0,6,7
 452 1378 452 1378 423 1398 c 2,8,9
 423 1398 423 1398 138 1613 c 2,10,11
 100 1641 100 1641 100 1673 c 0,12,13
 100 1752 100 1752 176 1752 c 0,14,15
 197 1752 197 1752 229 1727 c 2,0,1
EndSplineSet
Validated: 1
EndChar

StartChar: asciitilde
Encoding: 126 126 193
Width: 954
VWidth: 0
Flags: W
HStem: 649 144<541.127 712.178> 798 144<236.873 416.021>
LayerCount: 2
Fore
SplineSet
702 826 m 0,0,1
 736 865 736 865 785 865 c 0,2,3
 854 865 854 865 854 790 c 0,4,5
 854 765 854 765 817 730 c 0,6,7
 732 649 732 649 625 649 c 0,8,9
 533 649 533 649 468 710 c 0,10,11
 374 798 374 798 322 798 c 0,12,13
 291 798 291 798 246 761 c 128,-1,14
 201 724 201 724 171 724 c 0,15,16
 100 724 100 724 100 806 c 0,17,18
 100 828 100 828 134 858 c 0,19,20
 228 942 228 942 324 942 c 0,21,22
 423 942 423 942 519 856 c 0,23,24
 589 793 589 793 625 793 c 0,25,26
 673 793 673 793 702 826 c 0,0,1
EndSplineSet
Validated: 1
EndChar

StartChar: bar
Encoding: 124 124 194
Width: 452
VWidth: 2456
Flags: W
VStem: 150 152<-221.085 1740.25>
LayerCount: 2
Fore
SplineSet
220 -228 m 24,0,1
 150 -228 150 -228 150 -130 c 26,2,-1
 150 1654 l 2,3,4
 150 1746 150 1746 227 1746 c 24,5,6
 302 1746 302 1746 302 1653 c 26,7,-1
 302 -133 l 2,8,9
 302 -228 302 -228 220 -228 c 24,0,1
EndSplineSet
Validated: 1
EndChar

StartChar: uni0304
Encoding: 772 772 202
Width: 1006
VWidth: 0
Flags: W
HStem: 1822 144<4.1748 901.77>
LayerCount: 2
Fore
SplineSet
76 1592 m 22,0,1
 76 1592 76 1592 828 1592 c 14,2,3
 906 1592 906 1592 906 1522 c 28,4,5
 906 1448 906 1448 829 1448 c 6,6,-1
 74 1448 l 14,7,8
 0 1448 0 1448 0 1524 c 28,9,10
 0 1592 0 1592 76 1592 c 22,0,1
EndSplineSet
Validated: 1
EndChar

StartChar: alpha
Encoding: 945 945 204
Width: 1245
VWidth: 0
Flags: W
HStem: 3 154<320.552 537.881 976.552 1109.78> 912 153<321.258 540.907>
VStem: 130 153<196.894 874.867> 892 151<1011 1060.24>
LayerCount: 2
Fore
SplineSet
892 1011 m 2,0,1
 914 1065 914 1065 963 1065 c 0,2,3
 1043 1065 1043 1065 1043 991 c 0,4,5
 1043 966 1043 966 1020 915 c 2,6,-1
 851 514 l 1,7,-1
 950 256 l 2,8,9
 988 154 988 154 1041 154 c 0,10,11
 1115 154 1115 154 1115 78 c 0,12,13
 1115 3 1115 3 1042 3 c 0,14,15
 890 3 890 3 829 159 c 2,16,-1
 768 313 l 1,17,-1
 716 195 l 2,18,19
 631 3 631 3 428 3 c 0,20,21
 324 3 324 3 231 78 c 0,22,23
 130 161 130 161 130 338 c 2,24,-1
 130 755 l 2,25,26
 130 880 130 880 213 971 c 0,27,28
 299 1065 299 1065 435 1065 c 0,29,30
 642 1065 642 1065 720 858 c 2,31,-1
 772 721 l 1,32,-1
 892 1011 l 2,0,1
689 521 m 1,33,-1
 589 787 l 2,34,35
 542 912 542 912 433 912 c 0,36,37
 283 912 283 912 283 738 c 1,38,-1
 283 334 l 1,39,40
 283 157 283 157 433 157 c 0,41,42
 535 157 535 157 584 273 c 2,43,-1
 689 521 l 1,33,-1
EndSplineSet
Validated: 1
EndChar

StartChar: tau
Encoding: 964 964 205
Width: 1184
VWidth: 0
Flags: W
HStem: 0 152<669.429 848.062> 908 155<105.856 480 633 1078.44>
VStem: 480 153<199.172 908>
LayerCount: 2
Fore
SplineSet
633 908 m 25,0,-1
 633 338 l 18,1,2
 633 235 633 235 667 198 c 0,3,4
 710 152 710 152 759 152 c 0,5,6
 854 152 854 152 854 76 c 128,-1,7
 854 0 854 0 755 0 c 0,8,9
 640 0 640 0 553 102 c 24,10,11
 480 188 480 188 480 321 c 18,12,13
 480 321 480 321 480 908 c 25,14,-1
 183 908 l 2,15,16
 100 908 100 908 100 985.5 c 128,-1,17
 100 1063 100 1063 192 1063 c 26,18,-1
 995 1063 l 2,19,20
 1084 1063 1084 1063 1084 988 c 24,21,22
 1084 908 1084 908 1001 908 c 18,23,-1
 633 908 l 25,0,-1
EndSplineSet
Validated: 1
EndChar

StartChar: beta
Encoding: 946 946 206
Width: 1209
VWidth: 0
Flags: W
HStem: 0 145<610.395 814.982> 757 148<612.875 784.468> 1364 147<397.258 781.07>
VStem: 150 153<-453.09 1268.3> 836 146<952.324 1308.55> 910 149<242.75 664.613>
LayerCount: 2
Fore
SplineSet
887 843 m 1,0,1
 953 811 953 811 1000 731 c 24,2,3
 1059 631 1059 631 1059 551 c 18,4,-1
 1059 357 l 2,5,6
 1059 227 1059 227 953 110 c 24,7,8
 853 0 853 0 686 0 c 0,9,10
 606 0 606 0 606 75 c 24,11,12
 606 145 606 145 693 145 c 0,13,14
 772 145 772 145 833 204 c 0,15,16
 910 279 910 279 910 374 c 2,17,-1
 910 536 l 2,18,19
 910 601 910 601 866 665 c 0,20,21
 803 757 803 757 686 757 c 0,22,23
 608 757 608 757 608 834 c 0,24,25
 608 905 608 905 683 905 c 0,26,27
 737 905 737 905 786 946 c 0,28,29
 836 988 836 988 836 1061 c 2,30,31
 836 1061 836 1061 836 1200 c 2,32,33
 836 1268 836 1268 785 1316 c 128,-1,34
 734 1364 734 1364 674 1364 c 2,35,-1
 543 1364 l 2,36,37
 438 1364 438 1364 372 1299 c 0,38,39
 303 1231 303 1231 303 1144 c 2,40,-1
 303 -362 l 26,41,42
 303 -461 303 -461 218 -461 c 0,43,44
 150 -461 150 -461 150 -361 c 2,45,-1
 150 1135 l 2,46,47
 150 1295 150 1295 256 1398 c 0,48,49
 372 1511 372 1511 522 1511 c 2,50,-1
 691 1511 l 2,51,52
 810 1511 810 1511 910 1409 c 24,53,54
 982 1336 982 1336 982 1215 c 2,55,-1
 982 1045 l 2,56,57
 982 922 982 922 887 843 c 1,0,1
EndSplineSet
Validated: 1
EndChar

StartChar: gamma
Encoding: 947 947 207
Width: 1114
VWidth: 0
Flags: W
HStem: -456 151<524.163 747.011> 906 148<108.035 230.895>
VStem: 334 147<-260.815 187.866> 792 147<-260.387 184.996>
LayerCount: 2
Fore
SplineSet
100 986 m 0,0,1
 100 1054 100 1054 168 1054 c 0,2,3
 196 1054 196 1054 232 1037 c 0,4,5
 420 948 420 948 611 732 c 1,6,7
 703 873 703 873 870 1024 c 0,8,9
 903 1054 903 1054 935 1054 c 0,10,11
 1014 1054 1014 1054 1014 986 c 8,12,13
 1014 954 1014 954 964 906 c 0,14,15
 804 752 804 752 706 607 c 1,16,17
 829 428 829 428 888 214 c 0,18,19
 939 29 939 29 939 -126 c 0,20,21
 939 -277 939 -277 864 -358 c 8,22,23
 774 -456 774 -456 633 -456 c 24,24,25
 497 -456 497 -456 414 -360 c 16,26,27
 334 -265 334 -265 334 -104 c 0,28,29
 334 54 334 54 390 249 c 0,30,31
 451 461 451 461 527 594 c 1,32,33
 359 804 359 804 156 906 c 0,34,35
 100 934 100 934 100 986 c 0,0,1
625 452 m 1,36,37
 481 148 481 148 481 -106 c 24,38,39
 481 -305 481 -305 634 -305 c 24,40,41
 792 -305 792 -305 792 -106 c 24,42,43
 792 179 792 179 625 452 c 1,36,37
EndSplineSet
Validated: 1
EndChar

StartChar: delta
Encoding: 948 948 208
Width: 1018
VWidth: 0
Flags: W
HStem: -3 149<376.763 646.051> 1366 148<364.717 807.791>
VStem: 130 151<244.967 818.421> 209 148<1217.42 1356.33> 735 153<233.9 812.375>
LayerCount: 2
Fore
SplineSet
130 696 m 18,0,1
 130 816 130 816 223 931 c 0,2,3
 282 1004 282 1004 388 1037 c 1,4,-1
 276 1123 l 2,5,6
 209 1173 209 1173 209 1290 c 0,7,8
 209 1377 209 1377 282 1451 c 0,9,10
 344 1514 344 1514 439 1514 c 2,11,-1
 726 1514 l 2,12,13
 814 1514 814 1514 814 1433 c 24,14,15
 814 1366 814 1366 721 1366 c 2,16,-1
 458 1366 l 2,17,18
 357 1366 357 1366 357 1287 c 0,19,20
 357 1245 357 1245 393 1221 c 26,21,-1
 732 988 l 2,22,23
 888 880 888 880 888 668 c 2,24,-1
 888 358 l 2,25,26
 888 212 888 212 779 106 c 24,27,28
 667 -3 667 -3 521 -3 c 24,29,30
 354 -3 354 -3 239 106 c 24,31,32
 130 210 130 210 130 370 c 2,33,-1
 130 696 l 18,0,1
281 684 m 2,34,-1
 281 365 l 26,35,36
 281 266 281 266 384 184 c 0,37,38
 432 146 432 146 514 146 c 0,39,40
 591 146 591 146 656 198 c 0,41,42
 735 261 735 261 735 373 c 2,43,-1
 735 686 l 26,44,45
 735 784 735 784 654 851 c 0,46,47
 589 905 589 905 507 905 c 0,48,49
 447 905 447 905 390 872 c 8,50,51
 281 809 281 809 281 684 c 2,34,-1
EndSplineSet
Validated: 1
EndChar

StartChar: epsilon
Encoding: 949 949 209
Width: 959
VWidth: 0
Flags: W
HStem: 0 147<291.565 669.051> 452 152<312.237 546.111> 906 148<293.38 680.785>
VStem: 100 152<186.225 407.219 647.566 864.613>
LayerCount: 2
Fore
SplineSet
791 986 m 16,0,1
 851 963 851 963 858 920 c 0,2,3
 861 899 861 899 849 873 c 0,4,5
 831 833 831 833 786 833 c 0,6,7
 761 833 761 833 726 846 c 0,8,9
 565 906 565 906 432 906 c 0,10,11
 253 906 253 906 253 747 c 0,12,13
 253 604 253 604 464 604 c 0,14,15
 551 604 551 604 551 528 c 152,-1,16
 551 452 551 452 462 452 c 0,17,18
 350 452 350 452 311 421 c 0,19,20
 252 374 252 374 252 314 c 0,21,22
 252 147 252 147 419 147 c 0,23,24
 546 147 546 147 725 210 c 0,25,26
 762 223 762 223 795 223 c 0,27,28
 825 223 825 223 842 199.5 c 128,-1,29
 859 176 859 176 859 144 c 0,30,31
 859 98 859 98 793 71 c 0,32,33
 622 0 622 0 433 0 c 0,34,35
 289 0 289 0 200 75 c 0,36,37
 100 159 100 159 100 296 c 0,38,39
 100 438 100 438 201 530 c 1,40,41
 100 624 100 624 100 770 c 0,42,43
 100 869 100 869 173 954 c 0,44,45
 259 1054 259 1054 423 1054 c 0,46,47
 617 1054 617 1054 791 986 c 16,0,1
EndSplineSet
Validated: 1
EndChar

StartChar: zeta
Encoding: 950 950 210
Width: 961
VWidth: 0
Flags: W
HStem: -456 153<566.25 703.801> 0 150<300.839 701.43> 1141 153<258.45 545>
VStem: 103 150<196.944 445.36 1298.83 1513.88> 710 151<-298.52 -7.19824>
LayerCount: 2
Fore
SplineSet
100 1438 m 2,0,1
 100 1520 100 1520 176 1520 c 0,2,3
 251 1520 251 1520 251 1437 c 2,4,-1
 251 1382 l 2,5,6
 251 1294 251 1294 329 1294 c 2,7,-1
 681 1294 l 26,8,9
 786 1294 786 1294 786 1214 c 0,10,11
 786 1185 786 1185 732 1124 c 0,12,13
 463 820 463 820 297 445 c 0,14,15
 253 346 253 346 253 295 c 0,16,17
 253 230 253 230 312 184 c 0,18,19
 356 150 356 150 417 150 c 10,20,-1
 627 150 l 2,21,22
 739 150 739 150 804 75 c 0,23,24
 861 9 861 9 861 -74 c 2,25,-1
 861 -216 l 2,26,27
 861 -331 861 -331 787 -398 c 0,28,29
 723 -456 723 -456 645 -456 c 0,30,31
 561 -456 561 -456 561 -383 c 24,32,33
 561 -303 561 -303 641 -303 c 0,34,35
 710 -303 710 -303 710 -221 c 2,36,-1
 710 -91 l 2,37,38
 710 0 710 0 626 0 c 26,39,-1
 421 0 l 2,40,41
 279 0 279 0 196 82 c 0,42,43
 103 174 103 174 103 301 c 0,44,45
 103 371 103 371 149 483 c 0,46,47
 280 802 280 802 545 1141 c 9,48,-1
 334 1141 l 2,49,50
 215 1141 215 1141 149 1227 c 0,51,52
 100 1291 100 1291 100 1368 c 10,53,-1
 100 1438 l 2,0,1
EndSplineSet
Validated: 1
EndChar

StartChar: eta
Encoding: 951 951 211
Width: 1155
VWidth: 0
Flags: W
HStem: 0 21G<250 326.5> 910 153<65 202.226 453.045 725.647>
VStem: 208 153<7.27734 814.562> 817 148<-447.438 814.429>
LayerCount: 2
Fore
SplineSet
327 956 m 1,0,1
 436 1063 436 1063 594 1063 c 24,2,3
 747 1063 747 1063 864 946 c 0,4,5
 965 845 965 845 965 711 c 2,6,7
 965 711 965 711 965 -364 c 26,8,9
 965 -453 965 -453 897 -453 c 24,10,11
 817 -453 817 -453 817 -364 c 2,12,13
 817 -364 817 -364 817 698 c 26,14,15
 817 779 817 779 735 857 c 16,16,17
 679 910 679 910 587 910 c 0,18,19
 497 910 497 910 441 855 c 0,20,21
 361 777 361 777 361 676 c 26,22,-1
 361 92 l 26,23,24
 361 0 361 0 292 0 c 24,25,26
 208 0 208 0 208 92 c 2,27,-1
 208 826 l 2,28,29
 208 910 208 910 135 910 c 0,30,31
 60 910 60 910 60 989 c 0,32,33
 60 1060 60 1060 140 1060 c 24,34,35
 266 1060 266 1060 327 956 c 1,0,1
EndSplineSet
Validated: 1
EndChar

StartChar: theta
Encoding: 952 952 212
Width: 1140
VWidth: 0
Flags: W
HStem: 0 152<390.719 668.693> 453 157<-72.125 138.575> 837 150<448.925 755 908 1054.28> 1368 149<445.817 688.968>
VStem: 151 146<247.956 441.118> 225 153<1058.39 1301.33> 759 149<251.461 837 987 1294.99>
LayerCount: 2
Fore
SplineSet
755 987 m 1,0,1
 755 987 755 987 755 1193 c 18,2,3
 755 1252 755 1252 705 1309 c 0,4,5
 653 1368 653 1368 560 1368 c 0,6,7
 487 1368 487 1368 427 1306 c 0,8,9
 378 1255 378 1255 378 1174 c 0,10,11
 378 1098 378 1098 438 1041 c 0,12,13
 495 987 495 987 579 987 c 10,14,-1
 755 987 l 1,0,1
759 837 m 1,15,-1
 540 837 l 2,16,17
 432 837 432 837 320 944 c 0,18,19
 225 1035 225 1035 225 1179 c 0,20,21
 225 1302 225 1302 328 1423 c 0,22,23
 408 1517 408 1517 563 1517 c 0,24,25
 717 1517 717 1517 822 1407 c 0,26,27
 908 1317 908 1317 908 1193 c 2,28,-1
 908 985 l 9,29,-1
 971 985 l 2,30,31
 1060 985 1060 985 1060 910 c 24,32,33
 1060 837 1060 837 979 837 c 2,34,-1
 908 837 l 9,35,-1
 908 410 l 2,36,37
 908 210 908 210 781 96 c 0,38,39
 674 0 674 0 533 0 c 128,-1,40
 392 0 392 0 290 85 c 0,41,42
 151 201 151 201 151 361 c 0,43,44
 151 453 151 453 46 453 c 0,45,46
 -80 453 -80 453 -80 526 c 24,47,48
 -80 610 -80 610 19 610 c 0,49,50
 166 610 166 610 230 545 c 0,51,52
 297 477 297 477 297 388 c 0,53,54
 297 269 297 269 394 194 c 0,55,56
 448 152 448 152 540 152 c 0,57,58
 633 152 633 152 691 218 c 0,59,60
 759 295 759 295 759 426 c 26,61,-1
 759 837 l 1,15,-1
EndSplineSet
Validated: 1
EndChar

StartChar: iota
Encoding: 953 953 213
Width: 903
VWidth: 0
Flags: W
HStem: 0 149<378.886 646.046> 1042 20G<169.5 247.5>
VStem: 130 156<243.867 1056.62>
LayerCount: 2
Fore
SplineSet
130 976 m 2,0,1
 130 1062 130 1062 209 1062 c 0,2,3
 286 1062 286 1062 286 977 c 2,4,5
 286 977 286 977 286 419 c 2,6,7
 286 297 286 297 340 231 c 0,8,9
 407 149 407 149 510 149 c 0,10,11
 604 149 604 149 671 213 c 0,12,13
 696 237 696 237 734 237 c 0,14,15
 803 237 803 237 803 165 c 0,16,17
 803 128 803 128 765 93 c 0,18,19
 665 0 665 0 516 0 c 24,20,21
 360 0 360 0 249 106 c 0,22,23
 130 220 130 220 130 426 c 26,24,-1
 130 976 l 2,0,1
EndSplineSet
Validated: 1
EndChar

StartChar: kappa
Encoding: 954 954 214
Width: 996
VWidth: 0
Flags: W
HStem: 0 145<757.005 891.646> 906 148<-5.331 130.93>
VStem: 137 154<5.64453 301 540 902.242>
LayerCount: 2
Fore
SplineSet
64 906 m 0,0,1
 -10 906 -10 906 -10 984 c 0,2,3
 -10 1054 -10 1054 75 1054 c 0,4,5
 164 1054 164 1054 230 985 c 0,6,7
 291 921 291 921 291 823 c 2,8,-1
 291 540 l 9,9,-1
 680 1021 l 18,10,11
 708 1054 708 1054 747 1054 c 0,12,13
 822 1054 822 1054 822 986 c 0,14,15
 822 954 822 954 795 922 c 2,16,-1
 514 576 l 1,17,-1
 757 184 l 2,18,19
 782 145 782 145 825 145 c 0,20,21
 896 145 896 145 896 69 c 0,22,23
 896 0 896 0 805 0 c 0,24,25
 692 0 692 0 624 112 c 2,26,-1
 417 454 l 9,27,-1
 292 301 l 25,28,-1
 292 80 l 2,29,30
 292 0 292 0 219 0 c 24,31,32
 137 0 137 0 137 77 c 2,33,34
 137 77 137 77 137 830 c 26,35,36
 137 906 137 906 64 906 c 0,0,1
EndSplineSet
Validated: 1
EndChar

StartChar: lambda
Encoding: 955 955 215
Width: 1112
VWidth: 0
Flags: W
HStem: 0 148<872.594 1006.56> 1365 146<182.285 320.218>
VStem: 100 156<7.91699 65>
LayerCount: 2
Fore
SplineSet
862 213 m 2,0,1
 885 148 885 148 941 148 c 0,2,3
 1012 148 1012 148 1012 65 c 0,4,5
 1012 0 1012 0 925 0 c 24,6,7
 777 0 777 0 717 169 c 2,8,9
 717 169 717 169 524 718 c 9,10,-1
 256 65 l 18,11,12
 229 0 229 0 180 0 c 0,13,14
 100 0 100 0 100 67 c 8,15,16
 100 89 100 89 112 120 c 2,17,-1
 450 947 l 1,18,-1
 330 1297 l 2,19,20
 307 1365 307 1365 256 1365 c 0,21,22
 178 1365 178 1365 178 1440 c 0,23,24
 178 1511 178 1511 263 1511 c 0,25,26
 414 1511 414 1511 465 1361 c 26,27,-1
 862 213 l 2,0,1
EndSplineSet
Validated: 1
EndChar

StartChar: mu
Encoding: 956 956 216
Width: 1124
VWidth: 0
Flags: W
HStem: 0 146<399.585 671.338 918.738 1059.44> 1034 20G<189.5 266 802.5 876.5>
VStem: 150 153<-456.441 68 240.746 1048.81> 764 148<242.745 1051.94>
LayerCount: 2
Fore
SplineSet
150 971 m 2,0,1
 150 1054 150 1054 229 1054 c 0,2,3
 303 1054 303 1054 303 963 c 2,4,5
 303 963 303 963 303 384 c 26,6,7
 303 280 303 280 370 215 c 16,8,9
 441 146 441 146 536 146 c 128,-1,10
 631 146 631 146 688 205 c 8,11,12
 764 284 764 284 764 376 c 26,13,-1
 764 976 l 26,14,15
 764 1057 764 1057 841 1057 c 0,16,17
 912 1057 912 1057 912 968 c 2,18,-1
 912 225 l 26,19,20
 912 148 912 148 994 148 c 0,21,22
 1064 148 1064 148 1064 74 c 128,-1,23
 1064 0 1064 0 981 0 c 0,24,25
 863 0 863 0 797 102 c 1,26,27
 703 0 703 0 533 0 c 0,28,29
 408 0 408 0 305 68 c 9,30,-1
 305 -381 l 26,31,32
 305 -461 305 -461 225 -461 c 24,33,34
 150 -461 150 -461 150 -378 c 26,35,-1
 150 971 l 2,0,1
EndSplineSet
Validated: 1
EndChar

StartChar: AE
Encoding: 198 198 218
Width: 1564
VWidth: 0
Flags: W
HStem: 0 148<1005 1459.39> 378 152<399 863> 765 145<1005 1379.04> 1366 148<680 863 1005 1457.06>
VStem: 863 142<148 378 530 765 910 1366>
LayerCount: 2
Fore
SplineSet
863 1366 m 25,0,1
 863 1366 863 1366 680 1366 c 25,2,-1
 399 530 l 25,3,-1
 863 530 l 25,4,5
 863 530 863 530 863 1366 c 25,0,1
561 1461 m 2,6,7
 579 1514 579 1514 630 1514 c 10,8,9
 630 1514 630 1514 1383 1514 c 26,10,11
 1462 1514 1462 1514 1462 1439 c 0,12,13
 1462 1372 1462 1372 1384 1372 c 26,14,15
 1384 1372 1384 1372 1005 1372 c 25,16,17
 1005 1372 1005 1372 1005 910 c 25,18,-1
 1312 910 l 26,19,20
 1383 910 1383 910 1383 834 c 24,21,22
 1383 765 1383 765 1311 765 c 26,23,-1
 1005 765 l 25,24,25
 1005 765 1005 765 1005 148 c 25,26,-1
 1382 148 l 26,27,28
 1464 148 1464 148 1464 76 c 24,29,30
 1464 0 1464 0 1380 0 c 26,31,32
 1380 0 1380 0 926 0 c 26,33,34
 863 0 863 0 863 75 c 26,35,-1
 863 378 l 25,36,37
 863 378 863 378 352 378 c 25,38,-1
 246 68 l 26,39,40
 223 0 223 0 171 0 c 0,41,42
 147 0 147 0 124 16 c 0,43,44
 100 33 100 33 100 73 c 0,45,46
 100 94 100 94 116 144 c 26,47,48
 116 144 116 144 561 1461 c 2,6,7
EndSplineSet
Validated: 1
EndChar

StartChar: ae
Encoding: 230 230 219
Width: 1308
VWidth: 0
Flags: W
HStem: 0 144<295.564 556 754.472 1153.5> 454 146<295.345 556 703 1009> 909 145<179.828 503.626 748.901 966.072>
VStem: 100 148<187.934 404.278> 556 144<195.714 454 600 857.384> 1009 149<600 853.714>
LayerCount: 2
Fore
SplineSet
556 454 m 1,0,1
 556 454 556 454 394 454 c 18,2,3
 333 454 333 454 285 401 c 0,4,5
 248 360 248 360 248 293 c 0,6,7
 248 225 248 225 294 186 c 0,8,9
 344 144 344 144 400 144 c 10,10,-1
 556 144 l 17,11,-1
 556 454 l 1,0,1
703 600 m 1,12,-1
 1009 600 l 9,13,-1
 1009 753 l 18,14,15
 1009 814 1009 814 975 855 c 0,16,17
 929 909 929 909 855 909 c 0,18,19
 796 909 796 909 752 869 c 0,20,21
 703 824 703 824 703 763 c 10,22,-1
 703 600 l 1,12,-1
255 1054 m 26,23,-1
 402 1054 l 18,24,25
 535 1054 535 1054 629 949 c 1,26,27
 718 1054 718 1054 862 1054 c 0,28,29
 987 1054 987 1054 1084 953 c 0,30,31
 1158 876 1158 876 1158 743 c 10,32,-1
 1158 538 l 26,33,34
 1158 454 1158 454 1095 454 c 26,35,-1
 700 454 l 9,36,-1
 700 319 l 18,37,38
 700 236 700 236 753 188 c 0,39,40
 800 145 800 145 861 145 c 10,41,-1
 1064 145 l 26,42,43
 1158 145 1158 145 1158 72 c 24,44,45
 1158 0 1158 0 1066 0 c 26,46,-1
 844 0 l 18,47,48
 750 0 750 0 696 47 c 1,49,50
 681 0 681 0 626 0 c 26,51,-1
 379 0 l 18,52,53
 282 0 282 0 190 86 c 0,54,55
 100 170 100 170 100 290 c 0,56,57
 100 432 100 432 185 509 c 0,58,59
 280 595 280 595 368 595 c 10,60,-1
 556 595 l 9,61,-1
 556 750 l 18,62,63
 556 807 556 807 515 854 c 0,64,65
 467 909 467 909 404 909 c 10,66,-1
 256 909 l 26,67,68
 176 909 176 909 176 981.5 c 152,-1,69
 176 1054 176 1054 255 1054 c 26,23,-1
EndSplineSet
Validated: 2049
EndChar

StartChar: oslash
Encoding: 248 248 222
Width: 1117
VWidth: 0
Flags: W
HStem: 8 142<431.056 693.004> 919 144<426.518 690.699>
VStem: 184 143<408 824.457> 792 141<247.732 663>
LayerCount: 2
Fore
SplineSet
792 663 m 17,0,-1
 373 245 l 1,1,2
 398 215 398 215 437 190 c 0,3,4
 499 150 499 150 565 150 c 0,5,6
 629 150 629 150 694 194 c 0,7,8
 792 260 792 260 792 403 c 2,9,-1
 792 663 l 17,0,-1
547 1063 m 0,10,11
 716 1063 716 1063 821 958 c 0,12,13
 836 943 836 943 849 928 c 1,14,-1
 954 1032 l 2,15,16
 983 1061 983 1061 1014 1061 c 0,17,18
 1087 1061 1087 1061 1087 993 c 0,19,20
 1087 957 1087 957 1058 928 c 2,21,-1
 923 794 l 1,22,23
 933 759 933 759 933 722 c 2,24,-1
 933 374 l 2,25,26
 933 206 933 206 812 100 c 0,27,28
 707 8 707 8 558 8 c 0,29,30
 401 8 401 8 305 104 c 0,31,32
 286 123 286 123 270 143 c 1,33,-1
 158 31 l 2,34,35
 130 4 130 4 98 4 c 0,36,37
 30 4 30 4 30 72 c 1,38,39
 30 112 30 112 60 142 c 2,40,-1
 198 279 l 1,41,42
 184 328 184 328 184 379 c 2,43,-1
 184 706 l 2,44,45
 184 867 184 867 323 980 c 0,46,47
 425 1063 425 1063 547 1063 c 0,10,11
407 862 m 0,48,49
 327 803 327 803 327 679 c 2,50,-1
 327 408 l 1,51,-1
 744 823 l 1,52,53
 732 839 732 839 717 853 c 0,54,55
 646 919 646 919 565 919 c 0,56,57
 485 919 485 919 407 862 c 0,48,49
EndSplineSet
Validated: 2049
EndChar

StartChar: Oslash
Encoding: 216 216 223
Width: 1211
VWidth: 0
Flags: W
HStem: 0 148<443.939 762.316> 1367 148<445.736 759.619>
VStem: 152 147<519 1226.36> 910 145<298.641 987>
LayerCount: 2
Fore
SplineSet
152 1088 m 2,0,1
 152 1254 152 1254 283 1384 c 0,2,3
 415 1515 415 1515 605 1515 c 0,4,5
 787 1515 787 1515 917 1385 c 0,6,7
 957 1345 957 1345 986 1302 c 1,8,-1
 1058 1384 l 2,9,10
 1098 1431 1098 1431 1140 1431 c 0,11,12
 1211 1431 1211 1431 1211 1367 c 0,13,14
 1211 1330 1211 1330 1194 1310 c 2,15,-1
 1048 1144 l 1,16,17
 1055 1107 1055 1107 1055 1067 c 2,18,-1
 1055 456 l 2,19,20
 1055 260 1055 260 918 127 c 0,21,22
 787 0 787 0 598 0 c 0,23,24
 417 0 417 0 287 127 c 0,25,26
 249 164 249 164 221 204 c 1,27,-1
 156 130 l 2,28,29
 108 75 108 75 73 75 c 0,30,31
 0 75 0 75 0 144 c 0,32,33
 0 179 0 179 25 207 c 2,34,-1
 158 358 l 1,35,36
 152 392 152 392 152 428 c 2,37,-1
 152 1088 l 2,0,1
910 987 m 1,38,-1
 324 320 l 1,39,40
 349 270 349 270 399 225 c 0,41,42
 485 148 485 148 594 148 c 0,43,44
 720 148 720 148 799 219 c 0,45,46
 910 319 910 319 910 452 c 2,47,-1
 910 987 l 1,38,-1
299 519 m 1,48,-1
 885 1187 l 1,49,50
 859 1247 859 1247 805 1291 c 0,51,52
 712 1367 712 1367 593 1367 c 0,53,54
 494 1367 494 1367 399 1290 c 0,55,56
 299 1209 299 1209 299 1064 c 2,57,-1
 299 519 l 1,48,-1
EndSplineSet
Validated: 2049
EndChar

StartChar: exclamdown
Encoding: 161 161 228
Width: 450
VWidth: 2456
Flags: W
LayerCount: 2
Fore
SplineSet
150 1408.5 m 128,-1,1
 150 1519 150 1519 225 1519 c 128,-1,2
 300 1519 300 1519 300 1413 c 0,3,4
 300 1298 300 1298 221 1298 c 0,5,0
 150 1298 150 1298 150 1408.5 c 128,-1,1
225 1063 m 128,-1,7
 300 1063 300 1063 300 968 c 2,8,-1
 300 100 l 26,9,10
 300 7 300 7 225 7 c 152,-1,11
 150 7 150 7 150 99 c 2,12,-1
 150 968 l 26,13,6
 150 1063 150 1063 225 1063 c 128,-1,7
EndSplineSet
Validated: 1
EndChar

StartChar: questiondown
Encoding: 191 191 229
Width: 951
VWidth: 2456
Flags: W
LayerCount: 2
Fore
SplineSet
815 87 m 0,0,1
 631 0 631 0 401 0 c 0,2,3
 263 0 263 0 174 104 c 0,4,5
 100 190 100 190 100 304 c 24,6,7
 100 428 100 428 186 510 c 2,8,-1
 367 684 l 2,9,10
 407 722 407 722 407 781 c 26,11,-1
 407 971 l 2,12,13
 407 1054 407 1054 479 1054 c 152,-1,14
 551 1054 551 1054 551 976 c 2,15,-1
 551 772 l 26,16,17
 551 664 551 664 480 597 c 2,18,-1
 281 401 l 2,19,20
 249 369 249 369 249 316 c 0,21,22
 249 146 249 146 431 146 c 0,23,24
 549 146 549 146 727 207 c 0,25,26
 761 219 761 219 781 219 c 0,27,28
 781 219 781 219 783 219 c 0,29,30
 851 219 851 219 851 146 c 8,31,32
 851 104 851 104 815 87 c 0,0,1
551 1399 m 0,33,34
 551 1289 551 1289 485 1289 c 1,35,36
 409 1289 409 1289 409 1400 c 0,37,38
 409 1510 409 1510 479 1510 c 0,39,40
 551 1510 551 1510 551 1399 c 0,33,34
EndSplineSet
Validated: 1
EndChar

StartChar: guillemotleft
Encoding: 171 171 241
Width: 1104
VWidth: 0
Flags: W
HStem: 1037 19G<462 513 917 968>
LayerCount: 2
Fore
SplineSet
982 281 m 2,0,1
 1004 254 1004 254 1004 225 c 0,2,3
 1004 153 1004 153 936 153 c 0,4,5
 899 153 899 153 874 185 c 2,6,-1
 573 553 l 26,7,8
 555 575 555 575 555 604 c 0,9,10
 555 634 555 634 580 665 c 2,11,-1
 872 1024 l 18,12,13
 899 1057 899 1057 935 1057 c 0,14,15
 1001 1057 1001 1057 1001 978 c 0,16,17
 1001 952 1001 952 970 914 c 2,18,-1
 721 607 l 1,19,-1
 982 281 l 2,0,1
527 280 m 2,20,21
 549 253 549 253 549 224 c 0,22,23
 549 152 549 152 481 152 c 0,24,25
 444 152 444 152 419 184 c 2,26,-1
 118 552 l 26,27,28
 100 574 100 574 100 603 c 0,29,30
 100 633 100 633 125 664 c 2,31,-1
 417 1023 l 18,32,33
 444 1056 444 1056 480 1056 c 0,34,35
 546 1056 546 1056 546 977 c 0,36,37
 546 951 546 951 515 913 c 2,38,-1
 266 606 l 1,39,-1
 527 280 l 2,20,21
EndSplineSet
Validated: 1
EndChar

StartChar: guillemotright
Encoding: 187 187 242
Width: 1104
VWidth: 0
Flags: W
LayerCount: 2
Fore
SplineSet
122 274 m 2,0,1
 122 274 122 274 383 600 c 1,2,-1
 134 907 l 2,3,4
 103 945 103 945 103 971 c 0,5,6
 103 1050 103 1050 169 1050 c 0,7,8
 205 1050 205 1050 232 1017 c 10,9,-1
 524 658 l 2,10,11
 549 627 549 627 549 597 c 0,12,13
 549 568 549 568 531 546 c 26,14,-1
 230 178 l 2,15,16
 205 146 205 146 168 146 c 0,17,18
 100 146 100 146 100 218 c 0,19,20
 100 247 100 247 122 274 c 2,0,1
577 273 m 2,21,22
 577 273 577 273 838 599 c 1,23,-1
 589 906 l 2,24,25
 558 944 558 944 558 970 c 0,26,27
 558 1049 558 1049 624 1049 c 0,28,29
 660 1049 660 1049 687 1016 c 10,30,-1
 979 657 l 2,31,32
 1004 626 1004 626 1004 596 c 0,33,34
 1004 567 1004 567 986 545 c 26,35,-1
 685 177 l 2,36,37
 660 145 660 145 623 145 c 0,38,39
 555 145 555 145 555 217 c 0,40,41
 555 246 555 246 577 273 c 2,21,22
EndSplineSet
Validated: 1
EndChar

StartChar: sterling
Encoding: 163 163 253
Width: 1157
VWidth: 0
Flags: W
HStem: 0 136<4.2588 185.688 328 863.862> 675 146<5.6692 232 375 674.122> 1361 144<467.306 744.143>
VStem: 232 143<194.355 675 821 1265.28> 836 148<1064.06 1262.34> 915 142<185.25 358.268>
LayerCount: 2
Fore
SplineSet
232 1104 m 18,0,1
 232 1301 232 1301 360 1414 c 0,2,3
 463 1505 463 1505 617 1505 c 0,4,5
 772 1505 772 1505 885 1384 c 0,6,7
 984 1278 984 1278 984 1140 c 0,8,9
 984 1059 984 1059 905 1059 c 24,10,11
 845 1059 845 1059 836 1148 c 0,12,13
 828 1223 828 1223 772 1290 c 0,14,15
 713 1361 713 1361 602 1361 c 0,16,17
 503 1361 503 1361 436 1288 c 0,18,19
 372 1218 372 1218 372 1074 c 10,20,-1
 372 821 l 25,21,-1
 573 821 l 26,22,23
 680 821 680 821 680 750 c 24,24,25
 680 675 680 675 573 675 c 26,26,-1
 375 675 l 9,27,-1
 375 318 l 18,28,29
 375 167 375 167 328 136 c 9,30,-1
 740 136 l 18,31,32
 829 136 829 136 865 177 c 0,33,34
 915 234 915 234 915 284 c 0,35,36
 915 362 915 362 987 362 c 0,37,38
 1057 362 1057 362 1057 286 c 0,39,40
 1057 181 1057 181 984 93 c 0,41,42
 908 0 908 0 769 0 c 10,43,-1
 72 0 l 26,44,45
 0 0 0 0 0 62 c 0,46,47
 0 140 0 140 89 140 c 0,48,49
 153 140 153 140 197 193 c 0,50,51
 232 236 232 236 232 325 c 2,52,-1
 232 675 l 25,53,-1
 86 675 l 26,54,55
 0 675 0 675 0 745 c 24,56,57
 0 821 0 821 85 821 c 26,58,-1
 232 821 l 9,59,-1
 232 1104 l 18,0,1
EndSplineSet
Validated: 1
EndChar

StartChar: cent
Encoding: 162 162 254
Width: 980
VWidth: 0
Flags: W
HStem: 0 148<320.666 515 662 874.562> 914 145<318.604 515 662 875.496>
VStem: 130 146<191.556 869.25> 515 147<-220.441 0 148 914 1059 1278.5>
LayerCount: 2
Fore
SplineSet
798 1059 m 2,0,1
 880 1059 880 1059 880 989 c 0,2,3
 880 914 880 914 798 914 c 2,4,-1
 662 914 l 1,5,-1
 662 148 l 1,6,-1
 793 148 l 2,7,8
 880 148 880 148 880 71 c 0,9,10
 880 0 880 0 797 0 c 2,11,-1
 662 0 l 1,12,-1
 662 -142 l 2,13,14
 662 -225 662 -225 590 -225 c 0,15,16
 515 -225 515 -225 515 -144 c 2,17,-1
 515 0 l 1,18,-1
 419 0 l 2,19,20
 299 0 299 0 212 92 c 0,21,22
 130 179 130 179 130 303 c 2,23,-1
 130 745 l 2,24,25
 130 884 130 884 210 964 c 0,26,27
 305 1059 305 1059 440 1059 c 2,28,-1
 515 1059 l 1,29,-1
 515 1201 l 2,30,31
 515 1283 515 1283 589 1283 c 0,32,33
 662 1283 662 1283 662 1202 c 2,34,-1
 662 1059 l 1,35,-1
 798 1059 l 2,0,1
515 148 m 1,36,-1
 515 914 l 1,37,-1
 454 914 l 2,38,39
 276 914 276 914 276 746 c 2,40,-1
 276 329 l 2,41,42
 276 148 276 148 444 148 c 2,43,-1
 515 148 l 1,36,-1
EndSplineSet
Validated: 1
EndChar

StartChar: Hbar
Encoding: 294 294 259
Width: 1295
VWidth: 0
Flags: W
HStem: 0 21G<227 300.5 993.5 1064.5> 760 144<337 958> 1368 143<-25.9351 190 337 958 1100 1319.81>
VStem: 190 147<4.1748 760 904 1368 1511 1884.93> 958 142<3.82812 760 904 1368 1511 1881.41>
LayerCount: 2
Fore
SplineSet
958 760 m 1,0,-1
 337 760 l 1,1,-1
 337 77 l 2,2,3
 337 0 337 0 264 0 c 0,4,5
 190 0 190 0 190 76 c 2,6,-1
 190 1368 l 1,7,-1
 44 1368 l 2,8,9
 -30 1368 -30 1368 -30 1444 c 0,10,11
 -30 1511 -30 1511 42 1511 c 2,12,-1
 190 1511 l 1,13,-1
 190 1804 l 2,14,15
 190 1889 190 1889 263.5 1889 c 128,-1,16
 337 1889 337 1889 337 1804 c 2,17,-1
 337 1511 l 1,18,-1
 958 1511 l 1,19,-1
 958 1810 l 2,20,21
 958 1885 958 1885 1029 1885 c 128,-1,22
 1100 1885 1100 1885 1100 1811 c 2,23,-1
 1100 1511 l 1,24,-1
 1242 1511 l 2,25,26
 1325 1511 1325 1511 1325 1434 c 0,27,28
 1325 1368 1325 1368 1239 1368 c 2,29,-1
 1100 1368 l 1,30,-1
 1100 80 l 2,31,32
 1100 0 1100 0 1029 0 c 128,-1,33
 958 0 958 0 958 78 c 2,34,-1
 958 760 l 1,0,-1
958 1368 m 1,35,-1
 337 1368 l 1,36,-1
 337 904 l 1,37,-1
 958 904 l 1,38,-1
 958 1368 l 1,35,-1
EndSplineSet
Validated: 1
EndChar

StartChar: hbar
Encoding: 295 295 260
Width: 1108
VWidth: 0
Flags: W
HStem: 916 144<343 759.948> 1377 144<-25.77 197 343 558.5>
VStem: 197 146<26.1149 916 1060 1377 1521 1894.11> 805 143<11 872.006>
LayerCount: 2
Fore
SplineSet
197 1810 m 2,0,1
 197 1899 197 1899 272 1899 c 0,2,3
 343 1899 343 1899 343 1814 c 2,4,-1
 343 1521 l 1,5,-1
 491 1521 l 2,6,7
 563 1521 563 1521 563 1444 c 0,8,9
 563 1377 563 1377 486 1377 c 2,10,-1
 343 1377 l 1,11,-1
 343 1060 l 1,12,-1
 653 1060 l 2,13,14
 772 1060 772 1060 870 967 c 0,15,16
 948 893 948 893 948 761 c 2,17,-1
 948 84 l 2,18,19
 948 6 948 6 882 6 c 0,20,21
 805 6 805 6 805 86 c 2,22,-1
 805 744 l 2,23,24
 805 916 805 916 629 916 c 2,25,-1
 343 916 l 1,26,-1
 343 87 l 2,27,28
 343 45 343 45 324 25.5 c 128,-1,29
 305 6 305 6 267 6 c 0,30,31
 197 6 197 6 197 92 c 2,32,-1
 197 1377 l 1,33,-1
 44 1377 l 2,34,35
 -30 1377 -30 1377 -30 1452 c 0,36,37
 -30 1521 -30 1521 47 1521 c 2,38,-1
 197 1521 l 1,39,-1
 197 1810 l 2,0,1
EndSplineSet
Validated: 1
EndChar

StartChar: nu
Encoding: 957 957 261
Width: 1108
VWidth: 0
Flags: W
HStem: 912 153<105.856 241.254> 1043 20G<900.5 971>
VStem: 858 150<798.658 1058.06>
LayerCount: 2
Fore
SplineSet
858 993 m 0,0,1
 867 1063 867 1063 934 1063 c 0,2,3
 1008 1063 1008 1063 1008 984 c 0,4,5
 1008 963 1008 963 996 901 c 0,6,7
 948 658 948 658 836 442 c 8,8,9
 730 237 730 237 579 75 c 0,10,11
 512 3 512 3 476 3 c 0,12,13
 416 3 416 3 403 82 c 24,14,15
 403 82 403 82 252 834 c 2,16,17
 236 912 236 912 183 912 c 0,18,19
 100 912 100 912 100 993 c 0,20,21
 100 1065 100 1065 180 1065 c 0,22,23
 356 1065 356 1065 397 864 c 2,24,-1
 525 239 l 1,25,26
 692 451 692 451 764 647 c 128,-1,27
 836 843 836 843 858 993 c 0,0,1
EndSplineSet
Validated: 1
EndChar

StartChar: omicron
Encoding: 959 959 262
Width: 1009
VWidth: 0
Flags: W
HStem: 8 142<376.774 639.004> 919 144<372.518 636.298>
VStem: 130 143<247.938 824.457> 738 141<247.732 817.52>
LayerCount: 2
Fore
SplineSet
353 862 m 0,0,1
 273 803 273 803 273 679 c 2,2,3
 273 679 273 679 273 372 c 2,4,5
 273 259 273 259 383 190 c 0,6,7
 447 150 447 150 511 150 c 128,-1,8
 575 150 575 150 640 194 c 0,9,10
 738 260 738 260 738 403 c 2,11,-1
 738 658 l 2,12,13
 738 785 738 785 663 853 c 0,14,15
 591 919 591 919 511 919 c 128,-1,16
 431 919 431 919 353 862 c 0,0,1
493 1063 m 0,17,18
 661 1063 661 1063 767 958 c 0,19,20
 879 847 879 847 879 722 c 2,21,-1
 879 374 l 2,22,23
 879 206 879 206 758 100 c 0,24,25
 653 8 653 8 504 8 c 24,26,27
 345 8 345 8 251 104 c 24,28,29
 130 227 130 227 130 379 c 2,30,-1
 130 706 l 2,31,32
 130 867 130 867 269 980 c 0,33,34
 371 1063 371 1063 493 1063 c 0,17,18
EndSplineSet
Validated: 1
EndChar

StartChar: xi
Encoding: 958 958 263
Width: 1111
VWidth: 0
Flags: W
HStem: -456 150<719 855.095> 0 146<402.319 857.359> 765 141<458 842.386> 1221 146<452.144 841.891> 1496 20G<137 211.5>
VStem: 104 152<287.955 607.199 1371.5 1509.04> 256 148<960.273 1172.5> 861 150<-302.179 -5.45312>
LayerCount: 2
Fore
SplineSet
796 146 m 10,0,1
 881 146 881 146 949 79 c 24,2,3
 1011 18 1011 18 1011 -64 c 26,4,-1
 1011 -228 l 26,5,6
 1011 -326 1011 -326 944 -391 c 152,-1,7
 877 -456 877 -456 784 -456 c 24,8,9
 714 -456 714 -456 714 -384 c 0,10,11
 714 -306 714 -306 794 -306 c 0,12,13
 861 -306 861 -306 861 -217 c 10,14,-1
 861 -66 l 26,15,16
 861 0 861 0 779 0 c 26,17,-1
 546 0 l 2,18,19
 362 0 362 0 243 126 c 24,20,21
 104 273 104 273 104 420 c 10,22,-1
 104 478 l 2,23,24
 104 724 104 724 339 854 c 1,25,26
 256 930 256 930 256 1054 c 0,27,28
 256 1159 256 1159 297 1218 c 1,29,30
 190 1244 190 1244 143 1309 c 0,31,32
 100 1370 100 1370 100 1437 c 0,33,34
 100 1516 100 1516 174 1516 c 0,35,36
 249 1516 249 1516 249 1440 c 0,37,38
 249 1367 249 1367 331 1367 c 26,39,-1
 754 1367 l 2,40,41
 847 1367 847 1367 847 1296 c 24,42,43
 847 1221 847 1221 754 1221 c 26,44,-1
 630 1221 l 18,45,46
 498 1221 498 1221 449 1173 c 0,47,48
 404 1129 404 1129 404 1063 c 0,49,50
 404 1010 404 1010 451 956 c 0,51,52
 495 906 495 906 628 906 c 26,53,-1
 763 906 l 2,54,55
 847 906 847 906 847 840 c 24,56,57
 847 765 847 765 764 765 c 26,58,-1
 612 765 l 2,59,60
 435 765 435 765 350 674 c 0,61,62
 256 573 256 573 256 478 c 2,63,-1
 256 396 l 2,64,65
 256 320 256 320 362 218 c 0,66,67
 437 146 437 146 652 146 c 2,68,-1
 796 146 l 10,0,1
EndSplineSet
Validated: 1
EndChar

StartChar: Beta
Encoding: 914 914 264
Width: 1192
VWidth: 0
Flags: W
HStem: 0 139<304 774.557> 748 156<304 762.127> 1361 150<304 748.315>
VStem: 150 154<139 748 904 1361> 839 145<983.883 1267.45> 916 146<285.495 603.367>
LayerCount: 2
Fore
SplineSet
1062 460 m 0,0,1
 1062 240 1062 240 922.5 120 c 152,-1,2
 783 0 783 0 659 0 c 2,3,-1
 220 0 l 10,4,5
 150 0 150 0 150 91 c 2,6,-1
 150 1416 l 10,7,8
 150 1511 150 1511 243 1511 c 2,9,-1
 555 1511 l 2,10,11
 745 1511 745 1511 832 1434 c 24,12,13
 984 1299 984 1299 984 1132 c 256,14,15
 984 948 984 948 844 838 c 1,16,17
 937 784 937 784 999.5 683 c 128,-1,18
 1062 582 1062 582 1062 460 c 0,0,1
304 748 m 25,19,-1
 304 139 l 25,20,-1
 616 139 l 2,21,22
 752 139 752 139 834 233 c 128,-1,23
 916 327 916 327 916 441 c 256,24,25
 916 555 916 555 839 652 c 0,26,27
 763 748 763 748 619 748 c 10,28,-1
 304 748 l 25,19,-1
304 1361 m 9,29,-1
 304 904 l 1,30,-1
 609 904 l 2,31,32
 724 904 724 904 781.5 966.5 c 128,-1,33
 839 1029 839 1029 839 1122 c 256,34,35
 839 1216 839 1216 778 1288.5 c 128,-1,36
 717 1361 717 1361 605 1361 c 2,37,-1
 304 1361 l 9,29,-1
EndSplineSet
Validated: 2049
EndChar

StartChar: plusminus
Encoding: 177 177 265
Width: 952
VWidth: 0
Flags: W
HStem: 241 144<104.23 847.5> 808 143<104.614 409 554 847.276>
VStem: 409 142<510.559 808 951 1248.61>
LayerCount: 2
Fore
SplineSet
177 385 m 18,0,1
 177 385 177 385 780 385 c 10,2,3
 852 385 852 385 852 308 c 24,4,5
 852 241 852 241 775 241 c 2,6,-1
 174 241 l 10,7,8
 100 241 100 241 100 316 c 24,9,10
 100 385 100 385 177 385 c 18,0,1
409 1173 m 10,11,12
 409 1253 409 1253 483 1253 c 24,13,14
 554 1253 554 1253 554 1167 c 18,15,-1
 554 950 l 1,16,-1
 768 950 l 10,17,18
 852 950 852 950 852 877 c 24,19,20
 852 808 852 808 766 808 c 2,21,-1
 551 808 l 1,22,-1
 551 589 l 10,23,24
 551 506 551 506 484 506 c 24,25,26
 409 506 409 506 409 587 c 18,27,-1
 409 808 l 1,28,-1
 184 808 l 10,29,30
 100 808 100 808 100 882 c 24,31,32
 100 951 100 951 186 951 c 18,33,-1
 409 951 l 1,34,-1
 409 1173 l 10,11,12
EndSplineSet
Validated: 1
EndChar

StartChar: gcommaaccent
Encoding: 291 291 273
Width: 1029
VWidth: 0
Flags: W
LayerCount: 2
Fore
SplineSet
445 911 m 2,0,1
 375 911 375 911 324 867 c 0,2,3
 272 822 272 822 272 743 c 2,4,-1
 272 326 l 18,5,6
 272 236 272 236 316 189 c 0,7,8
 357 145 357 145 438 145 c 2,9,-1
 734 145 l 1,10,-1
 734 911 l 1,11,-1
 445 911 l 2,0,1
433 1057 m 2,12,13
 433 1057 433 1057 804 1057 c 26,14,15
 879 1057 879 1057 879 975 c 2,16,17
 879 975 879 975 879 -181 c 26,18,19
 879 -295 879 -295 794 -376 c 24,20,21
 710 -456 710 -456 594 -456 c 2,22,23
 594 -456 594 -456 281 -456 c 26,24,25
 203 -456 203 -456 203 -385 c 24,26,27
 203 -311 203 -311 285 -311 c 2,28,29
 285 -311 285 -311 537 -311 c 2,30,31
 731 -311 731 -311 731 -169 c 2,32,-1
 731 0 l 17,33,34
 731 0 731 0 407 0 c 26,35,36
 285 0 285 0 207 91 c 24,37,38
 130 181 130 181 130 306 c 2,39,40
 130 306 130 306 130 764 c 26,41,42
 130 887 130 887 214 969 c 24,43,44
 304 1057 304 1057 433 1057 c 2,12,13
555 1547 m 2,45,46
 572 1614 572 1614 625 1614 c 0,47,48
 700 1614 700 1614 700 1549 c 0,49,50
 700 1525 700 1525 694 1501 c 2,51,-1
 629 1238 l 2,52,53
 612 1168 612 1168 555 1168 c 0,54,55
 483 1168 483 1168 483 1236 c 0,56,57
 483 1259 483 1259 493 1299 c 10,58,-1
 555 1547 l 2,45,46
EndSplineSet
Validated: 2049
EndChar

StartChar: uniF6C3
Encoding: 63171 63171 274
Width: 417
VWidth: 0
Flags: W
LayerCount: 2
Fore
SplineSet
172 1745 m 6,0,1
 189 1812 189 1812 242 1812 c 4,2,3
 317 1812 317 1812 317 1747 c 4,4,5
 317 1723 317 1723 311 1699 c 6,6,-1
 246 1436 l 6,7,8
 228 1366 228 1366 172 1366 c 4,9,10
 100 1366 100 1366 100 1434 c 4,11,12
 100 1456 100 1456 110 1497 c 14,13,-1
 172 1745 l 6,0,1
EndSplineSet
Validated: 1
EndChar

StartChar: oe
Encoding: 339 339 283
Width: 1615
VWidth: 0
Flags: W
HStem: 0 142<376.774 639.994 925.307 1480.79> 461 143<880 1339> 908 146<365.839 640.339 978.506 1252.92>
VStem: 130 143<239.938 816.933> 733 145<233.822 461 604 807.501> 1339 143<604 819.402>
LayerCount: 2
Fore
SplineSet
733 684 m 10,0,1
 733 778 733 778 663 845 c 16,2,3
 597 908 597 908 494 908 c 0,4,5
 423 908 423 908 353 854 c 0,6,7
 273 792 273 792 273 671 c 2,8,-1
 273 364 l 2,9,10
 273 251 273 251 383 182 c 0,11,12
 447 142 447 142 511 142 c 0,13,14
 576 142 576 142 640 186 c 0,15,16
 733 250 733 250 733 380 c 2,17,-1
 733 684 l 10,0,1
880 604 m 1,18,-1
 1339 604 l 1,19,20
 1339 744 1339 744 1304 806 c 0,21,22
 1246 908 1246 908 1104 908 c 0,23,24
 1016 908 1016 908 938 828 c 0,25,26
 880 769 880 769 880 604 c 1,18,-1
878 461 m 17,27,-1
 878 316 l 2,28,29
 878 146 878 146 1051 146 c 2,30,-1
 1397 146 l 2,31,32
 1485 146 1485 146 1485 72 c 0,33,34
 1485 0 1485 0 1398 0 c 2,35,-1
 1030 0 l 2,36,37
 907 0 907 0 817 97 c 0,38,39
 804 111 804 111 792 126 c 1,40,41
 777 108 777 108 758 92 c 0,42,43
 649 0 649 0 504 0 c 0,44,45
 345 0 345 0 251 96 c 0,46,47
 130 219 130 219 130 371 c 2,48,-1
 130 698 l 2,49,50
 130 860 130 860 269 972 c 0,51,52
 371 1054 371 1054 493 1054 c 0,53,54
 657 1054 657 1054 767 950 c 0,55,56
 805 914 805 914 807 908 c 1,57,58
 822 927 822 927 864 966 c 0,59,60
 963 1058 963 1058 1112 1058 c 0,61,62
 1279 1058 1279 1058 1389 937 c 0,63,64
 1482 835 1482 835 1482 724 c 2,65,-1
 1482 534 l 2,66,67
 1482 461 1482 461 1415 461 c 2,68,-1
 878 461 l 17,27,-1
EndSplineSet
Validated: 2049
EndChar

StartChar: OE
Encoding: 338 338 284
Width: 1444
VWidth: 0
Flags: W
HStem: 5 144<419.511 710 854 1338.46> 764 140<854 1190.51> 1370 145<427.852 710 854 1340.12>
VStem: 130 147<289.002 1226.36> 710 144<149 764 904 1367>
LayerCount: 2
Fore
SplineSet
710 148 m 25,0,-1
 710 1367 l 25,1,-1
 571 1367 l 0,2,3
 472 1367 472 1367 377 1290 c 0,4,5
 277 1209 277 1209 277 1064 c 2,6,7
 277 1064 277 1064 277 423 c 18,8,9
 277 315 277 315 377 225 c 0,10,11
 464 148 464 148 572 148 c 0,12,-1
 710 148 l 25,0,-1
576 5 m 9,13,14
 399 5 399 5 265 127 c 16,15,16
 130 250 130 250 130 428 c 2,17,-1
 130 1088 l 18,18,19
 130 1254 130 1254 261 1384 c 16,20,21
 393 1515 393 1515 583 1515 c 26,22,-1
 1263 1515 l 2,23,24
 1344 1515 1344 1515 1344 1442 c 24,25,26
 1344 1370 1344 1370 1263 1370 c 18,27,-1
 854 1370 l 1,28,-1
 854 904 l 1,29,-1
 1121 904 l 10,30,31
 1194 904 1194 904 1194 832 c 0,32,33
 1194 764 1194 764 1123 764 c 18,34,-1
 854 764 l 1,35,-1
 854 149 l 1,36,-1
 1268 149 l 10,37,38
 1342 149 1342 149 1342 77 c 280,39,40
 1342 5 1342 5 1271 5 c 25,41,-1
 576 5 l 9,13,14
EndSplineSet
Validated: 1
EndChar

StartChar: Thorn
Encoding: 222 222 285
Width: 1030
VWidth: 0
Flags: W
HStem: 0 21G<187 260> 240 144<296 713.88> 1151 143<293 709.89>
VStem: 150 141<5.21851 240 384 1151 1294 1502.95> 757 143<426.5 1104>
LayerCount: 2
Fore
SplineSet
585 384 m 2,0,1
 757 384 757 384 757 554 c 2,2,-1
 757 983 l 2,3,4
 757 1060 757 1060 711.5 1105.5 c 128,-1,5
 666 1151 666 1151 593 1151 c 2,6,-1
 291 1151 l 1,7,-1
 291 384 l 1,8,-1
 585 384 l 2,0,1
296 240 m 25,9,-1
 296 95 l 26,10,11
 296 0 296 0 224 0 c 24,12,13
 150 0 150 0 150 95 c 26,14,-1
 150 1432 l 2,15,16
 150 1506 150 1506 219 1506 c 24,17,18
 293 1506 293 1506 293 1432 c 18,19,-1
 293 1294 l 1,20,-1
 623 1294 l 2,21,22
 750 1294 750 1294 843 1180 c 24,23,24
 900 1110 900 1110 900 1016 c 2,25,-1
 900 514 l 26,26,27
 900 396 900 396 814 318 c 152,-1,28
 728 240 728 240 599 240 c 2,29,-1
 296 240 l 25,9,-1
EndSplineSet
Validated: 1
EndChar

StartChar: thorn
Encoding: 254 254 286
Width: 1030
VWidth: 0
Flags: W
HStem: -456 21G<187 260> 4 144<296 713.381> 915 143<293 709.89>
VStem: 150 141<-450.781 4 148 915 1058 1433.95> 757 143<190.5 868>
LayerCount: 2
Fore
SplineSet
585 148 m 2,0,1
 757 148 757 148 757 318 c 2,2,-1
 757 747 l 2,3,4
 757 824 757 824 711.5 869.5 c 128,-1,5
 666 915 666 915 593 915 c 2,6,-1
 291 915 l 1,7,-1
 291 148 l 1,8,-1
 585 148 l 2,0,1
296 4 m 25,9,-1
 296 -361 l 26,10,11
 296 -456 296 -456 224 -456 c 24,12,13
 150 -456 150 -456 150 -361 c 26,14,-1
 150 1363 l 2,15,16
 150 1437 150 1437 219 1437 c 24,17,18
 293 1437 293 1437 293 1363 c 18,19,-1
 293 1058 l 1,20,-1
 623 1058 l 2,21,22
 750 1058 750 1058 843 944 c 24,23,24
 900 874 900 874 900 780 c 2,25,-1
 900 278 l 26,26,27
 900 161 900 161 814 82 c 24,28,29
 727 4 727 4 599 4 c 2,30,-1
 296 4 l 25,9,-1
EndSplineSet
Validated: 1
EndChar

StartChar: eth
Encoding: 240 240 287
Width: 1013
VWidth: 0
Flags: W
HStem: 0 141<374.377 644.543> 756 146<371.719 736> 1364 146<289.08 449.672>
VStem: 130 145<231.656 657.236> 740 143<243.519 756 902 1057.37>
LayerCount: 2
Fore
SplineSet
740 358 m 2,0,1
 740 358 740 358 740 756 c 1,2,-1
 506 756 l 2,3,4
 408 756 408 756 343 686 c 0,5,6
 275 613 275 613 275 514 c 2,7,-1
 275 362 l 2,8,9
 275 264 275 264 337 212 c 0,10,11
 421 141 421 141 505 141 c 0,12,13
 604 141 604 141 656 195 c 0,14,15
 740 282 740 282 740 358 c 2,0,1
576 1414 m 1,16,-1
 659 1500 l 2,17,18
 683 1525 683 1525 710 1525 c 0,19,20
 741 1525 741 1525 765 1496 c 0,21,22
 785 1472 785 1472 785 1450 c 0,23,24
 785 1423 785 1423 757 1394 c 2,25,-1
 687 1322 l 1,26,27
 883 1096 883 1096 883 865 c 2,28,-1
 883 343 l 2,29,30
 883 210 883 210 776 106 c 0,31,32
 667 0 667 0 526 0 c 0,33,34
 351 0 351 0 255 93 c 0,35,36
 130 214 130 214 130 343 c 2,37,-1
 130 545 l 2,38,39
 130 668 130 668 228 777 c 0,40,41
 340 902 340 902 508 902 c 2,42,-1
 736 902 l 1,43,44
 717 1085 717 1085 586 1217 c 1,45,-1
 501 1130 l 2,46,47
 478 1105 478 1105 449 1105 c 0,48,49
 419 1105 419 1105 396 1130 c 0,50,51
 374 1154 374 1154 374 1178 c 0,52,53
 374 1205 374 1205 402 1234 c 2,54,-1
 473 1307 l 1,55,56
 417 1339 417 1339 347 1364 c 0,57,58
 284 1386 284 1386 284 1432 c 0,59,60
 284 1510 284 1510 356 1510 c 128,-1,61
 428 1510 428 1510 576 1414 c 1,16,-1
EndSplineSet
Validated: 1
EndChar

StartChar: pi
Encoding: 960 960 288
Width: 1317
VWidth: 0
Flags: W
HStem: 0 147<209.875 346.955 973.316 1108.25> 906 154<136.491 357 505 811 961 1181.38>
VStem: 357 148<156.86 906> 811 150<155.25 906>
LayerCount: 2
Fore
SplineSet
222 906 m 26,0,1
 130 906 130 906 130 987 c 24,2,3
 130 1060 130 1060 227 1060 c 26,4,5
 227 1060 227 1060 1097 1060 c 26,6,7
 1187 1060 1187 1060 1187 982 c 24,8,9
 1187 906 1187 906 1103 906 c 26,10,11
 1103 906 1103 906 961 906 c 9,12,13
 961 906 961 906 961 256 c 26,14,15
 961 147 961 147 1037 147 c 128,-1,16
 1113 147 1113 147 1113 78 c 0,17,18
 1113 0 1113 0 1039 0 c 0,19,20
 811 0 811 0 811 276 c 26,21,-1
 811 906 l 9,22,-1
 505 906 l 25,23,-1
 505 257 l 18,24,25
 505 0 505 0 283 0 c 24,26,27
 205 0 205 0 205 67 c 0,28,29
 205 152 205 152 292 152 c 0,30,31
 357 152 357 152 357 256 c 26,32,-1
 357 906 l 25,33,-1
 222 906 l 26,0,1
EndSplineSet
Validated: 1
EndChar

StartChar: rho
Encoding: 961 961 289
Width: 1009
VWidth: 0
Flags: W
HStem: -456 21G<317 374.5> 0 148<483.207 644.293> 912 142<372.022 636.619>
VStem: 130 143<245.385 818.885> 352 151<-318.162 -2.55371> 738 141<245.734 809.91>
LayerCount: 2
Fore
SplineSet
352 -147 m 0,0,1
 352 -39 352 -39 271 58 c 0,2,3
 130 227 130 227 130 372 c 2,4,-1
 130 699 l 2,5,6
 130 863 130 863 269 973 c 0,7,8
 371 1054 371 1054 493 1054 c 0,9,10
 661 1054 661 1054 770 947 c 128,-1,11
 879 840 879 840 879 715 c 2,12,-1
 879 367 l 2,13,14
 879 208 879 208 758 93 c 0,15,16
 660 0 660 0 482 0 c 1,17,18
 503 -82 503 -82 503 -128 c 2,19,-1
 503 -178 l 2,20,21
 503 -299 503 -299 428 -410 c 0,22,23
 397 -456 397 -456 352 -456 c 16,24,25
 282 -456 282 -456 282 -387 c 0,26,27
 282 -345 282 -345 302 -326 c 0,28,29
 352 -278 352 -278 352 -147 c 0,0,1
352 855 m 0,30,31
 273 796 273 796 273 672 c 2,32,-1
 273 374 l 2,33,34
 273 268 273 268 370 192 c 1,35,36
 428 148 428 148 511 148 c 0,37,38
 591 148 591 148 640 187 c 0,39,40
 738 266 738 266 738 409 c 2,41,-1
 738 651 l 2,42,43
 738 777 738 777 663 846 c 0,44,45
 591 912 591 912 510 912 c 0,46,47
 428 912 428 912 352 855 c 0,30,31
EndSplineSet
Validated: 1
EndChar

StartChar: sigma
Encoding: 963 963 290
Width: 1216
VWidth: 0
Flags: W
HStem: 0 146<377.46 648.248> 903 155<370.387 658.234 818 962.337>
VStem: 130 153<241.777 816.511> 743 146<238.422 813.14> 969 147<1063.12 1203.61>
LayerCount: 2
Fore
SplineSet
897 1058 m 18,0,1
 969 1058 969 1058 969 1138 c 24,2,3
 969 1208 969 1208 1048 1208 c 0,4,5
 1116 1208 1116 1208 1116 1128 c 0,6,7
 1116 1017 1116 1017 1029 952 c 0,8,9
 963 903 963 903 818 903 c 1,10,11
 889 812 889 812 889 685 c 2,12,-1
 889 381 l 2,13,14
 889 203 889 203 768 92 c 0,15,16
 668 0 668 0 514 0 c 24,17,18
 363 0 363 0 261 93 c 24,19,20
 130 213 130 213 130 363 c 2,21,-1
 130 679 l 2,22,23
 130 854 130 854 269 972 c 0,24,25
 370 1058 370 1058 519 1058 c 10,26,-1
 897 1058 l 18,0,1
363 854 m 0,27,28
 283 795 283 795 283 671 c 2,29,-1
 283 364 l 2,30,31
 283 266 283 266 372 194 c 0,32,33
 431 146 431 146 508 146 c 128,-1,34
 585 146 585 146 650 191 c 0,35,36
 743 255 743 255 743 395 c 2,37,-1
 743 650 l 2,38,39
 743 775 743 775 673 845 c 0,40,41
 617 903 617 903 512 903 c 0,42,43
 431 903 431 903 363 854 c 0,27,28
EndSplineSet
Validated: 1
EndChar

StartChar: upsilon
Encoding: 965 965 291
Width: 1295
VWidth: 0
Flags: W
HStem: 0 149<503.779 921.024> 912 148<104.938 246.137>
VStem: 253 149<246.931 906.764> 1012 152<242.356 1054>
LayerCount: 2
Fore
SplineSet
179 912 m 0,0,1
 100 912 100 912 100 989 c 0,2,3
 100 1060 100 1060 188 1060 c 128,-1,4
 276 1060 276 1060 344 990 c 24,5,6
 402 930 402 930 402 836 c 26,7,-1
 402 402 l 18,8,9
 402 288 402 288 467 222 c 0,10,11
 540 149 540 149 651 149 c 2,12,-1
 777 149 l 18,13,14
 888 149 888 149 952 222 c 0,15,16
 1012 290 1012 290 1012 410 c 10,17,-1
 1012 972 l 26,18,19
 1012 1060 1012 1060 1092 1060 c 24,20,21
 1164 1060 1164 1060 1164 964 c 26,22,-1
 1164 390 l 26,23,24
 1164 225 1164 225 1055 112 c 24,25,26
 947 0 947 0 786 0 c 26,27,-1
 648 0 l 26,28,29
 473 0 473 0 368 104 c 24,30,31
 253 218 253 218 253 393 c 26,32,-1
 253 824 l 18,33,34
 253 912 253 912 179 912 c 0,0,1
EndSplineSet
Validated: 1
EndChar

StartChar: phi
Encoding: 966 966 292
Width: 1316
VWidth: 0
Flags: W
HStem: -456 21G<620.5 695.5> 0 152<463.25 585 737 842.09> 903 151<775.797 999.298>
VStem: 130 146<358.622 1052.75> 585 152<-448.944 8.1875 154 865.631> 1040 145<349.106 861.691>
LayerCount: 2
Fore
SplineSet
737 154 m 1,0,1
 874 191 874 191 956 290 c 24,2,3
 1040 391 1040 391 1040 521 c 26,4,-1
 1040 715 l 26,5,6
 1040 903 1040 903 886 903 c 24,7,8
 737 903 737 903 737 721 c 26,9,-1
 737 154 l 1,0,1
585 152 m 1,10,-1
 585 732 l 26,11,12
 585 872 585 872 668 960 c 24,13,14
 757 1054 757 1054 890 1054 c 0,15,16
 1027 1054 1027 1054 1110 964 c 24,17,18
 1185 883 1185 883 1185 734 c 26,19,-1
 1185 514 l 26,20,21
 1185 305 1185 305 1044 160 c 0,22,23
 914 26 914 26 735 0 c 9,24,-1
 735 -356 l 26,25,26
 735 -456 735 -456 656 -456 c 24,27,28
 585 -456 585 -456 585 -356 c 26,29,-1
 585 0 l 1,30,31
 422 27 422 27 320 114 c 0,32,33
 130 276 130 276 130 472 c 26,34,-1
 130 974 l 26,35,36
 130 1058 130 1058 207 1058 c 24,37,38
 276 1058 276 1058 276 968 c 26,39,-1
 276 542 l 26,40,41
 276 396 276 396 372 275 c 24,42,43
 448 179 448 179 585 152 c 1,10,-1
EndSplineSet
Validated: 1
EndChar

StartChar: chi
Encoding: 967 967 293
Width: 1114
VWidth: 0
Flags: W
HStem: 0 148<872.137 1009.17> 1367 153<105.25 243.268>
VStem: 781 156<1448 1505.34>
LayerCount: 2
Fore
SplineSet
559 957 m 25,0,-1
 781 1448 l 18,1,2
 813 1520 813 1520 854 1520 c 0,3,4
 882 1520 882 1520 904 1506 c 0,5,6
 937 1485 937 1485 937 1448 c 0,7,8
 937 1424 937 1424 922 1390 c 10,9,-1
 640 760 l 25,10,-1
 859 213 l 26,11,12
 885 148 885 148 933 148 c 0,13,14
 1014 148 1014 148 1014 74 c 128,-1,15
 1014 -0 1014 -0 926 0 c 0,16,17
 786 0 786 0 719 163 c 26,18,-1
 553 566 l 25,19,-1
 322 48 l 26,20,21
 302 3 302 3 253 3 c 0,22,23
 224 3 224 3 204 20 c 0,24,25
 179 42 179 42 179 76 c 0,26,27
 179 103 179 103 190 123 c 9,28,-1
 475 759 l 25,29,-1
 244 1329 l 26,30,31
 229 1367 229 1367 184 1367 c 0,32,33
 100 1367 100 1367 100 1443 c 24,34,35
 100 1520 100 1520 184 1520 c 0,36,37
 328 1520 328 1520 394 1360 c 26,38,-1
 559 957 l 25,0,-1
EndSplineSet
Validated: 1
EndChar

StartChar: psi
Encoding: 968 968 294
Width: 1322
VWidth: 0
Flags: W
HStem: -456 21G<621.5 698.5> 0 154<462.106 583 737 853.606> 1034 20G<169 244 1081 1156>
VStem: 130 150<358.445 1048.12> 587 150<-450.125 5.82422 157 1351.38> 1042 150<347.945 1048>
LayerCount: 2
Fore
SplineSet
587 154 m 9,0,-1
 587 1267 l 26,1,2
 587 1357 587 1357 664 1357 c 24,3,4
 737 1357 737 1357 737 1261 c 26,5,-1
 737 157 l 17,6,7
 859 180 859 180 932 256 c 0,8,9
 1042 370 1042 370 1042 528 c 26,10,-1
 1042 961 l 26,11,12
 1042 1054 1042 1054 1120 1054 c 24,13,14
 1192 1054 1192 1054 1192 958 c 26,15,-1
 1192 530 l 18,16,17
 1192 304 1192 304 1048 160 c 0,18,19
 914 26 914 26 737 0 c 25,20,-1
 737 -362 l 26,21,22
 737 -456 737 -456 660 -456 c 152,-1,23
 583 -456 583 -456 583 -358 c 26,24,-1
 583 0 l 25,25,26
 451 16 451 16 332 108 c 0,27,28
 130 264 130 264 130 538 c 26,29,-1
 130 960 l 26,30,31
 130 1054 130 1054 208 1054 c 24,32,33
 280 1054 280 1054 280 952 c 26,34,-1
 280 544 l 26,35,36
 280 382 280 382 398 252 c 0,37,38
 474 168 474 168 587 154 c 9,0,-1
EndSplineSet
Validated: 1
EndChar

StartChar: omega
Encoding: 969 969 295
Width: 1417
VWidth: 0
Flags: W
HStem: 0 151<345.211 585.163 829.04 1078.78> 1044 20G<265 326>
VStem: 100 145<254.031 719.768> 635 148<201.383 602.836> 1056 160<853.105 1048.99> 1165 152<246.702 747.434>
LayerCount: 2
Fore
SplineSet
1071 928 m 0,0,1
 1056 962 1056 962 1056 990 c 0,2,3
 1056 1065 1056 1065 1130 1065 c 0,4,5
 1188 1065 1188 1065 1216 968 c 24,6,7
 1317 618 1317 618 1317 408 c 24,8,9
 1317 235 1317 235 1223 128 c 0,10,11
 1111 0 1111 0 953 0 c 0,12,13
 797 0 797 0 707 102 c 25,14,15
 606 0 606 0 463 0 c 0,16,17
 318 0 318 0 179 146 c 24,18,19
 100 229 100 229 100 434 c 0,20,21
 100 672 100 672 219 1008 c 0,22,23
 239 1064 239 1064 291 1064 c 0,24,25
 361 1064 361 1064 361 994 c 0,26,27
 361 964 361 964 345 915 c 24,28,29
 245 606 245 606 245 410 c 0,30,31
 245 313 245 313 293 249 c 0,32,33
 366 151 366 151 470 151 c 0,34,35
 542 151 542 151 591 200 c 24,36,37
 635 244 635 244 635 320 c 26,38,-1
 635 516 l 26,39,40
 635 608 635 608 711 608 c 24,41,42
 783 608 783 608 783 514 c 26,43,-1
 783 326 l 2,44,45
 783 221 783 221 850 180 c 24,46,47
 897 151 897 151 947 151 c 0,48,49
 1057 151 1057 151 1113 234 c 0,50,51
 1165 311 1165 311 1165 426 c 0,52,53
 1165 717 1165 717 1071 928 c 0,0,1
EndSplineSet
Validated: 1
EndChar

StartChar: Theta
Encoding: 920 920 296
Width: 1203
VWidth: 0
Flags: W
HStem: 0 148<442.87 760.316> 684 144<457.23 741.5> 1367 148<443.736 757.192>
VStem: 150 147<289.002 1226.36> 453 293<688.188 823.688> 908 145<298.641 1222>
LayerCount: 2
Fore
SplineSet
530 828 m 18,0,1
 530 828 530 828 674 828 c 10,2,3
 746 828 746 828 746 751 c 24,4,5
 746 684 746 684 669 684 c 2,6,-1
 527 684 l 10,7,8
 453 684 453 684 453 759 c 24,9,10
 453 828 453 828 530 828 c 18,0,1
297 423 m 18,11,12
 297 315 297 315 397 225 c 0,13,14
 484 148 484 148 592 148 c 0,15,16
 718 148 718 148 797 219 c 0,17,18
 908 319 908 319 908 452 c 2,19,-1
 908 1060 l 26,20,21
 908 1206 908 1206 803 1291 c 0,22,23
 709 1367 709 1367 591 1367 c 0,24,25
 492 1367 492 1367 397 1290 c 0,26,27
 297 1209 297 1209 297 1064 c 2,28,-1
 297 423 l 18,11,12
150 1088 m 18,29,30
 150 1254 150 1254 281 1384 c 16,31,32
 413 1515 413 1515 603 1515 c 24,33,34
 784 1515 784 1515 915 1385 c 16,35,36
 1053 1248 1053 1248 1053 1067 c 2,37,-1
 1053 456 l 26,38,39
 1053 260 1053 260 916 127 c 0,40,41
 785 0 785 0 596 0 c 24,42,43
 418 0 418 0 285 127 c 16,44,45
 150 257 150 257 150 428 c 2,46,-1
 150 1088 l 18,29,30
EndSplineSet
Validated: 2049
EndChar

StartChar: Lambda
Encoding: 923 923 297
Width: 1259
VWidth: 0
Flags: W
HStem: 4 21G<139.5 202 1060 1122> 1491 20G<606 658.5>
VStem: 100 148<9.72876 74> 1013 146<6.16943 66>
LayerCount: 2
Fore
SplineSet
628 1210 m 25,0,-1
 248 74 l 10,1,2
 225 4 225 4 179 4 c 0,3,4
 100 4 100 4 100 69 c 0,5,6
 100 84 100 84 106 102 c 10,7,-1
 559 1444 l 2,8,9
 582 1511 582 1511 630 1511 c 24,10,11
 687 1511 687 1511 709 1442 c 26,12,-1
 1150 116 l 2,13,14
 1159 89 1159 89 1159 70 c 0,15,16
 1159 0 1159 0 1085 0 c 0,17,18
 1035 0 1035 0 1013 66 c 18,19,-1
 628 1210 l 25,0,-1
EndSplineSet
Validated: 1
EndChar

StartChar: Alpha
Encoding: 913 913 298
Width: 1258
VWidth: 2456
Flags: W
LayerCount: 2
Fore
SplineSet
564 1455 m 10,0,1
 582 1511 582 1511 634 1511 c 24,2,3
 684 1511 684 1511 702 1455 c 18,4,-1
 1149 111 l 18,5,6
 1158 84 1158 84 1158 67 c 0,7,8
 1158 8 1158 8 1086 0 c 1,9,10
 1033 0 1033 0 1011 66 c 2,11,12
 1011 66 1011 66 909 382 c 1,13,-1
 355 382 l 1,14,-1
 246 58 l 2,15,16
 225 -3 225 -3 178 -3 c 0,17,18
 100 -3 100 -3 100 70 c 16,19,20
 100 80 100 80 122 145 c 10,21,-1
 564 1455 l 10,0,1
630 1206 m 25,22,-1
 400 523 l 25,23,-1
 861 523 l 25,24,-1
 630 1206 l 25,22,-1
EndSplineSet
Validated: 1
EndChar

StartChar: Epsilon
Encoding: 917 917 299
Width: 1003
VWidth: 0
Flags: W
LayerCount: 2
Fore
SplineSet
294 149 m 1,0,-1
 827 149 l 10,1,2
 901 149 901 149 901 77 c 280,3,4
 901 5 901 5 830 5 c 26,5,-1
 216 5 l 2,6,7
 150 5 150 5 150 80 c 26,8,-1
 150 1437 l 2,9,10
 150 1515 150 1515 239 1515 c 26,11,-1
 822 1515 l 2,12,13
 903 1515 903 1515 903 1442 c 24,14,15
 903 1370 903 1370 822 1370 c 18,16,-1
 294 1370 l 1,17,-1
 294 904 l 1,18,-1
 680 904 l 10,19,20
 753 904 753 904 753 832 c 0,21,22
 753 764 753 764 682 764 c 18,23,-1
 294 764 l 1,24,-1
 294 149 l 1,0,-1
EndSplineSet
Validated: 1
EndChar

StartChar: Zeta
Encoding: 918 918 300
Width: 1106
VWidth: 0
Flags: W
LayerCount: 2
Fore
SplineSet
293 142 m 1,0,-1
 928 142 l 2,1,2
 1006 142 1006 142 1006 67 c 24,3,4
 1006 0 1006 0 927 0 c 26,5,-1
 176 0 l 2,6,7
 100 0 100 0 100 72 c 0,8,9
 100 99 100 99 123 140 c 18,10,-1
 809 1365 l 1,11,-1
 186 1365 l 10,12,13
 102 1365 102 1365 102 1444 c 24,14,15
 102 1511 102 1511 189 1511 c 26,16,-1
 909 1511 l 2,17,18
 1003 1511 1003 1511 1003 1444 c 0,19,20
 1003 1414 1003 1414 987 1385 c 2,21,-1
 293 142 l 1,0,-1
EndSplineSet
Validated: 1
EndChar

StartChar: Eta
Encoding: 919 919 301
Width: 1210
VWidth: 0
Flags: W
LayerCount: 2
Fore
SplineSet
918 760 m 1,0,-1
 297 760 l 1,1,-1
 297 77 l 10,2,3
 297 0 297 0 223.5 0 c 152,-1,4
 150 0 150 0 150 76 c 26,5,-1
 150 1425 l 2,6,7
 150 1511 150 1511 223.5 1511 c 128,-1,8
 297 1511 297 1511 297 1425 c 18,9,-1
 297 904 l 1,10,-1
 918 904 l 1,11,-1
 918 1431 l 2,12,13
 918 1506 918 1506 989 1506 c 152,-1,14
 1060 1506 1060 1506 1060 1432 c 26,15,-1
 1060 80 l 2,16,17
 1060 0 1060 0 989 0 c 152,-1,18
 918 0 918 0 918 78 c 18,19,-1
 918 760 l 1,0,-1
EndSplineSet
Validated: 1
EndChar

StartChar: Iota
Encoding: 921 921 302
Width: 452
VWidth: 2456
Flags: W
LayerCount: 2
Fore
SplineSet
226 0 m 152,-1,1
 150 0 150 0 150 94 c 26,2,-1
 150 1420 l 2,3,4
 150 1511 150 1511 226 1511 c 152,-1,5
 302 1511 302 1511 302 1417 c 26,6,-1
 302 96 l 2,7,0
 302 0 302 0 226 0 c 152,-1,1
EndSplineSet
Validated: 1
EndChar

StartChar: Kappa
Encoding: 922 922 303
Width: 1155
VWidth: 0
Flags: W
LayerCount: 2
Fore
SplineSet
219 3 m 0,0,1
 150 3 150 3 150 96 c 2,2,-1
 150 1444 l 2,3,4
 150 1511 150 1511 219 1511 c 0,5,6
 294 1511 294 1511 294 1435 c 2,7,-1
 294 797 l 1,8,-1
 914 1477 l 2,9,10
 949 1515 949 1515 979 1515 c 128,-1,11
 1009 1515 1009 1515 1031 1490 c 24,12,13
 1052 1466 1052 1466 1052 1438 c 0,14,15
 1052 1412 1052 1412 1016 1372 c 2,16,-1
 600 911 l 1,17,-1
 1036 124 l 2,18,19
 1055 90 1055 90 1055 74 c 0,20,21
 1055 43 1055 43 1028 20 c 24,22,23
 1005 0 1005 0 976 0 c 0,24,25
 939 0 939 0 914 45 c 2,26,-1
 497 798 l 25,27,-1
 296 578 l 1,28,-1
 296 99 l 2,29,30
 296 3 296 3 219 3 c 0,0,1
EndSplineSet
Validated: 1
EndChar

StartChar: Mu
Encoding: 924 924 304
Width: 1364
VWidth: 0
Flags: W
LayerCount: 2
Fore
SplineSet
1074 1472 m 2,0,1
 1098 1511 1098 1511 1138 1511 c 0,2,3
 1214 1511 1214 1511 1214 1430 c 2,4,-1
 1214 99 l 26,5,6
 1214 0 1214 0 1140 0 c 128,-1,7
 1066 0 1066 0 1066 99 c 2,8,-1
 1066 1172 l 9,9,-1
 754 664 l 2,10,11
 716 601 716 601 678 601 c 128,-1,12
 640 601 640 601 604 662 c 2,13,-1
 298 1170 l 9,14,-1
 298 94 l 26,15,16
 298 0 298 0 221 0 c 24,17,18
 150 0 150 0 150 92 c 2,19,-1
 150 1431 l 2,20,21
 150 1511 150 1511 226 1511 c 0,22,23
 265 1511 265 1511 288 1475 c 2,24,-1
 674 824 l 25,25,-1
 1074 1472 l 2,0,1
EndSplineSet
Validated: 1
EndChar

StartChar: Nu
Encoding: 925 925 305
Width: 1202
VWidth: 0
Flags: W
LayerCount: 2
Fore
SplineSet
914 357 m 25,0,-1
 914 1439 l 2,1,2
 914 1515 914 1515 983 1515 c 128,-1,3
 1052 1515 1052 1515 1052 1442 c 2,4,-1
 1052 89 l 26,5,6
 1052 6 1052 6 986 6 c 0,7,8
 940 6 940 6 910 60 c 26,9,-1
 294 1159 l 9,10,-1
 294 89 l 26,11,12
 294 9 294 9 218 9 c 24,13,14
 150 9 150 9 150 91 c 2,15,-1
 150 1426 l 26,16,17
 150 1515 150 1515 222 1515 c 0,18,19
 269 1515 269 1515 295 1469 c 10,20,-1
 914 357 l 25,0,-1
EndSplineSet
Validated: 1
EndChar

StartChar: Omicron
Encoding: 927 927 306
Width: 1203
VWidth: 0
Flags: W
LayerCount: 2
Fore
SplineSet
297 423 m 18,0,1
 297 315 297 315 397 225 c 0,2,3
 484 148 484 148 592 148 c 0,4,5
 718 148 718 148 797 219 c 0,6,7
 908 319 908 319 908 452 c 2,8,-1
 908 1060 l 26,9,10
 908 1206 908 1206 803 1291 c 0,11,12
 709 1367 709 1367 591 1367 c 0,13,14
 492 1367 492 1367 397 1290 c 0,15,16
 297 1209 297 1209 297 1064 c 2,17,-1
 297 423 l 18,0,1
150 1088 m 18,18,19
 150 1254 150 1254 281 1384 c 16,20,21
 413 1515 413 1515 603 1515 c 24,22,23
 784 1515 784 1515 915 1385 c 16,24,25
 1053 1248 1053 1248 1053 1067 c 2,26,-1
 1053 456 l 26,27,28
 1053 260 1053 260 916 127 c 0,29,30
 785 0 785 0 596 0 c 24,31,32
 418 0 418 0 285 127 c 16,33,34
 150 257 150 257 150 428 c 2,35,-1
 150 1088 l 18,18,19
EndSplineSet
Validated: 1
EndChar

StartChar: Rho
Encoding: 929 929 307
Width: 1152
VWidth: 0
Flags: W
LayerCount: 2
Fore
SplineSet
298 1366 m 1,0,1
 298 1366 298 1366 298 755 c 1,2,-1
 630 755 l 2,3,4
 731 755 731 755 820 844 c 0,5,6
 908 932 908 932 908 1062 c 128,-1,7
 908 1192 908 1192 819.5 1279 c 128,-1,8
 731 1366 731 1366 588 1366 c 2,9,-1
 298 1366 l 1,0,1
298 88 m 18,10,11
 298 5 298 5 224 5 c 128,-1,12
 150 5 150 5 150 90 c 2,13,-1
 150 1431 l 2,14,15
 150 1511 150 1511 232 1511 c 2,16,-1
 619 1511 l 18,17,18
 806 1511 806 1511 940 1360 c 0,19,20
 1052 1234 1052 1234 1052 1086 c 0,21,22
 1052 904 1052 904 974 800 c 0,23,24
 829 607 829 607 630 607 c 26,25,-1
 298 607 l 25,26,-1
 298 88 l 18,10,11
EndSplineSet
Validated: 1
EndChar

StartChar: Tau
Encoding: 932 932 308
Width: 1101
VWidth: 0
Flags: W
LayerCount: 2
Fore
SplineSet
100 1446 m 0,0,1
 100 1515 100 1515 188 1515 c 2,2,-1
 929 1515 l 18,3,4
 1001 1515 1001 1515 1001 1443 c 0,5,6
 1001 1370 1001 1370 931 1370 c 2,7,-1
 624 1370 l 1,8,-1
 624 79 l 10,9,10
 624 0 624 0 551 0 c 280,11,12
 478 0 478 0 478 77 c 18,13,-1
 478 1370 l 1,14,-1
 186 1370 l 2,15,16
 100 1370 100 1370 100 1446 c 0,0,1
EndSplineSet
Validated: 1
EndChar

StartChar: Upsilon
Encoding: 933 933 309
Width: 1258
VWidth: 0
Flags: W
LayerCount: 2
Fore
SplineSet
559 761 m 1,0,1
 559 761 559 761 116 1392 c 2,2,3
 100 1415 100 1415 100 1438 c 0,4,5
 100 1511 100 1511 179 1511 c 8,6,7
 214 1511 214 1511 243 1466 c 18,8,-1
 629 906 l 1,9,-1
 1019 1475 l 10,10,11
 1045 1511 1045 1511 1082 1511 c 0,12,13
 1158 1511 1158 1511 1158 1442 c 0,14,15
 1158 1417 1158 1417 1139 1388 c 2,16,-1
 702 757 l 1,17,-1
 702 85 l 10,18,19
 702 0 702 0 632 0 c 24,20,21
 559 0 559 0 559 87 c 18,22,-1
 559 761 l 1,0,1
EndSplineSet
Validated: 1
EndChar

StartChar: Chi
Encoding: 935 935 310
Width: 1262
VWidth: 0
Flags: W
LayerCount: 2
Fore
SplineSet
544 755 m 1,0,1
 544 755 544 755 119 1392 c 10,2,3
 103 1417 103 1417 103 1441 c 0,4,5
 103 1507 103 1507 177 1507 c 0,6,7
 214 1507 214 1507 244 1463 c 2,8,-1
 631 889 l 1,9,-1
 1024 1473 l 2,10,11
 1050 1511 1050 1511 1090 1511 c 0,12,13
 1162 1511 1162 1511 1162 1443 c 0,14,15
 1162 1416 1162 1416 1136 1377 c 18,16,-1
 719 755 l 1,17,-1
 1143 115 l 10,18,19
 1159 92 1159 92 1159 74 c 0,20,21
 1159 0 1159 0 1086 0 c 0,22,23
 1044 0 1044 0 1016 43 c 2,24,-1
 631 625 l 1,25,-1
 241 38 l 2,26,27
 215 0 215 0 181 0 c 0,28,29
 100 0 100 0 100 70 c 0,30,31
 100 93 100 93 122 127 c 18,32,-1
 544 755 l 1,0,1
EndSplineSet
Validated: 1
EndChar

StartChar: Delta
Encoding: 916 916 311
Width: 1259
VWidth: 0
Flags: W
HStem: 0 150<273 985> 1491 20G<605.5 658.5>
LayerCount: 2
Fore
SplineSet
1085 0 m 10,0,1
 1085 0 1085 0 179 0 c 18,2,3
 100 0 100 0 100 69 c 0,4,5
 100 84 100 84 106 102 c 10,6,-1
 559 1444 l 2,7,8
 581 1511 581 1511 630 1511 c 24,9,10
 687 1511 687 1511 709 1442 c 26,11,-1
 1150 116 l 2,12,13
 1159 89 1159 89 1159 70 c 0,14,15
 1159 -0 1159 -0 1085 0 c 10,0,1
985 150 m 17,16,-1
 628 1210 l 1,17,-1
 273 150 l 1,18,-1
 985 150 l 17,16,-1
EndSplineSet
Validated: 1
EndChar

StartChar: Gamma
Encoding: 915 915 312
Width: 1080
VWidth: 0
Flags: W
HStem: 0 21G<186.25 258.75> 1365 146<295 975.502>
VStem: 150 145<3.68457 1365>
LayerCount: 2
Fore
SplineSet
295 77 m 26,0,1
 295 0 295 0 222.5 0 c 152,-1,2
 150 0 150 0 150 77 c 26,3,-1
 150 1421 l 2,4,5
 150 1511 150 1511 221 1511 c 26,6,7
 221 1511 221 1511 886 1511 c 2,8,9
 980 1511 980 1511 980 1438 c 128,-1,10
 980 1365 980 1365 889 1365 c 26,11,-1
 295 1365 l 25,12,-1
 295 77 l 26,0,1
EndSplineSet
Validated: 1
EndChar

StartChar: Xi
Encoding: 926 926 313
Width: 1100
VWidth: 0
Flags: W
HStem: 0 144<104.23 995.5> 686 144<333.23 771.5> 1370 144<104.23 995.5>
VStem: 329 447<690.188 825.688>
LayerCount: 2
Fore
SplineSet
406 830 m 22,0,1
 406 830 406 830 704 830 c 14,2,3
 776 830 776 830 776 753 c 28,4,5
 776 686 776 686 699 686 c 6,6,-1
 403 686 l 14,7,8
 329 686 329 686 329 761 c 28,9,10
 329 830 329 830 406 830 c 22,0,1
177 1514 m 18,11,-1
 928 1514 l 10,12,13
 1000 1514 1000 1514 1000 1437 c 24,14,15
 1000 1370 1000 1370 923 1370 c 2,16,-1
 174 1370 l 10,17,18
 100 1370 100 1370 100 1445 c 24,19,20
 100 1514 100 1514 177 1514 c 18,11,-1
177 144 m 18,21,-1
 928 144 l 10,22,23
 1000 144 1000 144 1000 67 c 24,24,25
 1000 0 1000 0 923 0 c 2,26,-1
 174 0 l 10,27,28
 100 0 100 0 100 75 c 24,29,30
 100 144 100 144 177 144 c 18,21,-1
EndSplineSet
Validated: 2049
EndChar

StartChar: Pi
Encoding: 928 928 314
Width: 1210
VWidth: 2456
Flags: W
HStem: 1370 150<300 910>
VStem: 150 150<9.875 1370> 910 150<10.5 1370>
LayerCount: 2
Fore
SplineSet
236 1520 m 10,0,1
 236 1520 236 1520 988 1520 c 2,2,3
 1060 1520 1060 1520 1060 1440 c 10,4,-1
 1060 93 l 2,5,6
 1060 5 1060 5 983 5 c 0,7,8
 910 5 910 5 910 83 c 2,9,-1
 910 1370 l 0,10,-1
 300 1370 l 0,11,-1
 300 83 l 2,12,13
 300 5 300 5 220 5 c 0,14,15
 150 5 150 5 150 83 c 2,16,-1
 150 1437 l 2,17,18
 150 1520 150 1520 236 1520 c 10,0,1
EndSplineSet
Validated: 1
EndChar

StartChar: Sigma
Encoding: 931 931 315
Width: 1098
VWidth: 0
Flags: W
HStem: 0 144<293 992.459> 1365 146<293 993.551>
LayerCount: 2
Fore
SplineSet
557 755 m 1,0,-1
 293 144 l 1,1,-1
 922 144 l 10,2,3
 996 144 996 144 996 72 c 280,4,5
 996 0 996 0 925 0 c 26,6,-1
 172 0 l 2,7,8
 101 0 101 0 101 59 c 0,9,10
 101 93 101 93 114 122 c 2,11,-1
 395 751 l 1,12,-1
 117 1379 l 2,13,14
 100 1419 100 1419 100 1447 c 0,15,16
 100 1511 100 1511 195 1511 c 10,17,-1
 917 1511 l 2,18,19
 998 1511 998 1511 998 1437 c 24,20,21
 998 1365 998 1365 917 1365 c 18,22,-1
 293 1365 l 1,23,-1
 557 755 l 1,0,-1
EndSplineSet
Validated: 1
EndChar

StartChar: Phi
Encoding: 934 934 316
Width: 1416
VWidth: 0
Flags: W
HStem: 0 149<333.944 633> 235 157<448.868 633 792 973.235> 1147 155<456.768 633 792 967.367> 1370 150<791 1081.5>
VStem: 100 154<585.82 955.436> 633 158<149 235 392 1147 1302 1370> 1165 151<594.453 951.307>
LayerCount: 2
Fore
SplineSet
633 1437 m 26,0,1
 633 1520 633 1520 711 1520 c 26,2,-1
 1001 1520 l 26,3,4
 1087 1520 1087 1520 1087 1442 c 24,5,6
 1087 1370 1087 1370 999 1370 c 26,7,-1
 791 1370 l 17,8,-1
 791 1298 l 17,9,10
 1007 1298 1007 1298 1157 1147 c 0,11,12
 1316 987 1316 987 1316 758 c 128,-1,13
 1316 529 1316 529 1112 353 c 0,14,15
 975 235 975 235 791 235 c 25,16,-1
 791 101 l 26,17,18
 791 0 791 0 700 0 c 26,19,-1
 418 0 l 26,20,21
 329 0 329 0 329 73 c 24,22,23
 329 149 329 149 419 149 c 26,24,-1
 633 149 l 17,25,-1
 633 235 l 17,26,27
 416 235 416 235 260 391 c 24,28,29
 100 551 100 551 100 752 c 0,30,31
 100 980 100 980 220 1107 c 0,32,33
 404 1302 404 1302 633 1302 c 9,34,-1
 633 1437 l 26,0,1
633 1147 m 17,35,36
 501 1147 501 1147 388 1059 c 0,37,38
 254 955 254 955 254 766 c 24,39,40
 254 595 254 595 382 482 c 0,41,42
 484 392 484 392 633 392 c 25,43,-1
 633 1147 l 17,35,36
792 1147 m 9,44,-1
 792 392 l 17,45,46
 956 392 956 392 1055 500 c 0,47,48
 1165 620 1165 620 1165 777 c 0,49,50
 1165 941 1165 941 1031 1059 c 0,51,52
 931 1147 931 1147 792 1147 c 9,44,-1
EndSplineSet
Validated: 2049
EndChar

StartChar: Psi
Encoding: 936 936 317
Width: 1322
VWidth: 2456
Flags: W
HStem: 0 21G<626 703>
VStem: 130 154<741.76 1513.5> 588 150<4.94385 388 540 1514.12> 1046 146<740.126 1512.95>
LayerCount: 2
Fore
SplineSet
130 1417 m 26,0,1
 130 1511 130 1511 210 1511 c 24,2,3
 284 1511 284 1511 284 1407 c 26,4,-1
 284 928 l 26,5,6
 284 763 284 763 400 638 c 0,7,8
 466 567 466 567 588 540 c 25,9,-1
 588 1417 l 26,10,11
 588 1511 588 1511 666 1511 c 24,12,13
 738 1511 738 1511 738 1409 c 26,14,-1
 738 538 l 25,15,16
 864 572 864 572 926 634 c 0,17,18
 1046 754 1046 754 1046 940 c 26,19,-1
 1046 1419 l 26,20,21
 1046 1511 1046 1511 1118 1511 c 24,22,23
 1192 1511 1192 1511 1192 1417 c 26,24,-1
 1192 905 l 26,25,26
 1192 682 1192 682 1062 552 c 0,27,28
 898 388 898 388 742 388 c 25,29,-1
 742 88 l 26,30,31
 742 0 742 0 664 0 c 24,32,33
 588 0 588 0 588 90 c 26,34,-1
 588 384 l 25,35,36
 393 417 393 417 274 551 c 0,37,38
 130 713 130 713 130 930 c 26,39,-1
 130 1417 l 26,0,1
EndSplineSet
Validated: 1
EndChar

StartChar: Omega
Encoding: 937 937 318
Width: 1319
VWidth: 0
Flags: W
HStem: 0 149<134.614 355 960 1182.37> 1370 150<478.566 831.544>
VStem: 130 144<663.665 1162.45> 355 149<149 432.324> 815 145<150 433.459> 1039 145<656.892 1170.89>
LayerCount: 2
Fore
SplineSet
656 1520 m 0,0,1
 871 1520 871 1520 1020 1380 c 24,2,3
 1184 1226 1184 1226 1184 1019 c 2,4,5
 1184 1019 1184 1019 1184 778 c 26,6,7
 1184 653 1184 653 1088 522 c 0,8,9
 1030 442 1030 442 960 404 c 25,10,-1
 960 150 l 25,11,-1
 1090 150 l 26,12,13
 1189 150 1189 150 1189 81 c 24,14,15
 1189 0 1189 0 1095 0 c 26,16,17
 1095 0 1095 0 891 0 c 26,18,19
 815 -0 815 -0 815 81 c 26,20,21
 815 81 815 81 815 438 c 18,22,23
 815 486 815 486 861 513 c 0,24,25
 937 559 937 559 979 629 c 24,26,27
 1039 730 1039 730 1039 805 c 26,28,29
 1039 805 1039 805 1039 994 c 26,30,31
 1039 1150 1039 1150 934 1250 c 24,32,33
 808 1370 808 1370 656 1370 c 128,-1,34
 504 1370 504 1370 400 1268 c 0,35,36
 274 1145 274 1145 274 988 c 26,37,-1
 274 822 l 26,38,39
 274 708 274 708 362 598 c 0,40,41
 394 558 394 558 463 511 c 0,42,43
 504 484 504 484 504 423 c 26,44,45
 504 423 504 423 504 77 c 26,46,47
 504 0 504 0 435 0 c 26,48,-1
 213 0 l 26,49,50
 130 0 130 0 130 76 c 24,51,52
 130 149 130 149 214 149 c 26,53,-1
 355 149 l 25,54,-1
 355 397 l 17,55,56
 258 470 258 470 222 528 c 0,57,58
 130 679 130 679 130 839 c 26,59,-1
 130 979 l 26,60,61
 130 1215 130 1215 284 1365 c 0,62,63
 443 1520 443 1520 656 1520 c 0,0,1
EndSplineSet
Validated: 1
EndChar

StartChar: tonos
Encoding: 900 900 323
Width: 423
VWidth: 0
Flags: W
LayerCount: 2
Fore
SplineSet
176 1817 m 2,0,1
 192 1880 192 1880 245 1880 c 0,2,3
 323 1880 323 1880 323 1811 c 0,4,5
 323 1801 323 1801 317 1777 c 2,6,-1
 246 1497 l 2,7,8
 230 1433 230 1433 178 1433 c 0,9,10
 100 1433 100 1433 100 1498 c 0,11,12
 100 1514 100 1514 105 1534 c 10,13,-1
 176 1817 l 2,0,1
EndSplineSet
Validated: 1
EndChar

StartChar: dieresistonos
Encoding: 901 901 329
Width: 808
VWidth: 0
Flags: W
LayerCount: 2
Fore
SplineSet
411 2072 m 2,0,1
 427 2135 427 2135 480 2135 c 0,2,3
 558 2135 558 2135 558 2066 c 0,4,5
 558 2056 558 2056 552 2032 c 2,6,-1
 481 1752 l 2,7,8
 465 1688 465 1688 413 1688 c 0,9,10
 335 1688 335 1688 335 1753 c 0,11,12
 335 1769 335 1769 340 1789 c 10,13,-1
 411 2072 l 2,0,1
556 1550 m 128,-1,15
 556 1658 556 1658 626 1658 c 0,16,17
 708 1658 708 1658 708 1544 c 0,18,19
 708 1442 708 1442 631 1442 c 0,20,14
 556 1442 556 1442 556 1550 c 128,-1,15
100 1549 m 128,-1,22
 100 1656 100 1656 171 1656 c 0,23,24
 253 1656 253 1656 253 1542 c 0,25,26
 253 1442 253 1442 176 1442 c 0,27,21
 100 1442 100 1442 100 1549 c 128,-1,22
EndSplineSet
Validated: 2049
EndChar

StartChar: sigma1
Encoding: 962 962 341
Width: 1170
VWidth: 0
Flags: W
HStem: -456 150<745 881.095> 0 146<428.319 883.359> 915 139<431.204 868.386>
VStem: 130 152<287.494 762.98> 887 150<-302.179 -5.45312>
LayerCount: 2
Fore
SplineSet
252 908 m 0,0,1
 371 1054 371 1054 654 1054 c 26,2,-1
 789 1054 l 2,3,4
 873 1054 873 1054 873 990 c 24,5,6
 873 915 873 915 790 915 c 26,7,-1
 638 915 l 2,8,9
 457 915 457 915 370 824 c 0,10,11
 282 732 282 732 282 588 c 2,12,-1
 282 396 l 2,13,14
 282 319 282 319 388 218 c 0,15,16
 463 146 463 146 678 146 c 2,17,-1
 822 146 l 10,18,19
 907 146 907 146 975 79 c 24,20,21
 1037 18 1037 18 1037 -64 c 26,22,23
 1037 -64 1037 -64 1037 -228 c 26,24,25
 1037 -326 1037 -326 970 -391 c 152,-1,26
 903 -456 903 -456 810 -456 c 24,27,28
 740 -456 740 -456 740 -384 c 0,29,30
 740 -306 740 -306 820 -306 c 0,31,32
 887 -306 887 -306 887 -217 c 10,33,34
 887 -217 887 -217 887 -66 c 26,35,36
 887 0 887 0 805 0 c 26,37,-1
 572 0 l 2,38,39
 388 0 388 0 269 126 c 24,40,41
 130 272 130 272 130 420 c 10,42,-1
 130 588 l 2,43,44
 130 758 130 758 252 908 c 0,0,1
EndSplineSet
Validated: 1
EndChar

StartChar: uni2104
Encoding: 8452 8452 342
Width: 890
VWidth: 0
Flags: W
HStem: -152 152<585 1082.28> 234 150<339 436 586 723.341> 995 150<286.065 735.31>
VStem: 131 148<391.797 988.155> 436 150<0 234 385 808.341>
LayerCount: 2
Fore
SplineSet
339 384 m 16,0,-1
 436 384 l 1,1,-1
 436 755 l 2,2,3
 436 788 436 788 459 809 c 128,-1,4
 482 830 482 830 512.5 830 c 128,-1,5
 543 830 543 830 564 808 c 0,6,7
 586 787 586 787 586 755 c 2,8,-1
 586 385 l 1,9,-1
 671 385 l 2,10,11
 703 385 703 385 724 364 c 0,12,13
 746 342 746 342 746 311 c 0,14,15
 746 281 746 281 724 258 c 0,16,17
 701 234 701 234 671 234 c 2,18,-1
 585 234 l 1,19,-1
 585 0 l 1,20,-1
 1031 0 l 2,21,22
 1061 0 1061 0 1084 -24 c 0,23,24
 1106 -47 1106 -47 1106 -78 c 0,25,26
 1106 -110 1106 -110 1083 -131 c 128,-1,27
 1060 -152 1060 -152 1031 -152 c 2,28,-1
 509 -152 l 2,29,30
 471 -152 471 -152 454 -126 c 0,31,32
 436 -98 436 -98 436 -75 c 2,33,-1
 436 234 l 1,34,-1
 348 234 l 2,35,36
 245 234 245 234 188 300 c 0,37,38
 131 365 131 365 131 457 c 2,39,-1
 131 913 l 2,40,41
 131 952 131 952 146 1002 c 0,42,43
 161 1053 161 1053 221 1099 c 128,-1,44
 281 1145 281 1145 353 1145 c 2,45,-1
 682 1145 l 2,46,47
 715 1145 715 1145 736 1122 c 128,-1,48
 757 1099 757 1099 757 1068 c 0,49,50
 757 1038 757 1038 736 1016 c 0,51,52
 714 995 714 995 682 995 c 2,53,-1
 361 995 l 10,54,55
 279 995 279 995 279 913 c 18,56,-1
 279 458 l 26,57,58
 279 409 279 409 339 384 c 16,0,-1
EndSplineSet
Validated: 1
EndChar

StartChar: arrowboth
Encoding: 8596 8596 343
Width: 2075
VWidth: 0
Flags: W
HStem: 459 155<352 1738>
LayerCount: 2
Fore
SplineSet
122 489 m 10,0,1
 100 515 100 515 100 533 c 0,2,3
 100 555 100 555 117 577 c 18,4,-1
 401 943 l 2,5,6
 425 974 425 974 464 974 c 0,7,8
 496 974 496 974 523 945 c 0,9,10
 540 927 540 927 540 895 c 0,11,12
 540 868 540 868 512 832 c 26,13,-1
 341 614 l 1,14,-1
 1738 614 l 17,15,-1
 1572 832 l 26,16,17
 1545 867 1545 867 1545 900 c 0,18,19
 1545 928 1545 928 1567 950 c 0,20,21
 1591 974 1591 974 1629 974 c 0,22,23
 1659 974 1659 974 1687 938 c 2,24,-1
 1946 605 l 2,25,26
 1975 568 1975 568 1975 538 c 0,27,28
 1975 509 1975 509 1947 475 c 2,29,-1
 1675 148 l 10,30,31
 1654 124 1654 124 1624 124 c 16,32,33
 1592 124 1592 124 1566 154 c 0,34,35
 1543 181 1543 181 1543 207 c 0,36,37
 1543 241 1543 241 1571 272 c 18,38,-1
 1738 459 l 1,39,-1
 352 459 l 1,40,-1
 512 272 l 2,41,42
 541 238 541 238 541 208 c 0,43,44
 541 176 541 176 520 153 c 128,-1,45
 499 130 499 130 458 130 c 0,46,47
 424 130 424 130 402 156 c 2,48,-1
 122 489 l 10,0,1
EndSplineSet
Validated: 1
EndChar

StartChar: uni2197
Encoding: 8599 8599 344
Width: 926
VWidth: 0
Flags: W
VStem: 622 150<665.657 720>
LayerCount: 2
Fore
SplineSet
798 1413 m 0,0,1
 826 1393 826 1393 826 1357 c 0,2,3
 826 1350 826 1350 822 1300 c 10,4,-1
 772 708 l 2,5,6
 769 676 769 676 748 658 c 128,-1,7
 727 640 727 640 696 640 c 0,8,9
 661 640 661 640 640 665 c 0,10,11
 622 686 622 686 622 712 c 0,12,13
 622 712 622 712 622 720 c 2,14,-1
 638 901 l 1,15,-1
 244 -35 l 2,16,17
 225 -81 225 -81 174 -81 c 128,-1,18
 123 -81 123 -81 105 -33 c 0,19,20
 100 -19 100 -19 100 -5 c 128,-1,21
 100 9 100 9 106 23 c 2,22,-1
 467 883 l 1,23,-1
 396 794 l 2,24,25
 374 766 374 766 344 766 c 0,26,27
 310 766 310 766 286.5 787 c 128,-1,28
 263 808 263 808 263 836 c 0,29,30
 263 869 263 869 279 888 c 2,31,-1
 693 1403 l 2,32,33
 715 1431 715 1431 748 1431 c 0,34,35
 773 1431 773 1431 798 1413 c 0,0,1
EndSplineSet
Validated: 1
EndChar

StartChar: uni21A7
Encoding: 8615 8615 345
Width: 1077
VWidth: 0
Flags: W
HStem: 0 21G<507.5 556.5> 1352 143<111.449 458 610 970.155>
VStem: 458 152<188 1352>
LayerCount: 2
Fore
SplineSet
616 24 m 2,0,1
 583 0 583 0 530 0 c 0,2,3
 485 0 485 0 453 24 c 2,4,-1
 118 280 l 10,5,6
 100 294 100 294 100 338 c 0,7,8
 100 363 100 363 116 376 c 0,9,10
 132 390 132 390 157 390 c 0,11,12
 187 390 187 390 204 379 c 2,13,-1
 458 188 l 1,14,-1
 458 1352 l 24,15,-1
 188 1352 l 18,16,17
 107 1352 107 1352 107 1427 c 0,18,19
 107 1495 107 1495 196 1495 c 2,20,-1
 909 1495 l 2,21,22
 974 1495 974 1495 974 1419 c 0,23,24
 974 1352 974 1352 904 1352 c 2,25,-1
 610 1352 l 1,26,-1
 610 181 l 1,27,-1
 866 370 l 2,28,29
 889 387 889 387 909 387 c 0,30,31
 949 387 949 387 964 365 c 0,32,33
 977 346 977 346 977 327 c 0,34,35
 977 291 977 291 962 280 c 2,36,-1
 616 24 l 2,0,1
EndSplineSet
Validated: 1
EndChar

StartChar: angle
Encoding: 8736 8736 346
Width: 1900
VWidth: 0
Flags: W
HStem: 0 154<369 1775.28>
LayerCount: 2
Fore
SplineSet
1800 75 m 128,-1,1
 1800 41 1800 41 1776 20 c 0,2,3
 1753 0 1753 0 1722 0 c 2,4,-1
 178 0 l 2,5,6
 140 0 140 0 120 26 c 128,-1,7
 100 52 100 52 100 82 c 0,8,9
 100 111 100 111 123 134 c 2,10,-1
 1512 1519 l 2,11,12
 1535 1542 1535 1542 1570 1542 c 0,13,14
 1602 1542 1602 1542 1624 1520 c 0,15,16
 1646 1497 1646 1497 1646 1465 c 0,17,18
 1646 1431 1646 1431 1623 1408 c 2,19,-1
 369 154 l 1,20,-1
 1722 154 l 2,21,22
 1755 154 1755 154 1777 132 c 0,23,0
 1800 109 1800 109 1800 75 c 128,-1,1
EndSplineSet
Validated: 1
EndChar

StartChar: uni2300
Encoding: 8960 8960 347
Width: 1368
VWidth: 0
Flags: W
HStem: 84 126<625 876.686> 1122 127<490.433 739>
VStem: 100 126<467.672 855.475> 433 124<-58.4375 12.6576> 815 124<1344.43 1416.44> 1142 126<472.617 865.05>
LayerCount: 2
Fore
SplineSet
557 -41 m 2,0,1
 544 -86 544 -86 497 -86 c 0,2,3
 458 -86 458 -86 443 -59 c 0,4,5
 433 -41 433 -41 433 -23 c 0,6,7
 433 -15 433 -15 435 -7 c 2,8,-1
 470 122 l 5,9,10
 277 198 277 198 177 373 c 4,11,12
 100 508 100 508 100 664 c 132,-1,13
 100 820 100 820 178.5 955 c 132,-1,14
 257 1090 257 1090 394 1170 c 4,15,16
 531 1249 531 1249 687 1249 c 4,17,18
 729 1249 729 1249 773 1243 c 5,19,-1
 815 1397 l 2,20,21
 830 1443 830 1443 875 1443 c 0,22,23
 912 1443 912 1443 928 1417 c 0,24,25
 939 1399 939 1399 939 1380 c 0,26,27
 939 1371 939 1371 937 1363 c 2,28,-1
 896 1211 l 5,29,30
 1087 1139 1087 1139 1191 959 c 4,31,32
 1268 826 1268 826 1268 669 c 132,-1,33
 1268 512 1268 512 1189 376 c 132,-1,34
 1110 240 1110 240 973 162 c 132,-1,35
 836 84 836 84 681 84 c 4,36,37
 637 84 637 84 592 90 c 5,38,-1
 557 -41 l 2,0,1
685 1122 m 4,39,40
 561 1122 561 1122 456 1060 c 4,41,42
 349 997 349 997 288 890 c 4,43,44
 226 781 226 781 226 662 c 4,45,46
 226 540 226 540 294 423 c 132,-1,47
 362 306 362 306 503 245 c 5,48,-1
 739 1119 l 5,49,50
 711 1122 711 1122 685 1122 c 4,39,40
863 1088 m 5,51,-1
 625 214 l 5,52,53
 657 210 657 210 688 210 c 4,54,55
 805 210 805 210 911.5 272 c 132,-1,56
 1018 334 1018 334 1080 440 c 4,57,58
 1142 545 1142 545 1142 668 c 132,-1,59
 1142 791 1142 791 1082 895 c 4,60,61
 1005 1028 1005 1028 863 1088 c 5,51,-1
EndSplineSet
Validated: 2049
EndChar

StartChar: uni2312
Encoding: 8978 8978 348
Width: 1718
VWidth: 0
Flags: W
HStem: 972 150<627.936 1089.66>
VStem: 100 150<306 600.562> 1468 150<306 600.188>
LayerCount: 2
Fore
SplineSet
250 306 m 1,0,-1
 100 306 l 1,1,-1
 100 381 l 2,2,3
 100 533 100 533 160 670 c 128,-1,4
 220 807 220 807 323 906 c 0,5,6
 425 1004 425 1004 565 1063 c 128,-1,7
 705 1122 705 1122 859 1122 c 0,8,9
 1011 1122 1011 1122 1153 1063 c 0,10,11
 1293 1005 1293 1005 1395 906 c 0,12,13
 1498 806 1498 806 1558 670 c 0,14,15
 1618 532 1618 532 1618 381 c 2,16,-1
 1618 306 l 1,17,-1
 1468 306 l 1,18,-1
 1468 381 l 2,19,20
 1468 499 1468 499 1420 609 c 128,-1,21
 1372 719 1372 719 1291 798 c 0,22,23
 1209 878 1209 878 1096 925 c 128,-1,24
 983 972 983 972 859 972 c 0,25,26
 733 972 733 972 622 925 c 0,27,28
 509 877 509 877 427 798 c 0,29,30
 346 720 346 720 298 609 c 0,31,32
 250 500 250 500 250 381 c 2,33,-1
 250 306 l 1,0,-1
EndSplineSet
Validated: 1
EndChar

StartChar: uni2313
Encoding: 8979 8979 349
Width: 2048
VWidth: 0
HStem: 306 155<256 1462> 972 150<627.936 1089.66>
LayerCount: 2
Fore
SplineSet
1618 306 m 1,0,-1
 1468 306 l 1,1,-1
 250 306 l 1,2,-1
 100 306 l 1,3,-1
 100 381 l 2,4,5
 100 533 100 533 160 670 c 128,-1,6
 220 807 220 807 323 906 c 0,7,8
 425 1004 425 1004 565 1063 c 128,-1,9
 705 1122 705 1122 859 1122 c 0,10,11
 1011 1122 1011 1122 1153 1063 c 0,12,13
 1293 1005 1293 1005 1395 906 c 0,14,15
 1498 806 1498 806 1558 670 c 0,16,17
 1618 532 1618 532 1618 381 c 2,18,-1
 1618 306 l 1,0,-1
256 461 m 1,19,-1
 1462 461 l 1,20,21
 1452 537 1452 537 1420 609 c 0,22,23
 1372 719 1372 719 1291 798 c 0,24,25
 1209 878 1209 878 1096 925 c 128,-1,26
 983 972 983 972 859 972 c 0,27,28
 733 972 733 972 622 925 c 0,29,30
 509 877 509 877 427 798 c 0,31,32
 347 721 347 721 298 609 c 0,33,34
 266 537 266 537 256 461 c 1,19,-1
EndSplineSet
Validated: 1
EndChar

StartChar: uni2316
Encoding: 8982 8982 350
Width: 1700
VWidth: 0
Flags: W
HStem: 150 149<613.158 776 926 1086.24> 579 150<106.312 346 496 776 926 1206 1356 1594.95> 1010 149<633.365 776 926 1067.5>
VStem: 346 150<422.726 579 729 866.012> 776 150<-87.4375 150 299 579 729 1010 1159 1436.66> 1206 150<422.464 579 729 870.611>
CounterMasks: 1 1c
LayerCount: 2
Fore
SplineSet
1508 729 m 10,0,1
 1600 729 1600 729 1600 654 c 128,-1,2
 1600 579 1600 579 1508 579 c 2,3,-1
 1356 579 l 1,4,5
 1356 407 1356 407 1230 278 c 0,6,7
 1104 150 1104 150 926 150 c 1,8,-1
 926 -4 l 2,9,10
 926 -93 926 -93 849 -93 c 8,11,12
 776 -93 776 -93 776 -4 c 2,13,-1
 776 150 l 1,14,15
 602 169 602 169 485 282 c 0,16,17
 368 394 368 394 346 579 c 1,18,-1
 201 579 l 0,19,20
 100 579 100 579 100 656 c 8,21,22
 100 729 100 729 201 729 c 2,23,-1
 346 729 l 1,24,25
 365 891 365 891 482 1018 c 0,26,27
 610 1159 610 1159 776 1159 c 1,28,-1
 776 1362 l 2,29,30
 776 1441 776 1441 852 1441 c 0,31,32
 926 1441 926 1441 926 1362 c 2,33,-1
 926 1159 l 1,34,35
 1066 1159 1066 1159 1212 1034 c 0,36,37
 1309 951 1309 951 1356 729 c 1,38,-1
 1508 729 l 10,0,1
496 579 m 1,39,40
 496 470 496 470 568 384 c 0,41,42
 639 299 639 299 776 299 c 1,43,-1
 776 579 l 1,44,-1
 496 579 l 1,39,40
776 729 m 1,45,-1
 776 1010 l 1,46,47
 533 984 533 984 496 729 c 1,48,-1
 776 729 l 1,45,-1
926 579 m 1,49,-1
 926 299 l 1,50,51
 1060 299 1060 299 1135 384 c 0,52,53
 1206 464 1206 464 1206 579 c 1,54,-1
 926 579 l 1,49,-1
926 729 m 1,55,-1
 1206 729 l 1,56,57
 1177 873 1177 873 1127 919 c 24,58,59
 1028 1010 1028 1010 926 1010 c 1,60,-1
 926 729 l 1,55,-1
EndSplineSet
Validated: 2049
EndChar

StartChar: uni232D
Encoding: 9005 9005 351
Width: 1845
VWidth: 0
Flags: W
HStem: 0 21G<170.5 194> 357 141<755.427 1076.69> 1007 149<772.874 1079.25>
LayerCount: 2
Fore
SplineSet
782 1536 m 16,0,1
 827 1536 827 1536 850 1511 c 0,2,3
 864 1496 864 1496 864 1476 c 0,4,5
 864 1455 864 1455 851 1425 c 2,6,-1
 714 1110 l 1,7,8
 813 1156 813 1156 918 1156 c 0,9,10
 1092 1156 1092 1156 1213 1041 c 0,11,12
 1294 964 1294 964 1323 873 c 1,13,-1
 1588 1463 l 2,14,15
 1620 1535 1620 1535 1665 1535 c 0,16,17
 1691 1535 1691 1535 1719 1523 c 0,18,19
 1745 1512 1745 1512 1745 1471 c 0,20,21
 1745 1459 1745 1459 1724 1412 c 2,22,-1
 1119 49 l 2,23,24
 1100 7 1100 7 1057 7 c 0,25,26
 1029 7 1029 7 1008 18 c 0,27,28
 976 35 976 35 976 68 c 0,29,30
 976 84 976 84 990 113 c 2,31,-1
 1121 408 l 1,32,33
 1019 357 1019 357 914 357 c 0,34,35
 746 357 746 357 622 461 c 0,36,37
 536 533 536 533 507 635 c 1,38,-1
 249 42 l 2,39,40
 242 26 242 26 222 13 c 128,-1,41
 202 0 202 0 186 0 c 0,42,43
 155 0 155 0 127.5 13 c 128,-1,44
 100 26 100 26 100 70 c 0,45,46
 100 80 100 80 105 91 c 2,47,-1
 707 1473 l 2,48,49
 735 1536 735 1536 782 1536 c 16,0,1
1136 587 m 16,50,51
 1190 637 1190 637 1190 747 c 8,52,53
 1190 861 1190 861 1122 928 c 0,54,55
 1042 1007 1042 1007 926 1007 c 0,56,57
 821 1007 821 1007 723 928 c 0,58,59
 645 865 645 865 645 755 c 0,60,61
 645 666 645 666 705 589 c 0,62,63
 776 498 776 498 923 498 c 24,64,65
 1040 498 1040 498 1136 587 c 16,50,51
EndSplineSet
Validated: 1
EndChar

StartChar: uni232F
Encoding: 9007 9007 352
Width: 1840
VWidth: 0
Flags: W
HStem: 179 150<412.689 1433.04> 579 150<123.72 1733.04> 984 150<419.72 1440.04>
LayerCount: 2
Fore
SplineSet
419 1006 m 0,0,1
 397 1027 397 1027 397 1060 c 0,2,3
 397 1092 397 1092 419 1113 c 128,-1,4
 441 1134 441 1134 471 1134 c 2,5,-1
 1371 1134 l 2,6,7
 1402 1134 1402 1134 1424 1112 c 0,8,9
 1447 1089 1447 1089 1447 1060 c 0,10,11
 1447 1030 1447 1030 1425 1007 c 128,-1,12
 1403 984 1403 984 1371 984 c 2,13,-1
 471 984 l 2,14,15
 442 984 442 984 419 1006 c 0,0,1
412 200 m 0,16,17
 390 222 390 222 390 254 c 0,18,19
 390 287 390 287 412 308 c 128,-1,20
 434 329 434 329 464 329 c 2,21,-1
 1364 329 l 2,22,23
 1395 329 1395 329 1418 306 c 0,24,25
 1440 284 1440 284 1440 254 c 0,26,27
 1440 225 1440 225 1418 202 c 128,-1,28
 1396 179 1396 179 1364 179 c 2,29,-1
 464 179 l 2,30,31
 433 179 433 179 412 200 c 0,16,17
123 600 m 0,32,33
 100 622 100 622 100 654 c 0,34,35
 100 687 100 687 123 708 c 128,-1,36
 146 729 146 729 176 729 c 2,37,-1
 1664 729 l 2,38,39
 1695 729 1695 729 1718 706 c 0,40,41
 1740 684 1740 684 1740 654 c 0,42,43
 1740 625 1740 625 1718 602 c 128,-1,44
 1696 579 1696 579 1664 579 c 2,45,-1
 176 579 l 2,46,47
 145 579 145 579 123 600 c 0,32,33
EndSplineSet
Validated: 2049
EndChar

StartChar: uni2330
Encoding: 9008 9008 353
Width: 2083
VWidth: 0
Flags: W
HStem: 0 150<287 1266> 1495 20G<700.5 731.5 1837 1871.5>
VStem: 638 159<731.18 986> 1779 154<720.254 816 816 985>
LayerCount: 2
Fore
SplineSet
797 816 m 10,0,1
 797 722 797 722 705 722 c 0,2,3
 638 722 638 722 638 820 c 2,4,-1
 638 986 l 1,5,-1
 287 150 l 1,6,-1
 1266 150 l 1,7,-1
 1608 967 l 1,8,-1
 1537 878 l 2,9,10
 1515 851 1515 851 1484 851 c 0,11,12
 1452 851 1452 851 1432 866 c 0,13,14
 1404 887 1404 887 1404 918 c 0,15,16
 1404 950 1404 950 1420 972 c 2,17,-1
 1800 1487 l 2,18,19
 1821 1515 1821 1515 1853 1515 c 0,20,21
 1890 1515 1890 1515 1908 1495 c 0,22,23
 1933 1467 1933 1467 1933 1434 c 2,24,-1
 1933 814 l 10,25,26
 1933 711 1933 711 1844 711 c 0,27,28
 1779 711 1779 711 1779 816 c 2,29,-1
 1779 985 l 1,30,-1
 1385 49 l 2,31,32
 1366 3 1366 3 1320 3 c 1,33,-1
 1320 0 l 1,34,-1
 174 0 l 1,35,-1
 174 4 l 1,36,37
 121 4 121 4 105 52 c 0,38,39
 100 67 100 67 100 80 c 0,40,41
 100 94 100 94 106 108 c 2,42,-1
 467 968 l 1,43,-1
 396 879 l 2,44,45
 374 852 374 852 346 852 c 0,46,47
 313 852 313 852 292 866 c 0,48,49
 263 885 263 885 263 918 c 0,50,51
 263 952 263 952 279 973 c 2,52,-1
 664 1488 l 2,53,54
 685 1516 685 1516 716 1516 c 128,-1,55
 747 1516 747 1516 772 1498 c 0,56,57
 798 1479 798 1479 798 1442 c 0,58,59
 798 1438 798 1438 797 1435 c 1,60,-1
 797 816 l 10,0,1
EndSplineSet
Validated: 1
EndChar

StartChar: uni2333
Encoding: 9011 9011 354
Width: 2118
VWidth: 0
Flags: W
HStem: 525 144<270 1305>
VStem: 130 140<669 1046>
LayerCount: 2
Fore
SplineSet
270 669 m 1,0,-1
 1305 669 l 1,1,-1
 270 1046 l 1,2,-1
 270 669 l 1,0,-1
130 525 m 1,3,-1
 130 1275 l 1,4,-1
 2018 525 l 1,5,-1
 130 525 l 1,3,-1
EndSplineSet
Validated: 1
EndChar

StartChar: uni2332
Encoding: 9010 9010 355
Width: 2127
VWidth: 0
Flags: W
HStem: 0 21G<150 203.023> 632 150<304 1402>
VStem: 150 154<214 632 782 1230>
LayerCount: 2
Fore
SplineSet
150 1452 m 1,0,-1
 2027 708 l 1,1,-1
 150 0 l 1,2,-1
 150 1452 l 1,0,-1
304 632 m 1,3,-1
 304 214 l 1,4,-1
 1402 632 l 1,5,-1
 304 632 l 1,3,-1
304 782 m 1,6,-1
 1402 782 l 1,7,-1
 304 1230 l 1,8,-1
 304 782 l 1,6,-1
EndSplineSet
Validated: 2049
EndChar

StartChar: uni2334
Encoding: 9012 9012 356
Width: 2188
VWidth: 0
Flags: W
HStem: 119 150<300 1888>
VStem: 150 150<269 1261> 1888 150<269 1286>
LayerCount: 2
Fore
SplineSet
150 1261 m 1,0,-1
 300 1261 l 1,1,-1
 300 269 l 1,2,-1
 1888 269 l 1,3,-1
 1888 1286 l 1,4,-1
 2038 1286 l 1,5,-1
 2038 119 l 1,6,-1
 150 119 l 1,7,-1
 150 1261 l 1,0,-1
EndSplineSet
Validated: 1
EndChar

StartChar: uni2335
Encoding: 9013 9013 357
Width: 2098
VWidth: 0
Flags: W
LayerCount: 2
Fore
SplineSet
1861 1200 m 2,0,1
 1884 1228 1884 1228 1921 1228 c 0,2,3
 1962 1228 1962 1228 1979 1210 c 0,4,5
 1998 1190 1998 1190 1998 1167 c 0,6,7
 1998 1133 1998 1133 1986 1118 c 2,8,-1
 1068 53 l 2,9,10
 1051 33 1051 33 1031 33 c 0,11,12
 1006 33 1006 33 989 54 c 2,13,-1
 108 1118 l 2,14,15
 100 1129 100 1129 100 1157 c 0,16,17
 100 1178 100 1178 119 1203 c 0,18,19
 139 1229 139 1229 179 1229 c 0,20,21
 205 1229 205 1229 230 1199 c 2,22,-1
 1029 245 l 1,23,-1
 1861 1200 l 2,0,1
EndSplineSet
Validated: 1
EndChar

StartChar: uni23CA
Encoding: 9162 9162 359
Width: 1811
VWidth: 0
Flags: W
HStem: 0 150<104.395 819 968 1705.81>
VStem: 819 149<150 1486>
LayerCount: 2
Fore
SplineSet
968 1412 m 2,0,-1
 968 150 l 1,1,-1
 1628 150 l 10,2,3
 1711 150 1711 150 1711 77 c 24,4,5
 1711 0 1711 0 1628 0 c 2,6,-1
 180 0 l 2,7,8
 100 0 100 0 100 76 c 0,9,10
 100 150 100 150 180 150 c 1,11,-1
 819 150 l 1,12,-1
 819 1411 l 2,13,14
 819 1491 819 1491 889 1491 c 0,15,16
 968 1491 968 1491 968 1412 c 2,0,-1
EndSplineSet
Validated: 1
EndChar

StartChar: uni23E4
Encoding: 9188 9188 360
Width: 1654
VWidth: 0
Flags: W
HStem: 593 152<105.75 1548.88>
LayerCount: 2
Fore
SplineSet
187 745 m 26,0,-1
 1472 745 l 26,1,2
 1554 745 1554 745 1554 671 c 24,3,4
 1554 593 1554 593 1473 593 c 26,5,-1
 192 593 l 26,6,7
 100 593 100 593 100 671 c 24,8,9
 100 745 100 745 187 745 c 26,0,-1
EndSplineSet
Validated: 1
EndChar

StartChar: uni23E5
Encoding: 9189 9189 361
Width: 2031
VWidth: 0
Flags: W
HStem: 69 150<300 1326> 1108 150<703 1744>
LayerCount: 2
Fore
SplineSet
581 1205 m 2,0,1
 606 1258 606 1258 666 1258 c 2,2,-1
 1847 1258 l 2,3,4
 1897 1258 1897 1258 1919 1224 c 0,5,6
 1931 1205 1931 1205 1931 1185 c 0,7,8
 1931 1168 1931 1168 1919 1142 c 2,9,-1
 1445 115 l 2,10,11
 1424 69 1424 69 1371 69 c 2,12,-1
 178 69 l 2,13,14
 137 69 137 69 113 104 c 0,15,16
 100 123 100 123 100 141 c 0,17,18
 100 164 100 164 111 188 c 2,19,-1
 581 1205 l 2,0,1
300 219 m 1,20,-1
 1326 219 l 1,21,-1
 1744 1108 l 1,22,-1
 703 1108 l 1,23,-1
 300 219 l 1,20,-1
EndSplineSet
Validated: 1
EndChar

StartChar: uni24BA
Encoding: 9402 9402 362
Width: 2349
VWidth: 0
Flags: W
HStem: -438 139<896.81 1450.53> -91 144<972 1575.46> 668 140<972 1427.99> 1274 145<972 1577.12> 1621 139<893.521 1450.72>
VStem: 100 138<370.895 949.97> 828 144<53 668 808 1274> 2108 141<364.937 953.484>
LayerCount: 2
Fore
SplineSet
100 690 m 2,0,1
 100 801 100 801 138 950 c 0,2,3
 208 1224 208 1224 408 1432 c 0,4,5
 609 1641 609 1641 887 1720 c 0,6,7
 1028 1760 1028 1760 1174 1760 c 0,8,9
 1457 1760 1457 1760 1712 1610 c 0,10,11
 1982 1451 1982 1451 2108 1210 c 0,12,13
 2249 940 2249 940 2249 668 c 0,14,15
 2249 392 2249 392 2108 113 c 0,16,17
 1986 -128 1986 -128 1717 -288 c 0,18,19
 1466 -438 1466 -438 1173.5 -438 c 128,-1,20
 881 -438 881 -438 630 -287 c 0,21,22
 267 -70 267 -70 137 368 c 0,23,24
 100 492 100 492 100 576 c 2,25,-1
 100 690 l 2,0,1
238 660 m 0,26,27
 238 271 238 271 513 -21 c 0,28,29
 672 -191 672 -191 925 -264 c 0,30,31
 1047 -299 1047 -299 1173 -299 c 0,32,33
 1417 -299 1417 -299 1636 -172 c 0,34,35
 1856 -44 1856 -44 1982 178 c 128,-1,36
 2108 400 2108 400 2108 660 c 0,37,38
 2108 1052 2108 1052 1833 1341 c 0,39,40
 1667 1515 1667 1515 1421 1586 c 0,41,42
 1299 1621 1299 1621 1173 1621 c 0,43,44
 923 1621 923 1621 708 1493 c 128,-1,45
 493 1365 493 1365 365.5 1144 c 128,-1,46
 238 923 238 923 238 660 c 0,26,27
972 53 m 1,47,-1
 1505 53 l 2,48,49
 1579 53 1579 53 1579 -19 c 128,-1,50
 1579 -91 1579 -91 1508 -91 c 2,51,-1
 894 -91 l 2,52,53
 828 -91 828 -91 828 -16 c 2,54,-1
 828 1341 l 2,55,56
 828 1419 828 1419 917 1419 c 2,57,-1
 1500 1419 l 2,58,59
 1581 1419 1581 1419 1581 1346 c 0,60,61
 1581 1274 1581 1274 1500 1274 c 2,62,-1
 972 1274 l 1,63,-1
 972 808 l 1,64,-1
 1358 808 l 2,65,66
 1431 808 1431 808 1431 738 c 128,-1,67
 1431 668 1431 668 1360 668 c 2,68,-1
 972 668 l 1,69,-1
 972 53 l 1,47,-1
EndSplineSet
Validated: 2049
EndChar

StartChar: uni24BB
Encoding: 9403 9403 363
Width: 2347
VWidth: 0
Flags: W
HStem: -438 139<896.743 1446.58> 652 146<965 1565.22> 1260 144<965 1565.22> 1621 139<893.537 1451.97>
VStem: 100 138<370.895 949.97> 816 148<-102.441 -24 -24 652 798 1260> 2108 139<368.229 953.074>
LayerCount: 2
Fore
SplineSet
964 652 m 1,0,-1
 964 -25 l 10,1,2
 964 -107 964 -107 889 -107 c 24,3,4
 816 -107 816 -107 816 -24 c 2,5,6
 816 -24 816 -24 816 1334 c 26,7,8
 816 1404 816 1404 894 1404 c 2,9,10
 894 1404 894 1404 1490 1404 c 26,11,12
 1569 1404 1569 1404 1569 1332 c 152,-1,13
 1569 1260 1569 1260 1491 1260 c 18,14,-1
 965 1260 l 1,15,-1
 965 798 l 1,16,-1
 1491 798 l 10,17,18
 1569 798 1569 798 1569 725 c 152,-1,19
 1569 652 1569 652 1490 652 c 18,20,-1
 964 652 l 1,0,-1
100 690 m 2,21,22
 100 802 100 802 138 950 c 0,23,24
 208 1224 208 1224 413 1438 c 0,25,26
 608 1641 608 1641 887 1720 c 0,27,28
 1029 1760 1029 1760 1174 1760 c 0,29,30
 1462 1760 1462 1760 1712 1611 c 0,31,32
 1964 1461 1964 1461 2104 1212 c 0,33,34
 2247 958 2247 958 2247 660 c 0,35,36
 2247 364 2247 364 2103 108 c 0,37,38
 1966 -138 1966 -138 1713 -290 c 0,39,40
 1466 -438 1466 -438 1173 -438 c 0,41,42
 881 -438 881 -438 630 -287 c 0,43,44
 267 -70 267 -70 137 368 c 0,45,46
 100 492 100 492 100 576 c 2,47,-1
 100 690 l 2,21,22
238 660 m 0,48,49
 238 271 238 271 513 -21 c 0,50,51
 672 -191 672 -191 925 -264 c 0,52,53
 1047 -299 1047 -299 1173 -299 c 0,54,55
 1417 -299 1417 -299 1637 -171 c 0,56,57
 1856 -44 1856 -44 1980 175 c 0,58,59
 2108 400 2108 400 2108 660 c 0,60,61
 2108 1052 2108 1052 1833 1341 c 0,62,63
 1667 1515 1667 1515 1421 1586 c 0,64,65
 1299 1621 1299 1621 1173 1621 c 0,66,67
 923 1621 923 1621 708 1493 c 128,-1,68
 493 1365 493 1365 365.5 1144 c 128,-1,69
 238 923 238 923 238 660 c 0,48,49
EndSplineSet
Validated: 2049
EndChar

StartChar: uni24C1
Encoding: 9409 9409 364
Width: 2347
VWidth: 0
Flags: W
HStem: -438 139<896.743 1446.58> -84 144<940 1547.5> 1621 139<893.537 1451.97>
VStem: 100 138<370.895 949.97> 795 145<60 1422.27> 2108 139<368.229 953.074>
LayerCount: 2
Fore
SplineSet
940 1348 m 2,0,-1
 940 60 l 1,1,-1
 1461 60 l 2,2,3
 1552 60 1552 60 1552 -12 c 128,-1,4
 1552 -84 1552 -84 1458 -84 c 2,5,-1
 866 -84 l 2,6,7
 795 -84 795 -84 795 4 c 2,8,-1
 795 1348 l 2,9,10
 795 1426 795 1426 867.5 1426 c 128,-1,11
 940 1426 940 1426 940 1348 c 2,0,-1
100 690 m 2,12,13
 100 802 100 802 138 950 c 0,14,15
 208 1224 208 1224 413 1438 c 0,16,17
 608 1641 608 1641 887 1720 c 0,18,19
 1029 1760 1029 1760 1174 1760 c 0,20,21
 1462 1760 1462 1760 1712 1611 c 0,22,23
 1964 1461 1964 1461 2104 1212 c 0,24,25
 2247 958 2247 958 2247 660 c 0,26,27
 2247 364 2247 364 2103 108 c 0,28,29
 1966 -138 1966 -138 1713 -290 c 0,30,31
 1466 -438 1466 -438 1173 -438 c 0,32,33
 881 -438 881 -438 630 -287 c 0,34,35
 267 -70 267 -70 137 368 c 0,36,37
 100 492 100 492 100 576 c 2,38,-1
 100 690 l 2,12,13
238 660 m 0,39,40
 238 271 238 271 513 -21 c 0,41,42
 672 -191 672 -191 925 -264 c 0,43,44
 1047 -299 1047 -299 1173 -299 c 0,45,46
 1417 -299 1417 -299 1637 -171 c 0,47,48
 1856 -44 1856 -44 1980 175 c 0,49,50
 2108 400 2108 400 2108 660 c 0,51,52
 2108 1052 2108 1052 1833 1341 c 0,53,54
 1667 1515 1667 1515 1421 1586 c 0,55,56
 1299 1621 1299 1621 1173 1621 c 0,57,58
 923 1621 923 1621 708 1493 c 128,-1,59
 493 1365 493 1365 365.5 1144 c 128,-1,60
 238 923 238 923 238 660 c 0,39,40
EndSplineSet
Validated: 2049
EndChar

StartChar: uni24C2
Encoding: 9410 9410 365
Width: 2347
VWidth: 0
Flags: W
HStem: -438 139<896.743 1446.58> 1621 139<893.537 1451.97>
VStem: 100 138<370.895 949.97> 652 148<-75.125 1089> 1568 148<-75.5618 1091> 2108 139<368.229 953.074>
LayerCount: 2
Fore
SplineSet
1576 1391 m 2,0,1
 1600 1429 1600 1429 1640 1429 c 0,2,3
 1716 1429 1716 1429 1716 1349 c 2,4,-1
 1716 18 l 2,5,6
 1716 -81 1716 -81 1642 -81 c 128,-1,7
 1568 -81 1568 -81 1568 18 c 2,8,-1
 1568 1091 l 1,9,-1
 1256 583 l 2,10,11
 1218 520 1218 520 1180 520 c 128,-1,12
 1142 520 1142 520 1106 581 c 2,13,-1
 800 1089 l 1,14,-1
 800 13 l 2,15,16
 800 -81 800 -81 723 -81 c 0,17,18
 652 -81 652 -81 652 11 c 2,19,-1
 652 1350 l 2,20,21
 652 1429 652 1429 728 1429 c 0,22,23
 767 1429 767 1429 790 1394 c 2,24,-1
 1176 743 l 1,25,-1
 1576 1391 l 2,0,1
100 690 m 2,26,27
 100 802 100 802 138 950 c 0,28,29
 208 1224 208 1224 413 1438 c 0,30,31
 608 1641 608 1641 887 1720 c 0,32,33
 1029 1760 1029 1760 1174 1760 c 0,34,35
 1462 1760 1462 1760 1712 1611 c 0,36,37
 1964 1461 1964 1461 2104 1212 c 0,38,39
 2247 958 2247 958 2247 660 c 0,40,41
 2247 364 2247 364 2103 108 c 0,42,43
 1966 -138 1966 -138 1713 -290 c 0,44,45
 1466 -438 1466 -438 1173 -438 c 0,46,47
 881 -438 881 -438 630 -287 c 0,48,49
 267 -70 267 -70 137 368 c 0,50,51
 100 492 100 492 100 576 c 2,52,-1
 100 690 l 2,26,27
238 660 m 0,53,54
 238 271 238 271 513 -21 c 0,55,56
 672 -191 672 -191 925 -264 c 0,57,58
 1047 -299 1047 -299 1173 -299 c 0,59,60
 1417 -299 1417 -299 1637 -171 c 0,61,62
 1856 -44 1856 -44 1980 175 c 0,63,64
 2108 400 2108 400 2108 660 c 0,65,66
 2108 1052 2108 1052 1833 1341 c 0,67,68
 1667 1515 1667 1515 1421 1586 c 0,69,70
 1299 1621 1299 1621 1173 1621 c 0,71,72
 923 1621 923 1621 708 1493 c 128,-1,73
 493 1365 493 1365 365.5 1144 c 128,-1,74
 238 923 238 923 238 660 c 0,53,54
EndSplineSet
Validated: 2049
EndChar

StartChar: uni24C5
Encoding: 9413 9413 366
Width: 2347
VWidth: 0
Flags: W
HStem: -438 139<896.743 1446.58> 521 148<1002 1470.06> 1280 144<1002 1466.19> 1621 139<893.537 1451.97>
VStem: 100 138<370.895 949.97> 854 148<-77.2759 521 669 1280> 1612 144<814.792 1138.13> 2108 139<368.229 953.074>
LayerCount: 2
Fore
SplineSet
1002 1280 m 5,0,-1
 1002 669 l 5,1,-1
 1334 669 l 6,2,3
 1435 669 1435 669 1524 758 c 4,4,5
 1612 846 1612 846 1612 976 c 132,-1,6
 1612 1106 1612 1106 1523.5 1193 c 132,-1,7
 1435 1280 1435 1280 1292 1280 c 6,8,-1
 1002 1280 l 5,0,-1
1002 0 m 6,9,10
 1002 -82 1002 -82 928 -82 c 132,-1,11
 854 -82 854 -82 854 4 c 6,12,-1
 854 1345 l 6,13,14
 854 1424 854 1424 936 1424 c 6,15,-1
 1323 1424 l 6,16,17
 1510 1424 1510 1424 1644 1274 c 4,18,19
 1756 1149 1756 1149 1756 1000 c 4,20,21
 1756 818 1756 818 1678 714 c 4,22,23
 1533 521 1533 521 1334 521 c 6,24,-1
 1002 521 l 5,25,-1
 1002 0 l 6,9,10
100 690 m 6,26,27
 100 802 100 802 138 950 c 4,28,29
 208 1224 208 1224 413 1438 c 4,30,31
 608 1641 608 1641 887 1720 c 4,32,33
 1029 1760 1029 1760 1174 1760 c 4,34,35
 1462 1760 1462 1760 1712 1611 c 4,36,37
 1964 1461 1964 1461 2104 1212 c 4,38,39
 2247 958 2247 958 2247 660 c 4,40,41
 2247 364 2247 364 2103 108 c 4,42,43
 1966 -138 1966 -138 1713 -290 c 4,44,45
 1466 -438 1466 -438 1173 -438 c 4,46,47
 881 -438 881 -438 630 -287 c 4,48,49
 267 -70 267 -70 137 368 c 4,50,51
 100 492 100 492 100 576 c 6,52,-1
 100 690 l 6,26,27
238 660 m 4,53,54
 238 271 238 271 513 -21 c 4,55,56
 672 -191 672 -191 925 -264 c 4,57,58
 1047 -299 1047 -299 1173 -299 c 4,59,60
 1417 -299 1417 -299 1637 -171 c 4,61,62
 1856 -44 1856 -44 1980 175 c 4,63,64
 2108 400 2108 400 2108 660 c 4,65,66
 2108 1052 2108 1052 1833 1341 c 4,67,68
 1667 1515 1667 1515 1421 1586 c 4,69,70
 1299 1621 1299 1621 1173 1621 c 4,71,72
 923 1621 923 1621 708 1493 c 132,-1,73
 493 1365 493 1365 365.5 1144 c 132,-1,74
 238 923 238 923 238 660 c 4,53,54
EndSplineSet
Validated: 2049
EndChar

StartChar: uni24C8
Encoding: 9416 9416 367
Width: 2347
VWidth: 0
Flags: W
HStem: -438 139<896.743 1446.58> -85 149<961.62 1358.61> 1282 143<928.43 1337.83> 1621 139<893.537 1451.97>
VStem: 100 138<370.895 949.97> 689 148<916.441 1190.96> 1446 148<148.652 427.583> 2108 139<368.229 953.074>
LayerCount: 2
Fore
SplineSet
689 1046 m 0,0,1
 689 1202 689 1202 797 1314 c 0,2,3
 905 1425 905 1425 1058 1425 c 0,4,5
 1270 1425 1270 1425 1443 1360 c 0,6,7
 1515 1333 1515 1333 1515 1277 c 0,8,9
 1515 1208 1515 1208 1446 1208 c 0,10,11
 1417 1208 1417 1208 1355 1232 c 0,12,13
 1226 1282 1226 1282 1080 1282 c 0,14,15
 948 1282 948 1282 879 1188 c 0,16,17
 837 1131 837 1131 837 1038 c 0,18,19
 837 911 837 911 992 832 c 2,20,-1
 1357 647 l 2,21,22
 1594 525 1594 525 1594 293 c 0,23,24
 1594 119 1594 119 1470 12 c 0,25,26
 1358 -85 1358 -85 1201 -85 c 0,27,28
 963 -85 963 -85 745 58 c 0,29,30
 689 95 689 95 689 140 c 0,31,32
 689 209 689 209 763 209 c 0,33,34
 790 209 790 209 835 177 c 0,35,36
 993 64 993 64 1214 64 c 0,37,38
 1279 64 1279 64 1331 91 c 0,39,40
 1446 151 1446 151 1446 298 c 0,41,42
 1446 437 1446 437 1295 513 c 2,43,-1
 902 712 l 2,44,45
 689 820 689 820 689 1046 c 0,0,1
100 690 m 2,46,47
 100 802 100 802 138 950 c 0,48,49
 208 1224 208 1224 413 1438 c 0,50,51
 608 1641 608 1641 887 1720 c 0,52,53
 1029 1760 1029 1760 1174 1760 c 0,54,55
 1462 1760 1462 1760 1712 1611 c 0,56,57
 1964 1461 1964 1461 2104 1212 c 0,58,59
 2247 958 2247 958 2247 660 c 0,60,61
 2247 364 2247 364 2103 108 c 0,62,63
 1966 -138 1966 -138 1713 -290 c 0,64,65
 1466 -438 1466 -438 1173 -438 c 0,66,67
 881 -438 881 -438 630 -287 c 0,68,69
 267 -70 267 -70 137 368 c 0,70,71
 100 492 100 492 100 576 c 2,72,-1
 100 690 l 2,46,47
238 660 m 0,73,74
 238 271 238 271 513 -21 c 0,75,76
 672 -191 672 -191 925 -264 c 0,77,78
 1047 -299 1047 -299 1173 -299 c 0,79,80
 1417 -299 1417 -299 1637 -171 c 0,81,82
 1856 -44 1856 -44 1980 175 c 0,83,84
 2108 400 2108 400 2108 660 c 0,85,86
 2108 1052 2108 1052 1833 1341 c 0,87,88
 1667 1515 1667 1515 1421 1586 c 0,89,90
 1299 1621 1299 1621 1173 1621 c 0,91,92
 923 1621 923 1621 708 1493 c 128,-1,93
 493 1365 493 1365 365.5 1144 c 128,-1,94
 238 923 238 923 238 660 c 0,73,74
EndSplineSet
Validated: 2049
EndChar

StartChar: uni24C9
Encoding: 9417 9417 368
Width: 2347
VWidth: 0
Flags: W
HStem: -438 139<896.743 1446.58> 1284 145<721.834 1095 1241 1614.55> 1621 139<893.537 1451.97>
VStem: 100 138<370.895 949.97> 1095 146<-82.2197 1284> 2108 139<368.229 953.074>
LayerCount: 2
Fore
SplineSet
717 1360 m 0,0,1
 717 1429 717 1429 805 1429 c 2,2,-1
 1546 1429 l 2,3,4
 1618 1429 1618 1429 1618 1357 c 0,5,6
 1618 1284 1618 1284 1548 1284 c 2,7,-1
 1241 1284 l 1,8,-1
 1241 -7 l 2,9,10
 1241 -86 1241 -86 1168 -86 c 128,-1,11
 1095 -86 1095 -86 1095 -9 c 2,12,-1
 1095 1284 l 1,13,-1
 803 1284 l 2,14,15
 717 1284 717 1284 717 1360 c 0,0,1
100 690 m 2,16,17
 100 802 100 802 138 950 c 0,18,19
 208 1224 208 1224 413 1438 c 0,20,21
 608 1641 608 1641 887 1720 c 0,22,23
 1029 1760 1029 1760 1174 1760 c 0,24,25
 1462 1760 1462 1760 1712 1611 c 0,26,27
 1964 1461 1964 1461 2104 1212 c 0,28,29
 2247 958 2247 958 2247 660 c 0,30,31
 2247 364 2247 364 2103 108 c 0,32,33
 1966 -138 1966 -138 1713 -290 c 0,34,35
 1466 -438 1466 -438 1173 -438 c 0,36,37
 881 -438 881 -438 630 -287 c 0,38,39
 267 -70 267 -70 137 368 c 0,40,41
 100 492 100 492 100 576 c 2,42,-1
 100 690 l 2,16,17
238 660 m 0,43,44
 238 271 238 271 513 -21 c 0,45,46
 672 -191 672 -191 925 -264 c 0,47,48
 1047 -299 1047 -299 1173 -299 c 0,49,50
 1417 -299 1417 -299 1637 -171 c 0,51,52
 1856 -44 1856 -44 1980 175 c 0,53,54
 2108 400 2108 400 2108 660 c 0,55,56
 2108 1052 2108 1052 1833 1341 c 0,57,58
 1667 1515 1667 1515 1421 1586 c 0,59,60
 1299 1621 1299 1621 1173 1621 c 0,61,62
 923 1621 923 1621 708 1493 c 128,-1,63
 493 1365 493 1365 365.5 1144 c 128,-1,64
 238 923 238 923 238 660 c 0,43,44
EndSplineSet
Validated: 2049
EndChar

StartChar: uni24CA
Encoding: 9418 9418 369
Width: 2347
VWidth: 0
Flags: W
HStem: -438 139<896.743 1446.58> -86 143<1019.73 1327.28> 1621 139<893.537 1451.97>
VStem: 100 138<370.895 949.97> 722 146<201.909 1419.72> 1480 148<207.648 1419.72> 2108 139<368.229 953.074>
LayerCount: 2
Fore
SplineSet
722 1346 m 2,0,1
 722 1424 722 1424 792 1424 c 0,2,3
 868 1424 868 1424 868 1346 c 2,4,-1
 868 377 l 2,5,6
 868 216 868 216 976 131 c 0,7,8
 1071 57 1071 57 1172 57 c 0,9,10
 1297 57 1297 57 1398 157 c 0,11,12
 1480 238 1480 238 1480 382 c 2,13,-1
 1480 1346 l 2,14,15
 1480 1424 1480 1424 1555 1424 c 0,16,17
 1628 1424 1628 1424 1628 1336 c 2,18,-1
 1628 388 l 2,19,20
 1628 175 1628 175 1497 50 c 0,21,22
 1355 -86 1355 -86 1170 -86 c 0,23,24
 1005 -86 1005 -86 876 22 c 0,25,26
 722 151 722 151 722 354 c 2,27,-1
 722 1346 l 2,0,1
100 690 m 2,28,29
 100 802 100 802 138 950 c 0,30,31
 208 1224 208 1224 413 1438 c 0,32,33
 608 1641 608 1641 887 1720 c 0,34,35
 1029 1760 1029 1760 1174 1760 c 0,36,37
 1462 1760 1462 1760 1712 1611 c 0,38,39
 1964 1461 1964 1461 2104 1212 c 0,40,41
 2247 958 2247 958 2247 660 c 0,42,43
 2247 364 2247 364 2103 108 c 0,44,45
 1966 -138 1966 -138 1713 -290 c 0,46,47
 1466 -438 1466 -438 1173 -438 c 0,48,49
 881 -438 881 -438 630 -287 c 0,50,51
 267 -70 267 -70 137 368 c 0,52,53
 100 492 100 492 100 576 c 2,54,-1
 100 690 l 2,28,29
238 660 m 0,55,56
 238 271 238 271 513 -21 c 0,57,58
 672 -191 672 -191 925 -264 c 0,59,60
 1047 -299 1047 -299 1173 -299 c 0,61,62
 1417 -299 1417 -299 1637 -171 c 0,63,64
 1856 -44 1856 -44 1980 175 c 0,65,66
 2108 400 2108 400 2108 660 c 0,67,68
 2108 1052 2108 1052 1833 1341 c 0,69,70
 1667 1515 1667 1515 1421 1586 c 0,71,72
 1299 1621 1299 1621 1173 1621 c 0,73,74
 923 1621 923 1621 708 1493 c 128,-1,75
 493 1365 493 1365 365.5 1144 c 128,-1,76
 238 923 238 923 238 660 c 0,55,56
EndSplineSet
Validated: 2049
EndChar

StartChar: H22073
Encoding: 9633 9633 370
Width: 1418
VWidth: 0
Flags: W
HStem: 129 149<300 1118> 1072 149<300 1118>
VStem: 150 150<278 1072> 1118 150<278 1072>
LayerCount: 2
Fore
SplineSet
300 1072 m 1,0,-1
 300 278 l 1,1,-1
 1118 278 l 1,2,-1
 1118 1072 l 1,3,-1
 300 1072 l 1,0,-1
193 1221 m 2,4,-1
 1225 1221 l 2,5,6
 1246 1221 1246 1221 1257 1207 c 128,-1,7
 1268 1193 1268 1193 1268 1178 c 2,8,-1
 1268 172 l 2,9,10
 1268 151 1268 151 1254 140 c 128,-1,11
 1240 129 1240 129 1225 129 c 2,12,-1
 193 129 l 2,13,14
 172 129 172 129 161 143 c 128,-1,15
 150 157 150 157 150 172 c 2,16,-1
 150 1178 l 2,17,18
 150 1199 150 1199 164 1210 c 128,-1,19
 178 1221 178 1221 193 1221 c 2,4,-1
EndSplineSet
Validated: 1
EndChar

StartChar: circle
Encoding: 9675 9675 371
Width: 1701
VWidth: 0
Flags: W
HStem: -84 134<631.556 1062.41> 1281 160<632.14 1078.01>
VStem: 100 152<435.38 889.961> 1452 149<449.843 895.093>
LayerCount: 2
Fore
SplineSet
430 236 m 132,-1,1
 608 50 608 50 848 50 c 4,2,3
 1087 50 1087 50 1270 242 c 4,4,5
 1452 433 1452 433 1452 670 c 4,6,7
 1452 908 1452 908 1278 1094 c 4,8,9
 1103 1281 1103 1281 855 1281 c 4,10,11
 604 1281 604 1281 428 1091 c 132,-1,12
 252 901 252 901 252 662 c 4,13,0
 252 422 252 422 430 236 c 132,-1,1
320 140 m 132,-1,15
 100 364 100 364 100 671 c 4,16,17
 100 979 100 979 328 1210 c 132,-1,18
 556 1441 556 1441 862 1441 c 4,19,20
 1166 1441 1166 1441 1384 1199 c 4,21,22
 1601 958 1601 958 1601 667 c 4,23,24
 1601 375 1601 375 1367 146 c 4,25,26
 1133 -84 1133 -84 836 -84 c 4,27,14
 540 -84 540 -84 320 140 c 132,-1,15
EndSplineSet
Validated: 1
EndChar

StartChar: uni25CE
Encoding: 9678 9678 372
Width: 1838
VWidth: 0
Flags: W
HStem: -95 152<667.741 1170.26> 271 148<772.742 1075.64> 937 148<774.197 1074.19> 1288 152<668.083 1169.92>
VStem: 100 155<436.122 908.47> 518 147<525.269 830.259> 1183 148<525.269 830.259> 1583 155<436.05 908.014>
LayerCount: 2
Fore
SplineSet
255 670 m 0,0,1
 255 529 255 529 307 419 c 0,2,3
 360 310 360 310 448 231 c 128,-1,4
 536 152 536 152 659 104 c 0,5,6
 782 57 782 57 919 57 c 128,-1,7
 1056 57 1056 57 1179 104 c 0,8,9
 1300 151 1300 151 1390 231 c 0,10,11
 1477 308 1477 308 1531 419 c 0,12,13
 1583 528 1583 528 1583 670 c 0,14,15
 1583 816 1583 816 1531 926 c 0,16,17
 1478 1035 1478 1035 1390 1114 c 128,-1,18
 1302 1193 1302 1193 1179 1240 c 0,19,20
 1056 1288 1056 1288 919 1288 c 128,-1,21
 782 1288 782 1288 659 1240 c 0,22,23
 536 1193 536 1193 448 1114 c 128,-1,24
 360 1035 360 1035 307 925 c 0,25,26
 255 817 255 817 255 670 c 0,0,1
100 672 m 0,27,28
 100 852 100 852 166 990 c 0,29,30
 230 1124 230 1124 342 1225 c 128,-1,31
 454 1326 454 1326 602 1382 c 0,32,33
 755 1440 755 1440 919 1440 c 128,-1,34
 1083 1440 1083 1440 1236 1382 c 0,35,36
 1386 1325 1386 1325 1496 1225 c 0,37,38
 1611 1121 1611 1121 1672 990 c 0,39,40
 1738 848 1738 848 1738 672 c 0,41,42
 1738 493 1738 493 1672 355 c 0,43,44
 1608 221 1608 221 1496 120 c 0,45,46
 1387 21 1387 21 1236 -37 c 128,-1,47
 1085 -95 1085 -95 919 -95 c 128,-1,48
 753 -95 753 -95 602 -37 c 128,-1,49
 451 21 451 21 342 120 c 0,50,51
 230 221 230 221 166 355 c 0,52,53
 100 493 100 493 100 672 c 0,27,28
665 678 m 0,54,55
 665 559 665 559 740 489 c 128,-1,56
 815 419 815 419 924 419 c 128,-1,57
 1033 419 1033 419 1108 489 c 128,-1,58
 1183 559 1183 559 1183 678 c 0,59,60
 1183 796 1183 796 1108 866 c 0,61,62
 1032 937 1032 937 924 937 c 128,-1,63
 816 937 816 937 740 866 c 0,64,65
 665 796 665 796 665 678 c 0,54,55
518 678 m 128,-1,67
 518 862 518 862 638 974 c 0,68,69
 757 1085 757 1085 924.5 1085 c 128,-1,70
 1092 1085 1092 1085 1210 974 c 0,71,72
 1331 862 1331 862 1331 678 c 128,-1,73
 1331 494 1331 494 1210 382 c 0,74,75
 1092 271 1092 271 924.5 271 c 128,-1,76
 757 271 757 271 638 382 c 0,77,66
 518 494 518 494 518 678 c 128,-1,67
EndSplineSet
Validated: 2049
EndChar

StartChar: uni2AFD
Encoding: 11005 11005 373
Width: 1679
VWidth: 0
Flags: W
LayerCount: 2
Fore
SplineSet
1436 1394 m 2,0,1
 1457 1438 1457 1438 1509 1438 c 0,2,3
 1549 1438 1549 1438 1568 1411 c 0,4,5
 1579 1393 1579 1393 1579 1362 c 0,6,7
 1579 1347 1579 1347 1572 1332 c 2,8,-1
 921 -52 l 2,9,10
 900 -96 900 -96 853 -96 c 0,11,12
 800 -96 800 -96 783 -47 c 0,13,14
 778 -33 778 -33 778 -20 c 0,15,16
 778 -5 778 -5 785 10 c 2,17,-1
 1436 1394 l 2,0,1
758 1395 m 2,18,19
 780 1441 780 1441 823 1441 c 128,-1,20
 866 1441 866 1441 892 1407 c 0,21,22
 902 1395 902 1395 902 1371 c 128,-1,23
 902 1347 902 1347 894 1331 c 2,24,-1
 243 -48 l 2,25,26
 223 -91 223 -91 174 -91 c 0,27,28
 122 -91 122 -91 105 -42 c 0,29,30
 100 -28 100 -28 100 -14 c 0,31,32
 100 1 100 1 107 16 c 2,33,-1
 758 1395 l 2,18,19
EndSplineSet
Validated: 1
EndChar

StartChar: lessequal
Encoding: 8804 8804 374
Width: 952
VWidth: 0
Flags: W
HStem: 241 144<104.23 847.5> 532 144<792 847.254>
LayerCount: 2
Fore
SplineSet
792 676 m 6,0,1
 852 653 852 653 852 609 c 4,2,3
 852 532 852 532 787 532 c 4,4,5
 763 532 763 532 744 538 c 6,6,-1
 169 755 l 30,7,8
 100 781 100 781 100 831 c 4,9,10
 100 884 100 884 177 913 c 6,11,-1
 737 1123 l 22,12,13
 761 1132 761 1132 784 1132 c 4,14,15
 850 1132 850 1132 850 1053 c 4,16,17
 850 1008 850 1008 782 983 c 6,18,-1
 382 830 l 5,19,-1
 792 676 l 6,0,1
177 385 m 22,20,-1
 780 385 l 14,21,22
 852 385 852 385 852 308 c 28,23,24
 852 241 852 241 775 241 c 6,25,-1
 174 241 l 14,26,27
 100 241 100 241 100 316 c 28,28,29
 100 385 100 385 177 385 c 22,20,-1
EndSplineSet
Validated: 1
EndChar

